M48
; DRILL file {KiCad 9.0.4} date 2026-06-14T22:05:17-0500
; FORMAT={-:-/ absolute / metric / decimal}
; #@! TF.CreationDate,2026-06-14T22:05:17-05:00
; #@! TF.GenerationSoftware,Kicad,Pcbnew,9.0.4
; #@! TF.FileFunction,Plated,1,2,PTH
FMAT,2
METRIC
; #@! TA.AperFunction,Plated,PTH,ComponentDrill
T1C0.200
; #@! TA.AperFunction,Plated,PTH,ViaDrill
T2C0.300
; #@! TA.AperFunction,Plated,PTH,ComponentDrill
T3C0.400
; #@! TA.AperFunction,Plated,PTH,ComponentDrill
T4C0.600
; #@! TA.AperFunction,Plated,PTH,ComponentDrill
T5C0.800
; #@! TA.AperFunction,Plated,PTH,ComponentDrill
T6C0.900
; #@! TA.AperFunction,Plated,PTH,ComponentDrill
T7C1.000
; #@! TA.AperFunction,Plated,PTH,ComponentDrill
T8C1.100
%
G90
G05
T1
X92.869Y-79.274
X92.869Y-80.799
X93.631Y-78.511
X93.631Y-80.036
X93.631Y-81.561
X94.394Y-79.274
X94.394Y-80.799
X95.156Y-78.511
X95.156Y-80.036
X95.156Y-81.561
X95.919Y-79.274
X95.919Y-80.799
T2
X90.76Y-62.5
X90.85Y-96.01
X90.86Y-88.12
X91.66Y-89.56
X92.15Y-70.57
X92.804Y-69.356
X94.29Y-89.57
X95.97Y-69.356
X97.47Y-68.75
X98.27Y-105.37
X98.75Y-95.161
X101.44Y-95.18
X101.45Y-90.44
X102.84Y-106.15
X103.21Y-96.93
X104.009Y-96.97
X104.81Y-73.63
X105.9Y-105.57
X106.38Y-92.33
X106.952Y-92.889
X110.02Y-89.84
X111.075Y-93.315
X114.46Y-63.97
X115.61Y-90.4
X151.56Y-99.92
X151.56Y-101.55
X161.97Y-109.0
X181.29Y-73.32
T3
X182.725Y-71.645
X182.725Y-72.495
X182.725Y-73.345
X182.725Y-74.195
X182.725Y-75.045
X182.725Y-75.895
X182.725Y-76.745
X182.725Y-77.595
X184.075Y-71.645
X184.075Y-72.495
X184.075Y-73.345
X184.075Y-74.195
X184.075Y-75.045
X184.075Y-75.895
X184.075Y-76.745
X184.075Y-77.595
T5
X154.315Y-98.24
X154.315Y-100.78
X154.315Y-103.32
X154.315Y-105.86
X161.935Y-98.24
X161.935Y-100.78
X161.935Y-103.32
X161.935Y-105.86
T6
X123.76Y-60.51
X126.3Y-60.51
X134.91Y-60.6
X137.45Y-60.6
T7
X90.487Y-59.531
X93.027Y-59.531
X95.567Y-59.531
X98.108Y-59.531
X98.434Y-109.604
X100.974Y-109.604
X103.514Y-109.604
X106.054Y-109.604
X106.997Y-59.531
X108.594Y-109.604
X109.537Y-59.531
X111.134Y-109.604
X112.078Y-59.531
T8
X106.914Y-96.684
X106.914Y-103.184
X111.414Y-96.684
X111.414Y-103.184
X121.374Y-96.494
X121.374Y-102.994
X125.874Y-96.494
X125.874Y-102.994
T4
G00X182.955Y-70.295
M15
G01X184.455Y-70.295
M16
G05
G00X182.955Y-78.945
M15
G01X184.455Y-78.945
M16
G05
G00X186.685Y-70.295
M15
G01X187.485Y-70.295
M16
G05
G00X186.685Y-78.945
M15
G01X187.485Y-78.945
M16
G05
M30
