%TF.GenerationSoftware,KiCad,Pcbnew,9.0.4*%
%TF.CreationDate,2026-07-03T00:41:29-05:00*%
%TF.ProjectId,Microgrid-Home-Energy-Monitor,4d696372-6f67-4726-9964-2d486f6d652d,rev?*%
%TF.SameCoordinates,Original*%
%TF.FileFunction,Legend,Top*%
%TF.FilePolarity,Positive*%
%FSLAX46Y46*%
G04 Gerber Fmt 4.6, Leading zero omitted, Abs format (unit mm)*
G04 Created by KiCad (PCBNEW 9.0.4) date 2026-07-03 00:41:29*
%MOMM*%
%LPD*%
G01*
G04 APERTURE LIST*
%ADD10C,0.150000*%
%ADD11C,0.120000*%
G04 APERTURE END LIST*
D10*
X93818095Y-75744819D02*
X93818095Y-76554342D01*
X93818095Y-76554342D02*
X93865714Y-76649580D01*
X93865714Y-76649580D02*
X93913333Y-76697200D01*
X93913333Y-76697200D02*
X94008571Y-76744819D01*
X94008571Y-76744819D02*
X94199047Y-76744819D01*
X94199047Y-76744819D02*
X94294285Y-76697200D01*
X94294285Y-76697200D02*
X94341904Y-76649580D01*
X94341904Y-76649580D02*
X94389523Y-76554342D01*
X94389523Y-76554342D02*
X94389523Y-75744819D01*
X95389523Y-76744819D02*
X94818095Y-76744819D01*
X95103809Y-76744819D02*
X95103809Y-75744819D01*
X95103809Y-75744819D02*
X95008571Y-75887676D01*
X95008571Y-75887676D02*
X94913333Y-75982914D01*
X94913333Y-75982914D02*
X94818095Y-76030533D01*
X95034819Y-91306666D02*
X94558628Y-91639999D01*
X95034819Y-91878094D02*
X94034819Y-91878094D01*
X94034819Y-91878094D02*
X94034819Y-91497142D01*
X94034819Y-91497142D02*
X94082438Y-91401904D01*
X94082438Y-91401904D02*
X94130057Y-91354285D01*
X94130057Y-91354285D02*
X94225295Y-91306666D01*
X94225295Y-91306666D02*
X94368152Y-91306666D01*
X94368152Y-91306666D02*
X94463390Y-91354285D01*
X94463390Y-91354285D02*
X94511009Y-91401904D01*
X94511009Y-91401904D02*
X94558628Y-91497142D01*
X94558628Y-91497142D02*
X94558628Y-91878094D01*
X94034819Y-90973332D02*
X94034819Y-90306666D01*
X94034819Y-90306666D02*
X95034819Y-90735237D01*
X150584819Y-104076666D02*
X150108628Y-104409999D01*
X150584819Y-104648094D02*
X149584819Y-104648094D01*
X149584819Y-104648094D02*
X149584819Y-104267142D01*
X149584819Y-104267142D02*
X149632438Y-104171904D01*
X149632438Y-104171904D02*
X149680057Y-104124285D01*
X149680057Y-104124285D02*
X149775295Y-104076666D01*
X149775295Y-104076666D02*
X149918152Y-104076666D01*
X149918152Y-104076666D02*
X150013390Y-104124285D01*
X150013390Y-104124285D02*
X150061009Y-104171904D01*
X150061009Y-104171904D02*
X150108628Y-104267142D01*
X150108628Y-104267142D02*
X150108628Y-104648094D01*
X149584819Y-103171904D02*
X149584819Y-103648094D01*
X149584819Y-103648094D02*
X150061009Y-103695713D01*
X150061009Y-103695713D02*
X150013390Y-103648094D01*
X150013390Y-103648094D02*
X149965771Y-103552856D01*
X149965771Y-103552856D02*
X149965771Y-103314761D01*
X149965771Y-103314761D02*
X150013390Y-103219523D01*
X150013390Y-103219523D02*
X150061009Y-103171904D01*
X150061009Y-103171904D02*
X150156247Y-103124285D01*
X150156247Y-103124285D02*
X150394342Y-103124285D01*
X150394342Y-103124285D02*
X150489580Y-103171904D01*
X150489580Y-103171904D02*
X150537200Y-103219523D01*
X150537200Y-103219523D02*
X150584819Y-103314761D01*
X150584819Y-103314761D02*
X150584819Y-103552856D01*
X150584819Y-103552856D02*
X150537200Y-103648094D01*
X150537200Y-103648094D02*
X150489580Y-103695713D01*
X129467142Y-59434819D02*
X129133809Y-58958628D01*
X128895714Y-59434819D02*
X128895714Y-58434819D01*
X128895714Y-58434819D02*
X129276666Y-58434819D01*
X129276666Y-58434819D02*
X129371904Y-58482438D01*
X129371904Y-58482438D02*
X129419523Y-58530057D01*
X129419523Y-58530057D02*
X129467142Y-58625295D01*
X129467142Y-58625295D02*
X129467142Y-58768152D01*
X129467142Y-58768152D02*
X129419523Y-58863390D01*
X129419523Y-58863390D02*
X129371904Y-58911009D01*
X129371904Y-58911009D02*
X129276666Y-58958628D01*
X129276666Y-58958628D02*
X128895714Y-58958628D01*
X130419523Y-59434819D02*
X129848095Y-59434819D01*
X130133809Y-59434819D02*
X130133809Y-58434819D01*
X130133809Y-58434819D02*
X130038571Y-58577676D01*
X130038571Y-58577676D02*
X129943333Y-58672914D01*
X129943333Y-58672914D02*
X129848095Y-58720533D01*
X130752857Y-58434819D02*
X131371904Y-58434819D01*
X131371904Y-58434819D02*
X131038571Y-58815771D01*
X131038571Y-58815771D02*
X131181428Y-58815771D01*
X131181428Y-58815771D02*
X131276666Y-58863390D01*
X131276666Y-58863390D02*
X131324285Y-58911009D01*
X131324285Y-58911009D02*
X131371904Y-59006247D01*
X131371904Y-59006247D02*
X131371904Y-59244342D01*
X131371904Y-59244342D02*
X131324285Y-59339580D01*
X131324285Y-59339580D02*
X131276666Y-59387200D01*
X131276666Y-59387200D02*
X131181428Y-59434819D01*
X131181428Y-59434819D02*
X130895714Y-59434819D01*
X130895714Y-59434819D02*
X130800476Y-59387200D01*
X130800476Y-59387200D02*
X130752857Y-59339580D01*
X113820950Y-101267082D02*
X113868569Y-101124225D01*
X113868569Y-101124225D02*
X113868569Y-100886130D01*
X113868569Y-100886130D02*
X113820950Y-100790892D01*
X113820950Y-100790892D02*
X113773330Y-100743273D01*
X113773330Y-100743273D02*
X113678092Y-100695654D01*
X113678092Y-100695654D02*
X113582854Y-100695654D01*
X113582854Y-100695654D02*
X113487616Y-100743273D01*
X113487616Y-100743273D02*
X113439997Y-100790892D01*
X113439997Y-100790892D02*
X113392378Y-100886130D01*
X113392378Y-100886130D02*
X113344759Y-101076606D01*
X113344759Y-101076606D02*
X113297140Y-101171844D01*
X113297140Y-101171844D02*
X113249521Y-101219463D01*
X113249521Y-101219463D02*
X113154283Y-101267082D01*
X113154283Y-101267082D02*
X113059045Y-101267082D01*
X113059045Y-101267082D02*
X112963807Y-101219463D01*
X112963807Y-101219463D02*
X112916188Y-101171844D01*
X112916188Y-101171844D02*
X112868569Y-101076606D01*
X112868569Y-101076606D02*
X112868569Y-100838511D01*
X112868569Y-100838511D02*
X112916188Y-100695654D01*
X112868569Y-100362320D02*
X113868569Y-100124225D01*
X113868569Y-100124225D02*
X113154283Y-99933749D01*
X113154283Y-99933749D02*
X113868569Y-99743273D01*
X113868569Y-99743273D02*
X112868569Y-99505178D01*
X112963807Y-99171844D02*
X112916188Y-99124225D01*
X112916188Y-99124225D02*
X112868569Y-99028987D01*
X112868569Y-99028987D02*
X112868569Y-98790892D01*
X112868569Y-98790892D02*
X112916188Y-98695654D01*
X112916188Y-98695654D02*
X112963807Y-98648035D01*
X112963807Y-98648035D02*
X113059045Y-98600416D01*
X113059045Y-98600416D02*
X113154283Y-98600416D01*
X113154283Y-98600416D02*
X113297140Y-98648035D01*
X113297140Y-98648035D02*
X113868569Y-99219463D01*
X113868569Y-99219463D02*
X113868569Y-98600416D01*
X112228569Y-103337083D02*
X112942854Y-103337083D01*
X112942854Y-103337083D02*
X113085711Y-103384702D01*
X113085711Y-103384702D02*
X113180950Y-103479940D01*
X113180950Y-103479940D02*
X113228569Y-103622797D01*
X113228569Y-103622797D02*
X113228569Y-103718035D01*
X112228569Y-102384702D02*
X112228569Y-102860892D01*
X112228569Y-102860892D02*
X112704759Y-102908511D01*
X112704759Y-102908511D02*
X112657140Y-102860892D01*
X112657140Y-102860892D02*
X112609521Y-102765654D01*
X112609521Y-102765654D02*
X112609521Y-102527559D01*
X112609521Y-102527559D02*
X112657140Y-102432321D01*
X112657140Y-102432321D02*
X112704759Y-102384702D01*
X112704759Y-102384702D02*
X112799997Y-102337083D01*
X112799997Y-102337083D02*
X113038092Y-102337083D01*
X113038092Y-102337083D02*
X113133330Y-102384702D01*
X113133330Y-102384702D02*
X113180950Y-102432321D01*
X113180950Y-102432321D02*
X113228569Y-102527559D01*
X113228569Y-102527559D02*
X113228569Y-102765654D01*
X113228569Y-102765654D02*
X113180950Y-102860892D01*
X113180950Y-102860892D02*
X113133330Y-102908511D01*
X153698095Y-80387319D02*
X153698095Y-81196842D01*
X153698095Y-81196842D02*
X153745714Y-81292080D01*
X153745714Y-81292080D02*
X153793333Y-81339700D01*
X153793333Y-81339700D02*
X153888571Y-81387319D01*
X153888571Y-81387319D02*
X154079047Y-81387319D01*
X154079047Y-81387319D02*
X154174285Y-81339700D01*
X154174285Y-81339700D02*
X154221904Y-81292080D01*
X154221904Y-81292080D02*
X154269523Y-81196842D01*
X154269523Y-81196842D02*
X154269523Y-80387319D01*
X154650476Y-80387319D02*
X155269523Y-80387319D01*
X155269523Y-80387319D02*
X154936190Y-80768271D01*
X154936190Y-80768271D02*
X155079047Y-80768271D01*
X155079047Y-80768271D02*
X155174285Y-80815890D01*
X155174285Y-80815890D02*
X155221904Y-80863509D01*
X155221904Y-80863509D02*
X155269523Y-80958747D01*
X155269523Y-80958747D02*
X155269523Y-81196842D01*
X155269523Y-81196842D02*
X155221904Y-81292080D01*
X155221904Y-81292080D02*
X155174285Y-81339700D01*
X155174285Y-81339700D02*
X155079047Y-81387319D01*
X155079047Y-81387319D02*
X154793333Y-81387319D01*
X154793333Y-81387319D02*
X154698095Y-81339700D01*
X154698095Y-81339700D02*
X154650476Y-81292080D01*
X128280950Y-101077082D02*
X128328569Y-100934225D01*
X128328569Y-100934225D02*
X128328569Y-100696130D01*
X128328569Y-100696130D02*
X128280950Y-100600892D01*
X128280950Y-100600892D02*
X128233330Y-100553273D01*
X128233330Y-100553273D02*
X128138092Y-100505654D01*
X128138092Y-100505654D02*
X128042854Y-100505654D01*
X128042854Y-100505654D02*
X127947616Y-100553273D01*
X127947616Y-100553273D02*
X127899997Y-100600892D01*
X127899997Y-100600892D02*
X127852378Y-100696130D01*
X127852378Y-100696130D02*
X127804759Y-100886606D01*
X127804759Y-100886606D02*
X127757140Y-100981844D01*
X127757140Y-100981844D02*
X127709521Y-101029463D01*
X127709521Y-101029463D02*
X127614283Y-101077082D01*
X127614283Y-101077082D02*
X127519045Y-101077082D01*
X127519045Y-101077082D02*
X127423807Y-101029463D01*
X127423807Y-101029463D02*
X127376188Y-100981844D01*
X127376188Y-100981844D02*
X127328569Y-100886606D01*
X127328569Y-100886606D02*
X127328569Y-100648511D01*
X127328569Y-100648511D02*
X127376188Y-100505654D01*
X127328569Y-100172320D02*
X128328569Y-99934225D01*
X128328569Y-99934225D02*
X127614283Y-99743749D01*
X127614283Y-99743749D02*
X128328569Y-99553273D01*
X128328569Y-99553273D02*
X127328569Y-99315178D01*
X128328569Y-98410416D02*
X128328569Y-98981844D01*
X128328569Y-98696130D02*
X127328569Y-98696130D01*
X127328569Y-98696130D02*
X127471426Y-98791368D01*
X127471426Y-98791368D02*
X127566664Y-98886606D01*
X127566664Y-98886606D02*
X127614283Y-98981844D01*
X155939345Y-104831069D02*
X155939345Y-105640592D01*
X155939345Y-105640592D02*
X155986964Y-105735830D01*
X155986964Y-105735830D02*
X156034583Y-105783450D01*
X156034583Y-105783450D02*
X156129821Y-105831069D01*
X156129821Y-105831069D02*
X156320297Y-105831069D01*
X156320297Y-105831069D02*
X156415535Y-105783450D01*
X156415535Y-105783450D02*
X156463154Y-105735830D01*
X156463154Y-105735830D02*
X156510773Y-105640592D01*
X156510773Y-105640592D02*
X156510773Y-104831069D01*
X156939345Y-104926307D02*
X156986964Y-104878688D01*
X156986964Y-104878688D02*
X157082202Y-104831069D01*
X157082202Y-104831069D02*
X157320297Y-104831069D01*
X157320297Y-104831069D02*
X157415535Y-104878688D01*
X157415535Y-104878688D02*
X157463154Y-104926307D01*
X157463154Y-104926307D02*
X157510773Y-105021545D01*
X157510773Y-105021545D02*
X157510773Y-105116783D01*
X157510773Y-105116783D02*
X157463154Y-105259640D01*
X157463154Y-105259640D02*
X156891726Y-105831069D01*
X156891726Y-105831069D02*
X157510773Y-105831069D01*
X168778333Y-102683450D02*
X168730714Y-102731070D01*
X168730714Y-102731070D02*
X168587857Y-102778689D01*
X168587857Y-102778689D02*
X168492619Y-102778689D01*
X168492619Y-102778689D02*
X168349762Y-102731070D01*
X168349762Y-102731070D02*
X168254524Y-102635831D01*
X168254524Y-102635831D02*
X168206905Y-102540593D01*
X168206905Y-102540593D02*
X168159286Y-102350117D01*
X168159286Y-102350117D02*
X168159286Y-102207260D01*
X168159286Y-102207260D02*
X168206905Y-102016784D01*
X168206905Y-102016784D02*
X168254524Y-101921546D01*
X168254524Y-101921546D02*
X168349762Y-101826308D01*
X168349762Y-101826308D02*
X168492619Y-101778689D01*
X168492619Y-101778689D02*
X168587857Y-101778689D01*
X168587857Y-101778689D02*
X168730714Y-101826308D01*
X168730714Y-101826308D02*
X168778333Y-101873927D01*
X169730714Y-102778689D02*
X169159286Y-102778689D01*
X169445000Y-102778689D02*
X169445000Y-101778689D01*
X169445000Y-101778689D02*
X169349762Y-101921546D01*
X169349762Y-101921546D02*
X169254524Y-102016784D01*
X169254524Y-102016784D02*
X169159286Y-102064403D01*
X87939583Y-89167080D02*
X87891964Y-89214700D01*
X87891964Y-89214700D02*
X87749107Y-89262319D01*
X87749107Y-89262319D02*
X87653869Y-89262319D01*
X87653869Y-89262319D02*
X87511012Y-89214700D01*
X87511012Y-89214700D02*
X87415774Y-89119461D01*
X87415774Y-89119461D02*
X87368155Y-89024223D01*
X87368155Y-89024223D02*
X87320536Y-88833747D01*
X87320536Y-88833747D02*
X87320536Y-88690890D01*
X87320536Y-88690890D02*
X87368155Y-88500414D01*
X87368155Y-88500414D02*
X87415774Y-88405176D01*
X87415774Y-88405176D02*
X87511012Y-88309938D01*
X87511012Y-88309938D02*
X87653869Y-88262319D01*
X87653869Y-88262319D02*
X87749107Y-88262319D01*
X87749107Y-88262319D02*
X87891964Y-88309938D01*
X87891964Y-88309938D02*
X87939583Y-88357557D01*
X88511012Y-88690890D02*
X88415774Y-88643271D01*
X88415774Y-88643271D02*
X88368155Y-88595652D01*
X88368155Y-88595652D02*
X88320536Y-88500414D01*
X88320536Y-88500414D02*
X88320536Y-88452795D01*
X88320536Y-88452795D02*
X88368155Y-88357557D01*
X88368155Y-88357557D02*
X88415774Y-88309938D01*
X88415774Y-88309938D02*
X88511012Y-88262319D01*
X88511012Y-88262319D02*
X88701488Y-88262319D01*
X88701488Y-88262319D02*
X88796726Y-88309938D01*
X88796726Y-88309938D02*
X88844345Y-88357557D01*
X88844345Y-88357557D02*
X88891964Y-88452795D01*
X88891964Y-88452795D02*
X88891964Y-88500414D01*
X88891964Y-88500414D02*
X88844345Y-88595652D01*
X88844345Y-88595652D02*
X88796726Y-88643271D01*
X88796726Y-88643271D02*
X88701488Y-88690890D01*
X88701488Y-88690890D02*
X88511012Y-88690890D01*
X88511012Y-88690890D02*
X88415774Y-88738509D01*
X88415774Y-88738509D02*
X88368155Y-88786128D01*
X88368155Y-88786128D02*
X88320536Y-88881366D01*
X88320536Y-88881366D02*
X88320536Y-89071842D01*
X88320536Y-89071842D02*
X88368155Y-89167080D01*
X88368155Y-89167080D02*
X88415774Y-89214700D01*
X88415774Y-89214700D02*
X88511012Y-89262319D01*
X88511012Y-89262319D02*
X88701488Y-89262319D01*
X88701488Y-89262319D02*
X88796726Y-89214700D01*
X88796726Y-89214700D02*
X88844345Y-89167080D01*
X88844345Y-89167080D02*
X88891964Y-89071842D01*
X88891964Y-89071842D02*
X88891964Y-88881366D01*
X88891964Y-88881366D02*
X88844345Y-88786128D01*
X88844345Y-88786128D02*
X88796726Y-88738509D01*
X88796726Y-88738509D02*
X88701488Y-88690890D01*
X104072319Y-59864583D02*
X104786604Y-59864583D01*
X104786604Y-59864583D02*
X104929461Y-59912202D01*
X104929461Y-59912202D02*
X105024700Y-60007440D01*
X105024700Y-60007440D02*
X105072319Y-60150297D01*
X105072319Y-60150297D02*
X105072319Y-60245535D01*
X104072319Y-58959821D02*
X104072319Y-59150297D01*
X104072319Y-59150297D02*
X104119938Y-59245535D01*
X104119938Y-59245535D02*
X104167557Y-59293154D01*
X104167557Y-59293154D02*
X104310414Y-59388392D01*
X104310414Y-59388392D02*
X104500890Y-59436011D01*
X104500890Y-59436011D02*
X104881842Y-59436011D01*
X104881842Y-59436011D02*
X104977080Y-59388392D01*
X104977080Y-59388392D02*
X105024700Y-59340773D01*
X105024700Y-59340773D02*
X105072319Y-59245535D01*
X105072319Y-59245535D02*
X105072319Y-59055059D01*
X105072319Y-59055059D02*
X105024700Y-58959821D01*
X105024700Y-58959821D02*
X104977080Y-58912202D01*
X104977080Y-58912202D02*
X104881842Y-58864583D01*
X104881842Y-58864583D02*
X104643747Y-58864583D01*
X104643747Y-58864583D02*
X104548509Y-58912202D01*
X104548509Y-58912202D02*
X104500890Y-58959821D01*
X104500890Y-58959821D02*
X104453271Y-59055059D01*
X104453271Y-59055059D02*
X104453271Y-59245535D01*
X104453271Y-59245535D02*
X104500890Y-59340773D01*
X104500890Y-59340773D02*
X104548509Y-59388392D01*
X104548509Y-59388392D02*
X104643747Y-59436011D01*
X135441905Y-58094819D02*
X135441905Y-57094819D01*
X135441905Y-57094819D02*
X135680000Y-57094819D01*
X135680000Y-57094819D02*
X135822857Y-57142438D01*
X135822857Y-57142438D02*
X135918095Y-57237676D01*
X135918095Y-57237676D02*
X135965714Y-57332914D01*
X135965714Y-57332914D02*
X136013333Y-57523390D01*
X136013333Y-57523390D02*
X136013333Y-57666247D01*
X136013333Y-57666247D02*
X135965714Y-57856723D01*
X135965714Y-57856723D02*
X135918095Y-57951961D01*
X135918095Y-57951961D02*
X135822857Y-58047200D01*
X135822857Y-58047200D02*
X135680000Y-58094819D01*
X135680000Y-58094819D02*
X135441905Y-58094819D01*
X136965714Y-58094819D02*
X136394286Y-58094819D01*
X136680000Y-58094819D02*
X136680000Y-57094819D01*
X136680000Y-57094819D02*
X136584762Y-57237676D01*
X136584762Y-57237676D02*
X136489524Y-57332914D01*
X136489524Y-57332914D02*
X136394286Y-57380533D01*
X139526666Y-111994819D02*
X139526666Y-112709104D01*
X139526666Y-112709104D02*
X139479047Y-112851961D01*
X139479047Y-112851961D02*
X139383809Y-112947200D01*
X139383809Y-112947200D02*
X139240952Y-112994819D01*
X139240952Y-112994819D02*
X139145714Y-112994819D01*
X140526666Y-112994819D02*
X139955238Y-112994819D01*
X140240952Y-112994819D02*
X140240952Y-111994819D01*
X140240952Y-111994819D02*
X140145714Y-112137676D01*
X140145714Y-112137676D02*
X140050476Y-112232914D01*
X140050476Y-112232914D02*
X139955238Y-112280533D01*
X150663333Y-96849580D02*
X150615714Y-96897200D01*
X150615714Y-96897200D02*
X150472857Y-96944819D01*
X150472857Y-96944819D02*
X150377619Y-96944819D01*
X150377619Y-96944819D02*
X150234762Y-96897200D01*
X150234762Y-96897200D02*
X150139524Y-96801961D01*
X150139524Y-96801961D02*
X150091905Y-96706723D01*
X150091905Y-96706723D02*
X150044286Y-96516247D01*
X150044286Y-96516247D02*
X150044286Y-96373390D01*
X150044286Y-96373390D02*
X150091905Y-96182914D01*
X150091905Y-96182914D02*
X150139524Y-96087676D01*
X150139524Y-96087676D02*
X150234762Y-95992438D01*
X150234762Y-95992438D02*
X150377619Y-95944819D01*
X150377619Y-95944819D02*
X150472857Y-95944819D01*
X150472857Y-95944819D02*
X150615714Y-95992438D01*
X150615714Y-95992438D02*
X150663333Y-96040057D01*
X151044286Y-96040057D02*
X151091905Y-95992438D01*
X151091905Y-95992438D02*
X151187143Y-95944819D01*
X151187143Y-95944819D02*
X151425238Y-95944819D01*
X151425238Y-95944819D02*
X151520476Y-95992438D01*
X151520476Y-95992438D02*
X151568095Y-96040057D01*
X151568095Y-96040057D02*
X151615714Y-96135295D01*
X151615714Y-96135295D02*
X151615714Y-96230533D01*
X151615714Y-96230533D02*
X151568095Y-96373390D01*
X151568095Y-96373390D02*
X150996667Y-96944819D01*
X150996667Y-96944819D02*
X151615714Y-96944819D01*
X91089819Y-64596666D02*
X90613628Y-64929999D01*
X91089819Y-65168094D02*
X90089819Y-65168094D01*
X90089819Y-65168094D02*
X90089819Y-64787142D01*
X90089819Y-64787142D02*
X90137438Y-64691904D01*
X90137438Y-64691904D02*
X90185057Y-64644285D01*
X90185057Y-64644285D02*
X90280295Y-64596666D01*
X90280295Y-64596666D02*
X90423152Y-64596666D01*
X90423152Y-64596666D02*
X90518390Y-64644285D01*
X90518390Y-64644285D02*
X90566009Y-64691904D01*
X90566009Y-64691904D02*
X90613628Y-64787142D01*
X90613628Y-64787142D02*
X90613628Y-65168094D01*
X90518390Y-64025237D02*
X90470771Y-64120475D01*
X90470771Y-64120475D02*
X90423152Y-64168094D01*
X90423152Y-64168094D02*
X90327914Y-64215713D01*
X90327914Y-64215713D02*
X90280295Y-64215713D01*
X90280295Y-64215713D02*
X90185057Y-64168094D01*
X90185057Y-64168094D02*
X90137438Y-64120475D01*
X90137438Y-64120475D02*
X90089819Y-64025237D01*
X90089819Y-64025237D02*
X90089819Y-63834761D01*
X90089819Y-63834761D02*
X90137438Y-63739523D01*
X90137438Y-63739523D02*
X90185057Y-63691904D01*
X90185057Y-63691904D02*
X90280295Y-63644285D01*
X90280295Y-63644285D02*
X90327914Y-63644285D01*
X90327914Y-63644285D02*
X90423152Y-63691904D01*
X90423152Y-63691904D02*
X90470771Y-63739523D01*
X90470771Y-63739523D02*
X90518390Y-63834761D01*
X90518390Y-63834761D02*
X90518390Y-64025237D01*
X90518390Y-64025237D02*
X90566009Y-64120475D01*
X90566009Y-64120475D02*
X90613628Y-64168094D01*
X90613628Y-64168094D02*
X90708866Y-64215713D01*
X90708866Y-64215713D02*
X90899342Y-64215713D01*
X90899342Y-64215713D02*
X90994580Y-64168094D01*
X90994580Y-64168094D02*
X91042200Y-64120475D01*
X91042200Y-64120475D02*
X91089819Y-64025237D01*
X91089819Y-64025237D02*
X91089819Y-63834761D01*
X91089819Y-63834761D02*
X91042200Y-63739523D01*
X91042200Y-63739523D02*
X90994580Y-63691904D01*
X90994580Y-63691904D02*
X90899342Y-63644285D01*
X90899342Y-63644285D02*
X90708866Y-63644285D01*
X90708866Y-63644285D02*
X90613628Y-63691904D01*
X90613628Y-63691904D02*
X90566009Y-63739523D01*
X90566009Y-63739523D02*
X90518390Y-63834761D01*
X167158569Y-98854166D02*
X166682378Y-99187499D01*
X167158569Y-99425594D02*
X166158569Y-99425594D01*
X166158569Y-99425594D02*
X166158569Y-99044642D01*
X166158569Y-99044642D02*
X166206188Y-98949404D01*
X166206188Y-98949404D02*
X166253807Y-98901785D01*
X166253807Y-98901785D02*
X166349045Y-98854166D01*
X166349045Y-98854166D02*
X166491902Y-98854166D01*
X166491902Y-98854166D02*
X166587140Y-98901785D01*
X166587140Y-98901785D02*
X166634759Y-98949404D01*
X166634759Y-98949404D02*
X166682378Y-99044642D01*
X166682378Y-99044642D02*
X166682378Y-99425594D01*
X166158569Y-98520832D02*
X166158569Y-97901785D01*
X166158569Y-97901785D02*
X166539521Y-98235118D01*
X166539521Y-98235118D02*
X166539521Y-98092261D01*
X166539521Y-98092261D02*
X166587140Y-97997023D01*
X166587140Y-97997023D02*
X166634759Y-97949404D01*
X166634759Y-97949404D02*
X166729997Y-97901785D01*
X166729997Y-97901785D02*
X166968092Y-97901785D01*
X166968092Y-97901785D02*
X167063330Y-97949404D01*
X167063330Y-97949404D02*
X167110950Y-97997023D01*
X167110950Y-97997023D02*
X167158569Y-98092261D01*
X167158569Y-98092261D02*
X167158569Y-98377975D01*
X167158569Y-98377975D02*
X167110950Y-98473213D01*
X167110950Y-98473213D02*
X167063330Y-98520832D01*
X167893333Y-70718330D02*
X167845714Y-70765950D01*
X167845714Y-70765950D02*
X167702857Y-70813569D01*
X167702857Y-70813569D02*
X167607619Y-70813569D01*
X167607619Y-70813569D02*
X167464762Y-70765950D01*
X167464762Y-70765950D02*
X167369524Y-70670711D01*
X167369524Y-70670711D02*
X167321905Y-70575473D01*
X167321905Y-70575473D02*
X167274286Y-70384997D01*
X167274286Y-70384997D02*
X167274286Y-70242140D01*
X167274286Y-70242140D02*
X167321905Y-70051664D01*
X167321905Y-70051664D02*
X167369524Y-69956426D01*
X167369524Y-69956426D02*
X167464762Y-69861188D01*
X167464762Y-69861188D02*
X167607619Y-69813569D01*
X167607619Y-69813569D02*
X167702857Y-69813569D01*
X167702857Y-69813569D02*
X167845714Y-69861188D01*
X167845714Y-69861188D02*
X167893333Y-69908807D01*
X168226667Y-69813569D02*
X168845714Y-69813569D01*
X168845714Y-69813569D02*
X168512381Y-70194521D01*
X168512381Y-70194521D02*
X168655238Y-70194521D01*
X168655238Y-70194521D02*
X168750476Y-70242140D01*
X168750476Y-70242140D02*
X168798095Y-70289759D01*
X168798095Y-70289759D02*
X168845714Y-70384997D01*
X168845714Y-70384997D02*
X168845714Y-70623092D01*
X168845714Y-70623092D02*
X168798095Y-70718330D01*
X168798095Y-70718330D02*
X168750476Y-70765950D01*
X168750476Y-70765950D02*
X168655238Y-70813569D01*
X168655238Y-70813569D02*
X168369524Y-70813569D01*
X168369524Y-70813569D02*
X168274286Y-70765950D01*
X168274286Y-70765950D02*
X168226667Y-70718330D01*
X87562319Y-59864583D02*
X88276604Y-59864583D01*
X88276604Y-59864583D02*
X88419461Y-59912202D01*
X88419461Y-59912202D02*
X88514700Y-60007440D01*
X88514700Y-60007440D02*
X88562319Y-60150297D01*
X88562319Y-60150297D02*
X88562319Y-60245535D01*
X87562319Y-59483630D02*
X87562319Y-58864583D01*
X87562319Y-58864583D02*
X87943271Y-59197916D01*
X87943271Y-59197916D02*
X87943271Y-59055059D01*
X87943271Y-59055059D02*
X87990890Y-58959821D01*
X87990890Y-58959821D02*
X88038509Y-58912202D01*
X88038509Y-58912202D02*
X88133747Y-58864583D01*
X88133747Y-58864583D02*
X88371842Y-58864583D01*
X88371842Y-58864583D02*
X88467080Y-58912202D01*
X88467080Y-58912202D02*
X88514700Y-58959821D01*
X88514700Y-58959821D02*
X88562319Y-59055059D01*
X88562319Y-59055059D02*
X88562319Y-59340773D01*
X88562319Y-59340773D02*
X88514700Y-59436011D01*
X88514700Y-59436011D02*
X88467080Y-59483630D01*
X186124819Y-74973333D02*
X186839104Y-74973333D01*
X186839104Y-74973333D02*
X186981961Y-75020952D01*
X186981961Y-75020952D02*
X187077200Y-75116190D01*
X187077200Y-75116190D02*
X187124819Y-75259047D01*
X187124819Y-75259047D02*
X187124819Y-75354285D01*
X186458152Y-74068571D02*
X187124819Y-74068571D01*
X186077200Y-74306666D02*
X186791485Y-74544761D01*
X186791485Y-74544761D02*
X186791485Y-73925714D01*
X118293333Y-92669580D02*
X118245714Y-92717200D01*
X118245714Y-92717200D02*
X118102857Y-92764819D01*
X118102857Y-92764819D02*
X118007619Y-92764819D01*
X118007619Y-92764819D02*
X117864762Y-92717200D01*
X117864762Y-92717200D02*
X117769524Y-92621961D01*
X117769524Y-92621961D02*
X117721905Y-92526723D01*
X117721905Y-92526723D02*
X117674286Y-92336247D01*
X117674286Y-92336247D02*
X117674286Y-92193390D01*
X117674286Y-92193390D02*
X117721905Y-92002914D01*
X117721905Y-92002914D02*
X117769524Y-91907676D01*
X117769524Y-91907676D02*
X117864762Y-91812438D01*
X117864762Y-91812438D02*
X118007619Y-91764819D01*
X118007619Y-91764819D02*
X118102857Y-91764819D01*
X118102857Y-91764819D02*
X118245714Y-91812438D01*
X118245714Y-91812438D02*
X118293333Y-91860057D01*
X118769524Y-92764819D02*
X118960000Y-92764819D01*
X118960000Y-92764819D02*
X119055238Y-92717200D01*
X119055238Y-92717200D02*
X119102857Y-92669580D01*
X119102857Y-92669580D02*
X119198095Y-92526723D01*
X119198095Y-92526723D02*
X119245714Y-92336247D01*
X119245714Y-92336247D02*
X119245714Y-91955295D01*
X119245714Y-91955295D02*
X119198095Y-91860057D01*
X119198095Y-91860057D02*
X119150476Y-91812438D01*
X119150476Y-91812438D02*
X119055238Y-91764819D01*
X119055238Y-91764819D02*
X118864762Y-91764819D01*
X118864762Y-91764819D02*
X118769524Y-91812438D01*
X118769524Y-91812438D02*
X118721905Y-91860057D01*
X118721905Y-91860057D02*
X118674286Y-91955295D01*
X118674286Y-91955295D02*
X118674286Y-92193390D01*
X118674286Y-92193390D02*
X118721905Y-92288628D01*
X118721905Y-92288628D02*
X118769524Y-92336247D01*
X118769524Y-92336247D02*
X118864762Y-92383866D01*
X118864762Y-92383866D02*
X119055238Y-92383866D01*
X119055238Y-92383866D02*
X119150476Y-92336247D01*
X119150476Y-92336247D02*
X119198095Y-92288628D01*
X119198095Y-92288628D02*
X119245714Y-92193390D01*
X164251355Y-103487589D02*
X163775164Y-103820922D01*
X164251355Y-104059017D02*
X163251355Y-104059017D01*
X163251355Y-104059017D02*
X163251355Y-103678065D01*
X163251355Y-103678065D02*
X163298974Y-103582827D01*
X163298974Y-103582827D02*
X163346593Y-103535208D01*
X163346593Y-103535208D02*
X163441831Y-103487589D01*
X163441831Y-103487589D02*
X163584688Y-103487589D01*
X163584688Y-103487589D02*
X163679926Y-103535208D01*
X163679926Y-103535208D02*
X163727545Y-103582827D01*
X163727545Y-103582827D02*
X163775164Y-103678065D01*
X163775164Y-103678065D02*
X163775164Y-104059017D01*
X163346593Y-103106636D02*
X163298974Y-103059017D01*
X163298974Y-103059017D02*
X163251355Y-102963779D01*
X163251355Y-102963779D02*
X163251355Y-102725684D01*
X163251355Y-102725684D02*
X163298974Y-102630446D01*
X163298974Y-102630446D02*
X163346593Y-102582827D01*
X163346593Y-102582827D02*
X163441831Y-102535208D01*
X163441831Y-102535208D02*
X163537069Y-102535208D01*
X163537069Y-102535208D02*
X163679926Y-102582827D01*
X163679926Y-102582827D02*
X164251355Y-103154255D01*
X164251355Y-103154255D02*
X164251355Y-102535208D01*
X99444819Y-91842857D02*
X98968628Y-92176190D01*
X99444819Y-92414285D02*
X98444819Y-92414285D01*
X98444819Y-92414285D02*
X98444819Y-92033333D01*
X98444819Y-92033333D02*
X98492438Y-91938095D01*
X98492438Y-91938095D02*
X98540057Y-91890476D01*
X98540057Y-91890476D02*
X98635295Y-91842857D01*
X98635295Y-91842857D02*
X98778152Y-91842857D01*
X98778152Y-91842857D02*
X98873390Y-91890476D01*
X98873390Y-91890476D02*
X98921009Y-91938095D01*
X98921009Y-91938095D02*
X98968628Y-92033333D01*
X98968628Y-92033333D02*
X98968628Y-92414285D01*
X99444819Y-90890476D02*
X99444819Y-91461904D01*
X99444819Y-91176190D02*
X98444819Y-91176190D01*
X98444819Y-91176190D02*
X98587676Y-91271428D01*
X98587676Y-91271428D02*
X98682914Y-91366666D01*
X98682914Y-91366666D02*
X98730533Y-91461904D01*
X98444819Y-90271428D02*
X98444819Y-90176190D01*
X98444819Y-90176190D02*
X98492438Y-90080952D01*
X98492438Y-90080952D02*
X98540057Y-90033333D01*
X98540057Y-90033333D02*
X98635295Y-89985714D01*
X98635295Y-89985714D02*
X98825771Y-89938095D01*
X98825771Y-89938095D02*
X99063866Y-89938095D01*
X99063866Y-89938095D02*
X99254342Y-89985714D01*
X99254342Y-89985714D02*
X99349580Y-90033333D01*
X99349580Y-90033333D02*
X99397200Y-90080952D01*
X99397200Y-90080952D02*
X99444819Y-90176190D01*
X99444819Y-90176190D02*
X99444819Y-90271428D01*
X99444819Y-90271428D02*
X99397200Y-90366666D01*
X99397200Y-90366666D02*
X99349580Y-90414285D01*
X99349580Y-90414285D02*
X99254342Y-90461904D01*
X99254342Y-90461904D02*
X99063866Y-90509523D01*
X99063866Y-90509523D02*
X98825771Y-90509523D01*
X98825771Y-90509523D02*
X98635295Y-90461904D01*
X98635295Y-90461904D02*
X98540057Y-90414285D01*
X98540057Y-90414285D02*
X98492438Y-90366666D01*
X98492438Y-90366666D02*
X98444819Y-90271428D01*
X168613333Y-97234819D02*
X168280000Y-96758628D01*
X168041905Y-97234819D02*
X168041905Y-96234819D01*
X168041905Y-96234819D02*
X168422857Y-96234819D01*
X168422857Y-96234819D02*
X168518095Y-96282438D01*
X168518095Y-96282438D02*
X168565714Y-96330057D01*
X168565714Y-96330057D02*
X168613333Y-96425295D01*
X168613333Y-96425295D02*
X168613333Y-96568152D01*
X168613333Y-96568152D02*
X168565714Y-96663390D01*
X168565714Y-96663390D02*
X168518095Y-96711009D01*
X168518095Y-96711009D02*
X168422857Y-96758628D01*
X168422857Y-96758628D02*
X168041905Y-96758628D01*
X169565714Y-97234819D02*
X168994286Y-97234819D01*
X169280000Y-97234819D02*
X169280000Y-96234819D01*
X169280000Y-96234819D02*
X169184762Y-96377676D01*
X169184762Y-96377676D02*
X169089524Y-96472914D01*
X169089524Y-96472914D02*
X168994286Y-96520533D01*
X147323333Y-102074819D02*
X146990000Y-101598628D01*
X146751905Y-102074819D02*
X146751905Y-101074819D01*
X146751905Y-101074819D02*
X147132857Y-101074819D01*
X147132857Y-101074819D02*
X147228095Y-101122438D01*
X147228095Y-101122438D02*
X147275714Y-101170057D01*
X147275714Y-101170057D02*
X147323333Y-101265295D01*
X147323333Y-101265295D02*
X147323333Y-101408152D01*
X147323333Y-101408152D02*
X147275714Y-101503390D01*
X147275714Y-101503390D02*
X147228095Y-101551009D01*
X147228095Y-101551009D02*
X147132857Y-101598628D01*
X147132857Y-101598628D02*
X146751905Y-101598628D01*
X148180476Y-101074819D02*
X147990000Y-101074819D01*
X147990000Y-101074819D02*
X147894762Y-101122438D01*
X147894762Y-101122438D02*
X147847143Y-101170057D01*
X147847143Y-101170057D02*
X147751905Y-101312914D01*
X147751905Y-101312914D02*
X147704286Y-101503390D01*
X147704286Y-101503390D02*
X147704286Y-101884342D01*
X147704286Y-101884342D02*
X147751905Y-101979580D01*
X147751905Y-101979580D02*
X147799524Y-102027200D01*
X147799524Y-102027200D02*
X147894762Y-102074819D01*
X147894762Y-102074819D02*
X148085238Y-102074819D01*
X148085238Y-102074819D02*
X148180476Y-102027200D01*
X148180476Y-102027200D02*
X148228095Y-101979580D01*
X148228095Y-101979580D02*
X148275714Y-101884342D01*
X148275714Y-101884342D02*
X148275714Y-101646247D01*
X148275714Y-101646247D02*
X148228095Y-101551009D01*
X148228095Y-101551009D02*
X148180476Y-101503390D01*
X148180476Y-101503390D02*
X148085238Y-101455771D01*
X148085238Y-101455771D02*
X147894762Y-101455771D01*
X147894762Y-101455771D02*
X147799524Y-101503390D01*
X147799524Y-101503390D02*
X147751905Y-101551009D01*
X147751905Y-101551009D02*
X147704286Y-101646247D01*
X96123333Y-63484819D02*
X95790000Y-63008628D01*
X95551905Y-63484819D02*
X95551905Y-62484819D01*
X95551905Y-62484819D02*
X95932857Y-62484819D01*
X95932857Y-62484819D02*
X96028095Y-62532438D01*
X96028095Y-62532438D02*
X96075714Y-62580057D01*
X96075714Y-62580057D02*
X96123333Y-62675295D01*
X96123333Y-62675295D02*
X96123333Y-62818152D01*
X96123333Y-62818152D02*
X96075714Y-62913390D01*
X96075714Y-62913390D02*
X96028095Y-62961009D01*
X96028095Y-62961009D02*
X95932857Y-63008628D01*
X95932857Y-63008628D02*
X95551905Y-63008628D01*
X96599524Y-63484819D02*
X96790000Y-63484819D01*
X96790000Y-63484819D02*
X96885238Y-63437200D01*
X96885238Y-63437200D02*
X96932857Y-63389580D01*
X96932857Y-63389580D02*
X97028095Y-63246723D01*
X97028095Y-63246723D02*
X97075714Y-63056247D01*
X97075714Y-63056247D02*
X97075714Y-62675295D01*
X97075714Y-62675295D02*
X97028095Y-62580057D01*
X97028095Y-62580057D02*
X96980476Y-62532438D01*
X96980476Y-62532438D02*
X96885238Y-62484819D01*
X96885238Y-62484819D02*
X96694762Y-62484819D01*
X96694762Y-62484819D02*
X96599524Y-62532438D01*
X96599524Y-62532438D02*
X96551905Y-62580057D01*
X96551905Y-62580057D02*
X96504286Y-62675295D01*
X96504286Y-62675295D02*
X96504286Y-62913390D01*
X96504286Y-62913390D02*
X96551905Y-63008628D01*
X96551905Y-63008628D02*
X96599524Y-63056247D01*
X96599524Y-63056247D02*
X96694762Y-63103866D01*
X96694762Y-63103866D02*
X96885238Y-63103866D01*
X96885238Y-63103866D02*
X96980476Y-63056247D01*
X96980476Y-63056247D02*
X97028095Y-63008628D01*
X97028095Y-63008628D02*
X97075714Y-62913390D01*
X155658095Y-67356819D02*
X156229523Y-67356819D01*
X155943809Y-68356819D02*
X155943809Y-67356819D01*
X156562857Y-68356819D02*
X156562857Y-67356819D01*
X156562857Y-67356819D02*
X156943809Y-67356819D01*
X156943809Y-67356819D02*
X157039047Y-67404438D01*
X157039047Y-67404438D02*
X157086666Y-67452057D01*
X157086666Y-67452057D02*
X157134285Y-67547295D01*
X157134285Y-67547295D02*
X157134285Y-67690152D01*
X157134285Y-67690152D02*
X157086666Y-67785390D01*
X157086666Y-67785390D02*
X157039047Y-67833009D01*
X157039047Y-67833009D02*
X156943809Y-67880628D01*
X156943809Y-67880628D02*
X156562857Y-67880628D01*
X158086666Y-68356819D02*
X157515238Y-68356819D01*
X157800952Y-68356819D02*
X157800952Y-67356819D01*
X157800952Y-67356819D02*
X157705714Y-67499676D01*
X157705714Y-67499676D02*
X157610476Y-67594914D01*
X157610476Y-67594914D02*
X157515238Y-67642533D01*
X176376666Y-111434819D02*
X176376666Y-112149104D01*
X176376666Y-112149104D02*
X176329047Y-112291961D01*
X176329047Y-112291961D02*
X176233809Y-112387200D01*
X176233809Y-112387200D02*
X176090952Y-112434819D01*
X176090952Y-112434819D02*
X175995714Y-112434819D01*
X176805238Y-111530057D02*
X176852857Y-111482438D01*
X176852857Y-111482438D02*
X176948095Y-111434819D01*
X176948095Y-111434819D02*
X177186190Y-111434819D01*
X177186190Y-111434819D02*
X177281428Y-111482438D01*
X177281428Y-111482438D02*
X177329047Y-111530057D01*
X177329047Y-111530057D02*
X177376666Y-111625295D01*
X177376666Y-111625295D02*
X177376666Y-111720533D01*
X177376666Y-111720533D02*
X177329047Y-111863390D01*
X177329047Y-111863390D02*
X176757619Y-112434819D01*
X176757619Y-112434819D02*
X177376666Y-112434819D01*
X144768333Y-73782080D02*
X144720714Y-73829700D01*
X144720714Y-73829700D02*
X144577857Y-73877319D01*
X144577857Y-73877319D02*
X144482619Y-73877319D01*
X144482619Y-73877319D02*
X144339762Y-73829700D01*
X144339762Y-73829700D02*
X144244524Y-73734461D01*
X144244524Y-73734461D02*
X144196905Y-73639223D01*
X144196905Y-73639223D02*
X144149286Y-73448747D01*
X144149286Y-73448747D02*
X144149286Y-73305890D01*
X144149286Y-73305890D02*
X144196905Y-73115414D01*
X144196905Y-73115414D02*
X144244524Y-73020176D01*
X144244524Y-73020176D02*
X144339762Y-72924938D01*
X144339762Y-72924938D02*
X144482619Y-72877319D01*
X144482619Y-72877319D02*
X144577857Y-72877319D01*
X144577857Y-72877319D02*
X144720714Y-72924938D01*
X144720714Y-72924938D02*
X144768333Y-72972557D01*
X145625476Y-72877319D02*
X145435000Y-72877319D01*
X145435000Y-72877319D02*
X145339762Y-72924938D01*
X145339762Y-72924938D02*
X145292143Y-72972557D01*
X145292143Y-72972557D02*
X145196905Y-73115414D01*
X145196905Y-73115414D02*
X145149286Y-73305890D01*
X145149286Y-73305890D02*
X145149286Y-73686842D01*
X145149286Y-73686842D02*
X145196905Y-73782080D01*
X145196905Y-73782080D02*
X145244524Y-73829700D01*
X145244524Y-73829700D02*
X145339762Y-73877319D01*
X145339762Y-73877319D02*
X145530238Y-73877319D01*
X145530238Y-73877319D02*
X145625476Y-73829700D01*
X145625476Y-73829700D02*
X145673095Y-73782080D01*
X145673095Y-73782080D02*
X145720714Y-73686842D01*
X145720714Y-73686842D02*
X145720714Y-73448747D01*
X145720714Y-73448747D02*
X145673095Y-73353509D01*
X145673095Y-73353509D02*
X145625476Y-73305890D01*
X145625476Y-73305890D02*
X145530238Y-73258271D01*
X145530238Y-73258271D02*
X145339762Y-73258271D01*
X145339762Y-73258271D02*
X145244524Y-73305890D01*
X145244524Y-73305890D02*
X145196905Y-73353509D01*
X145196905Y-73353509D02*
X145149286Y-73448747D01*
X139230833Y-75362080D02*
X139183214Y-75409700D01*
X139183214Y-75409700D02*
X139040357Y-75457319D01*
X139040357Y-75457319D02*
X138945119Y-75457319D01*
X138945119Y-75457319D02*
X138802262Y-75409700D01*
X138802262Y-75409700D02*
X138707024Y-75314461D01*
X138707024Y-75314461D02*
X138659405Y-75219223D01*
X138659405Y-75219223D02*
X138611786Y-75028747D01*
X138611786Y-75028747D02*
X138611786Y-74885890D01*
X138611786Y-74885890D02*
X138659405Y-74695414D01*
X138659405Y-74695414D02*
X138707024Y-74600176D01*
X138707024Y-74600176D02*
X138802262Y-74504938D01*
X138802262Y-74504938D02*
X138945119Y-74457319D01*
X138945119Y-74457319D02*
X139040357Y-74457319D01*
X139040357Y-74457319D02*
X139183214Y-74504938D01*
X139183214Y-74504938D02*
X139230833Y-74552557D01*
X140087976Y-74790652D02*
X140087976Y-75457319D01*
X139849881Y-74409700D02*
X139611786Y-75123985D01*
X139611786Y-75123985D02*
X140230833Y-75123985D01*
X174874819Y-74817857D02*
X174398628Y-75151190D01*
X174874819Y-75389285D02*
X173874819Y-75389285D01*
X173874819Y-75389285D02*
X173874819Y-75008333D01*
X173874819Y-75008333D02*
X173922438Y-74913095D01*
X173922438Y-74913095D02*
X173970057Y-74865476D01*
X173970057Y-74865476D02*
X174065295Y-74817857D01*
X174065295Y-74817857D02*
X174208152Y-74817857D01*
X174208152Y-74817857D02*
X174303390Y-74865476D01*
X174303390Y-74865476D02*
X174351009Y-74913095D01*
X174351009Y-74913095D02*
X174398628Y-75008333D01*
X174398628Y-75008333D02*
X174398628Y-75389285D01*
X174874819Y-73865476D02*
X174874819Y-74436904D01*
X174874819Y-74151190D02*
X173874819Y-74151190D01*
X173874819Y-74151190D02*
X174017676Y-74246428D01*
X174017676Y-74246428D02*
X174112914Y-74341666D01*
X174112914Y-74341666D02*
X174160533Y-74436904D01*
X173970057Y-73484523D02*
X173922438Y-73436904D01*
X173922438Y-73436904D02*
X173874819Y-73341666D01*
X173874819Y-73341666D02*
X173874819Y-73103571D01*
X173874819Y-73103571D02*
X173922438Y-73008333D01*
X173922438Y-73008333D02*
X173970057Y-72960714D01*
X173970057Y-72960714D02*
X174065295Y-72913095D01*
X174065295Y-72913095D02*
X174160533Y-72913095D01*
X174160533Y-72913095D02*
X174303390Y-72960714D01*
X174303390Y-72960714D02*
X174874819Y-73532142D01*
X174874819Y-73532142D02*
X174874819Y-72913095D01*
X124291905Y-58004819D02*
X124291905Y-57004819D01*
X124291905Y-57004819D02*
X124530000Y-57004819D01*
X124530000Y-57004819D02*
X124672857Y-57052438D01*
X124672857Y-57052438D02*
X124768095Y-57147676D01*
X124768095Y-57147676D02*
X124815714Y-57242914D01*
X124815714Y-57242914D02*
X124863333Y-57433390D01*
X124863333Y-57433390D02*
X124863333Y-57576247D01*
X124863333Y-57576247D02*
X124815714Y-57766723D01*
X124815714Y-57766723D02*
X124768095Y-57861961D01*
X124768095Y-57861961D02*
X124672857Y-57957200D01*
X124672857Y-57957200D02*
X124530000Y-58004819D01*
X124530000Y-58004819D02*
X124291905Y-58004819D01*
X125244286Y-57100057D02*
X125291905Y-57052438D01*
X125291905Y-57052438D02*
X125387143Y-57004819D01*
X125387143Y-57004819D02*
X125625238Y-57004819D01*
X125625238Y-57004819D02*
X125720476Y-57052438D01*
X125720476Y-57052438D02*
X125768095Y-57100057D01*
X125768095Y-57100057D02*
X125815714Y-57195295D01*
X125815714Y-57195295D02*
X125815714Y-57290533D01*
X125815714Y-57290533D02*
X125768095Y-57433390D01*
X125768095Y-57433390D02*
X125196667Y-58004819D01*
X125196667Y-58004819D02*
X125815714Y-58004819D01*
X183168095Y-103576819D02*
X183739523Y-103576819D01*
X183453809Y-104576819D02*
X183453809Y-103576819D01*
X184072857Y-104576819D02*
X184072857Y-103576819D01*
X184072857Y-103576819D02*
X184453809Y-103576819D01*
X184453809Y-103576819D02*
X184549047Y-103624438D01*
X184549047Y-103624438D02*
X184596666Y-103672057D01*
X184596666Y-103672057D02*
X184644285Y-103767295D01*
X184644285Y-103767295D02*
X184644285Y-103910152D01*
X184644285Y-103910152D02*
X184596666Y-104005390D01*
X184596666Y-104005390D02*
X184549047Y-104053009D01*
X184549047Y-104053009D02*
X184453809Y-104100628D01*
X184453809Y-104100628D02*
X184072857Y-104100628D01*
X184977619Y-103576819D02*
X185596666Y-103576819D01*
X185596666Y-103576819D02*
X185263333Y-103957771D01*
X185263333Y-103957771D02*
X185406190Y-103957771D01*
X185406190Y-103957771D02*
X185501428Y-104005390D01*
X185501428Y-104005390D02*
X185549047Y-104053009D01*
X185549047Y-104053009D02*
X185596666Y-104148247D01*
X185596666Y-104148247D02*
X185596666Y-104386342D01*
X185596666Y-104386342D02*
X185549047Y-104481580D01*
X185549047Y-104481580D02*
X185501428Y-104529200D01*
X185501428Y-104529200D02*
X185406190Y-104576819D01*
X185406190Y-104576819D02*
X185120476Y-104576819D01*
X185120476Y-104576819D02*
X185025238Y-104529200D01*
X185025238Y-104529200D02*
X184977619Y-104481580D01*
X169833333Y-74808330D02*
X169785714Y-74855950D01*
X169785714Y-74855950D02*
X169642857Y-74903569D01*
X169642857Y-74903569D02*
X169547619Y-74903569D01*
X169547619Y-74903569D02*
X169404762Y-74855950D01*
X169404762Y-74855950D02*
X169309524Y-74760711D01*
X169309524Y-74760711D02*
X169261905Y-74665473D01*
X169261905Y-74665473D02*
X169214286Y-74474997D01*
X169214286Y-74474997D02*
X169214286Y-74332140D01*
X169214286Y-74332140D02*
X169261905Y-74141664D01*
X169261905Y-74141664D02*
X169309524Y-74046426D01*
X169309524Y-74046426D02*
X169404762Y-73951188D01*
X169404762Y-73951188D02*
X169547619Y-73903569D01*
X169547619Y-73903569D02*
X169642857Y-73903569D01*
X169642857Y-73903569D02*
X169785714Y-73951188D01*
X169785714Y-73951188D02*
X169833333Y-73998807D01*
X170738095Y-73903569D02*
X170261905Y-73903569D01*
X170261905Y-73903569D02*
X170214286Y-74379759D01*
X170214286Y-74379759D02*
X170261905Y-74332140D01*
X170261905Y-74332140D02*
X170357143Y-74284521D01*
X170357143Y-74284521D02*
X170595238Y-74284521D01*
X170595238Y-74284521D02*
X170690476Y-74332140D01*
X170690476Y-74332140D02*
X170738095Y-74379759D01*
X170738095Y-74379759D02*
X170785714Y-74474997D01*
X170785714Y-74474997D02*
X170785714Y-74713092D01*
X170785714Y-74713092D02*
X170738095Y-74808330D01*
X170738095Y-74808330D02*
X170690476Y-74855950D01*
X170690476Y-74855950D02*
X170595238Y-74903569D01*
X170595238Y-74903569D02*
X170357143Y-74903569D01*
X170357143Y-74903569D02*
X170261905Y-74855950D01*
X170261905Y-74855950D02*
X170214286Y-74808330D01*
X118482142Y-59624819D02*
X118148809Y-59148628D01*
X117910714Y-59624819D02*
X117910714Y-58624819D01*
X117910714Y-58624819D02*
X118291666Y-58624819D01*
X118291666Y-58624819D02*
X118386904Y-58672438D01*
X118386904Y-58672438D02*
X118434523Y-58720057D01*
X118434523Y-58720057D02*
X118482142Y-58815295D01*
X118482142Y-58815295D02*
X118482142Y-58958152D01*
X118482142Y-58958152D02*
X118434523Y-59053390D01*
X118434523Y-59053390D02*
X118386904Y-59101009D01*
X118386904Y-59101009D02*
X118291666Y-59148628D01*
X118291666Y-59148628D02*
X117910714Y-59148628D01*
X119434523Y-59624819D02*
X118863095Y-59624819D01*
X119148809Y-59624819D02*
X119148809Y-58624819D01*
X119148809Y-58624819D02*
X119053571Y-58767676D01*
X119053571Y-58767676D02*
X118958333Y-58862914D01*
X118958333Y-58862914D02*
X118863095Y-58910533D01*
X120291666Y-58958152D02*
X120291666Y-59624819D01*
X120053571Y-58577200D02*
X119815476Y-59291485D01*
X119815476Y-59291485D02*
X120434523Y-59291485D01*
X124511845Y-106640569D02*
X125083273Y-106640569D01*
X124797559Y-107640569D02*
X124797559Y-106640569D01*
X125416607Y-107640569D02*
X125416607Y-106640569D01*
X125416607Y-106640569D02*
X125797559Y-106640569D01*
X125797559Y-106640569D02*
X125892797Y-106688188D01*
X125892797Y-106688188D02*
X125940416Y-106735807D01*
X125940416Y-106735807D02*
X125988035Y-106831045D01*
X125988035Y-106831045D02*
X125988035Y-106973902D01*
X125988035Y-106973902D02*
X125940416Y-107069140D01*
X125940416Y-107069140D02*
X125892797Y-107116759D01*
X125892797Y-107116759D02*
X125797559Y-107164378D01*
X125797559Y-107164378D02*
X125416607Y-107164378D01*
X126845178Y-106973902D02*
X126845178Y-107640569D01*
X126607083Y-106592950D02*
X126368988Y-107307235D01*
X126368988Y-107307235D02*
X126988035Y-107307235D01*
X146414819Y-98346666D02*
X145938628Y-98679999D01*
X146414819Y-98918094D02*
X145414819Y-98918094D01*
X145414819Y-98918094D02*
X145414819Y-98537142D01*
X145414819Y-98537142D02*
X145462438Y-98441904D01*
X145462438Y-98441904D02*
X145510057Y-98394285D01*
X145510057Y-98394285D02*
X145605295Y-98346666D01*
X145605295Y-98346666D02*
X145748152Y-98346666D01*
X145748152Y-98346666D02*
X145843390Y-98394285D01*
X145843390Y-98394285D02*
X145891009Y-98441904D01*
X145891009Y-98441904D02*
X145938628Y-98537142D01*
X145938628Y-98537142D02*
X145938628Y-98918094D01*
X145748152Y-97489523D02*
X146414819Y-97489523D01*
X145367200Y-97727618D02*
X146081485Y-97965713D01*
X146081485Y-97965713D02*
X146081485Y-97346666D01*
X177754819Y-78187857D02*
X177278628Y-78521190D01*
X177754819Y-78759285D02*
X176754819Y-78759285D01*
X176754819Y-78759285D02*
X176754819Y-78378333D01*
X176754819Y-78378333D02*
X176802438Y-78283095D01*
X176802438Y-78283095D02*
X176850057Y-78235476D01*
X176850057Y-78235476D02*
X176945295Y-78187857D01*
X176945295Y-78187857D02*
X177088152Y-78187857D01*
X177088152Y-78187857D02*
X177183390Y-78235476D01*
X177183390Y-78235476D02*
X177231009Y-78283095D01*
X177231009Y-78283095D02*
X177278628Y-78378333D01*
X177278628Y-78378333D02*
X177278628Y-78759285D01*
X177754819Y-77235476D02*
X177754819Y-77806904D01*
X177754819Y-77521190D02*
X176754819Y-77521190D01*
X176754819Y-77521190D02*
X176897676Y-77616428D01*
X176897676Y-77616428D02*
X176992914Y-77711666D01*
X176992914Y-77711666D02*
X177040533Y-77806904D01*
X177754819Y-76283095D02*
X177754819Y-76854523D01*
X177754819Y-76568809D02*
X176754819Y-76568809D01*
X176754819Y-76568809D02*
X176897676Y-76664047D01*
X176897676Y-76664047D02*
X176992914Y-76759285D01*
X176992914Y-76759285D02*
X177040533Y-76854523D01*
X109761845Y-112390569D02*
X110333273Y-112390569D01*
X110047559Y-113390569D02*
X110047559Y-112390569D01*
X110666607Y-113390569D02*
X110666607Y-112390569D01*
X110666607Y-112390569D02*
X111047559Y-112390569D01*
X111047559Y-112390569D02*
X111142797Y-112438188D01*
X111142797Y-112438188D02*
X111190416Y-112485807D01*
X111190416Y-112485807D02*
X111238035Y-112581045D01*
X111238035Y-112581045D02*
X111238035Y-112723902D01*
X111238035Y-112723902D02*
X111190416Y-112819140D01*
X111190416Y-112819140D02*
X111142797Y-112866759D01*
X111142797Y-112866759D02*
X111047559Y-112914378D01*
X111047559Y-112914378D02*
X110666607Y-112914378D01*
X112142797Y-112390569D02*
X111666607Y-112390569D01*
X111666607Y-112390569D02*
X111618988Y-112866759D01*
X111618988Y-112866759D02*
X111666607Y-112819140D01*
X111666607Y-112819140D02*
X111761845Y-112771521D01*
X111761845Y-112771521D02*
X111999940Y-112771521D01*
X111999940Y-112771521D02*
X112095178Y-112819140D01*
X112095178Y-112819140D02*
X112142797Y-112866759D01*
X112142797Y-112866759D02*
X112190416Y-112961997D01*
X112190416Y-112961997D02*
X112190416Y-113200092D01*
X112190416Y-113200092D02*
X112142797Y-113295330D01*
X112142797Y-113295330D02*
X112095178Y-113342950D01*
X112095178Y-113342950D02*
X111999940Y-113390569D01*
X111999940Y-113390569D02*
X111761845Y-113390569D01*
X111761845Y-113390569D02*
X111666607Y-113342950D01*
X111666607Y-113342950D02*
X111618988Y-113295330D01*
X87939583Y-90847080D02*
X87891964Y-90894700D01*
X87891964Y-90894700D02*
X87749107Y-90942319D01*
X87749107Y-90942319D02*
X87653869Y-90942319D01*
X87653869Y-90942319D02*
X87511012Y-90894700D01*
X87511012Y-90894700D02*
X87415774Y-90799461D01*
X87415774Y-90799461D02*
X87368155Y-90704223D01*
X87368155Y-90704223D02*
X87320536Y-90513747D01*
X87320536Y-90513747D02*
X87320536Y-90370890D01*
X87320536Y-90370890D02*
X87368155Y-90180414D01*
X87368155Y-90180414D02*
X87415774Y-90085176D01*
X87415774Y-90085176D02*
X87511012Y-89989938D01*
X87511012Y-89989938D02*
X87653869Y-89942319D01*
X87653869Y-89942319D02*
X87749107Y-89942319D01*
X87749107Y-89942319D02*
X87891964Y-89989938D01*
X87891964Y-89989938D02*
X87939583Y-90037557D01*
X88272917Y-89942319D02*
X88939583Y-89942319D01*
X88939583Y-89942319D02*
X88511012Y-90942319D01*
X153198095Y-107596819D02*
X153769523Y-107596819D01*
X153483809Y-108596819D02*
X153483809Y-107596819D01*
X154102857Y-108596819D02*
X154102857Y-107596819D01*
X154102857Y-107596819D02*
X154483809Y-107596819D01*
X154483809Y-107596819D02*
X154579047Y-107644438D01*
X154579047Y-107644438D02*
X154626666Y-107692057D01*
X154626666Y-107692057D02*
X154674285Y-107787295D01*
X154674285Y-107787295D02*
X154674285Y-107930152D01*
X154674285Y-107930152D02*
X154626666Y-108025390D01*
X154626666Y-108025390D02*
X154579047Y-108073009D01*
X154579047Y-108073009D02*
X154483809Y-108120628D01*
X154483809Y-108120628D02*
X154102857Y-108120628D01*
X155055238Y-107692057D02*
X155102857Y-107644438D01*
X155102857Y-107644438D02*
X155198095Y-107596819D01*
X155198095Y-107596819D02*
X155436190Y-107596819D01*
X155436190Y-107596819D02*
X155531428Y-107644438D01*
X155531428Y-107644438D02*
X155579047Y-107692057D01*
X155579047Y-107692057D02*
X155626666Y-107787295D01*
X155626666Y-107787295D02*
X155626666Y-107882533D01*
X155626666Y-107882533D02*
X155579047Y-108025390D01*
X155579047Y-108025390D02*
X155007619Y-108596819D01*
X155007619Y-108596819D02*
X155626666Y-108596819D01*
D11*
%TO.C,U1*%
X79443750Y-70236250D02*
X85858750Y-70236250D01*
X79443750Y-88476250D02*
X79443750Y-70236250D01*
X79443750Y-88476250D02*
X85603750Y-88476250D01*
X104403750Y-70236250D02*
X105183750Y-70236250D01*
X104403750Y-88476250D02*
X105183750Y-88476250D01*
X105183750Y-70236250D02*
X105183750Y-71236250D01*
X105183750Y-88476250D02*
X105183750Y-87476250D01*
X86328750Y-88981250D02*
X85828750Y-88481250D01*
X86328750Y-88481250D01*
X86328750Y-88981250D01*
G36*
X86328750Y-88981250D02*
G01*
X85828750Y-88481250D01*
X86328750Y-88481250D01*
X86328750Y-88981250D01*
G37*
%TO.C,R7*%
X92527500Y-91052742D02*
X92527500Y-91527258D01*
X93572500Y-91052742D02*
X93572500Y-91527258D01*
%TO.C,R5*%
X151037500Y-104147258D02*
X151037500Y-103672742D01*
X152082500Y-104147258D02*
X152082500Y-103672742D01*
%TO.C,R13*%
X129872742Y-59887500D02*
X130347258Y-59887500D01*
X129872742Y-60932500D02*
X130347258Y-60932500D01*
%TO.C,SW2*%
X105913750Y-97683750D02*
X105913750Y-102183750D01*
X108413750Y-103433750D02*
X109913750Y-103433750D01*
X109913750Y-96433750D02*
X108413750Y-96433750D01*
X112413750Y-102183750D02*
X112413750Y-97683750D01*
%TO.C,J5*%
X97053750Y-110983750D02*
X97053750Y-109603750D01*
X98433750Y-110983750D02*
X97053750Y-110983750D01*
X99703750Y-108223750D02*
X112513750Y-108223750D01*
X99703750Y-110983750D02*
X99703750Y-108223750D01*
X99703750Y-110983750D02*
X112513750Y-110983750D01*
X112513750Y-110983750D02*
X112513750Y-108223750D01*
%TO.C,U3*%
X152550000Y-73022500D02*
X152550000Y-74282500D01*
X152550000Y-79842500D02*
X152550000Y-78582500D01*
X156310000Y-73022500D02*
X152550000Y-73022500D01*
X156310000Y-79842500D02*
X152550000Y-79842500D01*
X157830000Y-80072500D02*
X157350000Y-80072500D01*
X157590000Y-79742500D01*
X157830000Y-80072500D01*
G36*
X157830000Y-80072500D02*
G01*
X157350000Y-80072500D01*
X157590000Y-79742500D01*
X157830000Y-80072500D01*
G37*
%TO.C,SW1*%
X120373750Y-97493750D02*
X120373750Y-101993750D01*
X122873750Y-103243750D02*
X124373750Y-103243750D01*
X124373750Y-96243750D02*
X122873750Y-96243750D01*
X126873750Y-101993750D02*
X126873750Y-97493750D01*
%TO.C,U2*%
X155475000Y-96910000D02*
X155475000Y-107190000D01*
X155475000Y-107190000D02*
X157125000Y-107190000D01*
X159125000Y-107190000D02*
X160775000Y-107190000D01*
X160775000Y-96910000D02*
X155475000Y-96910000D01*
X160775000Y-107190000D02*
X160775000Y-96910000D01*
X157125000Y-107190000D02*
G75*
G02*
X159125000Y-107190000I1000000J0D01*
G01*
%TO.C,C1*%
X168683748Y-103268870D02*
X169206252Y-103268870D01*
X168683748Y-104738870D02*
X169206252Y-104738870D01*
%TO.C,C8*%
X87844998Y-89752500D02*
X88367502Y-89752500D01*
X87844998Y-91222500D02*
X88367502Y-91222500D01*
%TO.C,J6*%
X105617500Y-60911250D02*
X105617500Y-59531250D01*
X106997500Y-60911250D02*
X105617500Y-60911250D01*
X108267500Y-58151250D02*
X113457500Y-58151250D01*
X108267500Y-60911250D02*
X108267500Y-58151250D01*
X108267500Y-60911250D02*
X113457500Y-60911250D01*
X113457500Y-60911250D02*
X113457500Y-58151250D01*
%TO.C,D1*%
X134620000Y-59364000D02*
X134620000Y-59520000D01*
X134620000Y-61680000D02*
X134620000Y-61836000D01*
X134620000Y-59364484D02*
G75*
G02*
X137851437Y-59520000I1560000J-1235516D01*
G01*
X135139039Y-59520000D02*
G75*
G02*
X137220961Y-59520000I1040961J-1080000D01*
G01*
X137220961Y-61680000D02*
G75*
G02*
X135139039Y-61680000I-1040961J1080000D01*
G01*
X137851437Y-61680000D02*
G75*
G02*
X134620000Y-61835516I-1671437J1080000D01*
G01*
%TO.C,J1*%
X136760000Y-94040000D02*
X142960000Y-94040000D01*
X136760000Y-102940000D02*
X136760000Y-94040000D01*
X136760000Y-108740000D02*
X136760000Y-105540000D01*
X137260000Y-108740000D02*
X136760000Y-108740000D01*
X137260000Y-111240000D02*
X137260000Y-108740000D01*
X142460000Y-108740000D02*
X142460000Y-111240000D01*
X142460000Y-111240000D02*
X137260000Y-111240000D01*
X142960000Y-94040000D02*
X142960000Y-95240000D01*
X142960000Y-98440000D02*
X142960000Y-104940000D01*
X142960000Y-104940000D02*
X144960000Y-104940000D01*
X142960000Y-107540000D02*
X142960000Y-108740000D01*
X142960000Y-107540000D02*
X144960000Y-107540000D01*
X142960000Y-108740000D02*
X142460000Y-108740000D01*
%TO.C,C2*%
X150568748Y-97435000D02*
X151091252Y-97435000D01*
X150568748Y-98905000D02*
X151091252Y-98905000D01*
%TO.C,R8*%
X90397742Y-63907500D02*
X90872258Y-63907500D01*
X90397742Y-64952500D02*
X90872258Y-64952500D01*
%TO.C,R3*%
X164751250Y-98450242D02*
X164751250Y-98924758D01*
X165796250Y-98450242D02*
X165796250Y-98924758D01*
%TO.C,C3*%
X166848748Y-72005000D02*
X167371252Y-72005000D01*
X166848748Y-73475000D02*
X167371252Y-73475000D01*
%TO.C,J3*%
X89107500Y-60911250D02*
X89107500Y-59531250D01*
X90487500Y-60911250D02*
X89107500Y-60911250D01*
X91757500Y-58151250D02*
X99487500Y-58151250D01*
X91757500Y-60911250D02*
X91757500Y-58151250D01*
X91757500Y-60911250D02*
X99487500Y-60911250D01*
X99487500Y-60911250D02*
X99487500Y-58151250D01*
%TO.C,J4*%
X182045000Y-79095000D02*
X182045000Y-70145000D01*
X185125000Y-70025000D02*
X186025000Y-70025000D01*
X185125000Y-79215000D02*
X186025000Y-79215000D01*
X188725000Y-70025000D02*
X191455000Y-70025000D01*
X188725000Y-79215000D02*
X191455000Y-79215000D01*
X191455000Y-79215000D02*
X191455000Y-70025000D01*
%TO.C,C9*%
X123959330Y-91823750D02*
X123678170Y-91823750D01*
X123959330Y-92843750D02*
X123678170Y-92843750D01*
%TO.C,R2*%
X164779933Y-103687258D02*
X164779933Y-103212742D01*
X165824933Y-103687258D02*
X165824933Y-103212742D01*
%TO.C,R10*%
X94847500Y-91062742D02*
X94847500Y-91537258D01*
X95892500Y-91062742D02*
X95892500Y-91537258D01*
%TO.C,R1*%
X168542742Y-97687500D02*
X169017258Y-97687500D01*
X168542742Y-98732500D02*
X169017258Y-98732500D01*
%TO.C,R6*%
X147252742Y-102527500D02*
X147727258Y-102527500D01*
X147252742Y-103572500D02*
X147727258Y-103572500D01*
%TO.C,R9*%
X96052742Y-63937500D02*
X96527258Y-63937500D01*
X96052742Y-64982500D02*
X96527258Y-64982500D01*
%TO.C,TP1*%
X157870000Y-69550000D02*
G75*
G02*
X155970000Y-69550000I-950000J0D01*
G01*
X155970000Y-69550000D02*
G75*
G02*
X157870000Y-69550000I950000J0D01*
G01*
%TO.C,J2*%
X173610000Y-93480000D02*
X179810000Y-93480000D01*
X173610000Y-102380000D02*
X173610000Y-93480000D01*
X173610000Y-108180000D02*
X173610000Y-104980000D01*
X174110000Y-108180000D02*
X173610000Y-108180000D01*
X174110000Y-110680000D02*
X174110000Y-108180000D01*
X179310000Y-108180000D02*
X179310000Y-110680000D01*
X179310000Y-110680000D02*
X174110000Y-110680000D01*
X179810000Y-93480000D02*
X179810000Y-94680000D01*
X179810000Y-97880000D02*
X179810000Y-104380000D01*
X179810000Y-104380000D02*
X181810000Y-104380000D01*
X179810000Y-106980000D02*
X179810000Y-108180000D01*
X179810000Y-106980000D02*
X181810000Y-106980000D01*
X179810000Y-108180000D02*
X179310000Y-108180000D01*
%TO.C,C6*%
X144673748Y-75697500D02*
X145196252Y-75697500D01*
X144673748Y-77167500D02*
X145196252Y-77167500D01*
%TO.C,C4*%
X139256920Y-75922500D02*
X139538080Y-75922500D01*
X139256920Y-76942500D02*
X139538080Y-76942500D01*
%TO.C,R12*%
X175327500Y-74412258D02*
X175327500Y-73937742D01*
X176372500Y-74412258D02*
X176372500Y-73937742D01*
%TO.C,D2*%
X123470000Y-59274000D02*
X123470000Y-59430000D01*
X123470000Y-61590000D02*
X123470000Y-61746000D01*
X123470000Y-59274484D02*
G75*
G02*
X126701437Y-59430000I1560000J-1235516D01*
G01*
X123989039Y-59430000D02*
G75*
G02*
X126070961Y-59430000I1040961J-1080000D01*
G01*
X126070961Y-61590000D02*
G75*
G02*
X123989039Y-61590000I-1040961J1080000D01*
G01*
X126701437Y-61590000D02*
G75*
G02*
X123470000Y-61745516I-1671437J1080000D01*
G01*
%TO.C,TP3*%
X185380000Y-105770000D02*
G75*
G02*
X183480000Y-105770000I-950000J0D01*
G01*
X183480000Y-105770000D02*
G75*
G02*
X185380000Y-105770000I950000J0D01*
G01*
%TO.C,C5*%
X169859420Y-76320000D02*
X170140580Y-76320000D01*
X169859420Y-77340000D02*
X170140580Y-77340000D01*
%TO.C,R14*%
X118887742Y-60077500D02*
X119362258Y-60077500D01*
X118887742Y-61122500D02*
X119362258Y-61122500D01*
%TO.C,TP4*%
X126723750Y-108833750D02*
G75*
G02*
X124823750Y-108833750I-950000J0D01*
G01*
X124823750Y-108833750D02*
G75*
G02*
X126723750Y-108833750I950000J0D01*
G01*
%TO.C,R4*%
X146867500Y-98417258D02*
X146867500Y-97942742D01*
X147912500Y-98417258D02*
X147912500Y-97942742D01*
%TO.C,R11*%
X175347500Y-77307742D02*
X175347500Y-77782258D01*
X176392500Y-77307742D02*
X176392500Y-77782258D01*
%TO.C,TP5*%
X111973750Y-114583750D02*
G75*
G02*
X110073750Y-114583750I-950000J0D01*
G01*
X110073750Y-114583750D02*
G75*
G02*
X111973750Y-114583750I950000J0D01*
G01*
%TO.C,C7*%
X87965670Y-92358750D02*
X88246830Y-92358750D01*
X87965670Y-93378750D02*
X88246830Y-93378750D01*
%TO.C,TP2*%
X155410000Y-109790000D02*
G75*
G02*
X153510000Y-109790000I-950000J0D01*
G01*
X153510000Y-109790000D02*
G75*
G02*
X155410000Y-109790000I950000J0D01*
G01*
%TD*%
M02*
