%TF.GenerationSoftware,KiCad,Pcbnew,9.0.4*%
%TF.CreationDate,2026-06-14T22:04:49-05:00*%
%TF.ProjectId,Microgrid-Home-Energy-Monitor,4d696372-6f67-4726-9964-2d486f6d652d,rev?*%
%TF.SameCoordinates,Original*%
%TF.FileFunction,Soldermask,Top*%
%TF.FilePolarity,Negative*%
%FSLAX46Y46*%
G04 Gerber Fmt 4.6, Leading zero omitted, Abs format (unit mm)*
G04 Created by KiCad (PCBNEW 9.0.4) date 2026-06-14 22:04:49*
%MOMM*%
%LPD*%
G01*
G04 APERTURE LIST*
G04 Aperture macros list*
%AMRoundRect*
0 Rectangle with rounded corners*
0 $1 Rounding radius*
0 $2 $3 $4 $5 $6 $7 $8 $9 X,Y pos of 4 corners*
0 Add a 4 corners polygon primitive as box body*
4,1,4,$2,$3,$4,$5,$6,$7,$8,$9,$2,$3,0*
0 Add four circle primitives for the rounded corners*
1,1,$1+$1,$2,$3*
1,1,$1+$1,$4,$5*
1,1,$1+$1,$6,$7*
1,1,$1+$1,$8,$9*
0 Add four rect primitives between the rounded corners*
20,1,$1+$1,$2,$3,$4,$5,0*
20,1,$1+$1,$4,$5,$6,$7,0*
20,1,$1+$1,$6,$7,$8,$9,0*
20,1,$1+$1,$8,$9,$2,$3,0*%
G04 Aperture macros list end*
%ADD10RoundRect,0.200000X-0.275000X0.200000X-0.275000X-0.200000X0.275000X-0.200000X0.275000X0.200000X0*%
%ADD11RoundRect,0.200000X0.275000X-0.200000X0.275000X0.200000X-0.275000X0.200000X-0.275000X-0.200000X0*%
%ADD12RoundRect,0.200000X-0.200000X-0.275000X0.200000X-0.275000X0.200000X0.275000X-0.200000X0.275000X0*%
%ADD13C,2.000000*%
%ADD14R,1.700000X1.700000*%
%ADD15C,1.700000*%
%ADD16RoundRect,0.375000X0.625000X0.375000X-0.625000X0.375000X-0.625000X-0.375000X0.625000X-0.375000X0*%
%ADD17RoundRect,0.500000X0.500000X1.400000X-0.500000X1.400000X-0.500000X-1.400000X0.500000X-1.400000X0*%
%ADD18RoundRect,0.250000X0.550000X0.550000X-0.550000X0.550000X-0.550000X-0.550000X0.550000X-0.550000X0*%
%ADD19C,1.600000*%
%ADD20RoundRect,0.250000X-0.250000X-0.475000X0.250000X-0.475000X0.250000X0.475000X-0.250000X0.475000X0*%
%ADD21R,1.800000X1.800000*%
%ADD22C,1.800000*%
%ADD23R,2.800000X2.200000*%
%ADD24R,2.800000X2.800000*%
%ADD25C,0.700000*%
%ADD26O,2.400000X0.900000*%
%ADD27O,1.700000X0.900000*%
%ADD28RoundRect,0.225000X0.225000X0.250000X-0.225000X0.250000X-0.225000X-0.250000X0.225000X-0.250000X0*%
%ADD29C,1.500000*%
%ADD30RoundRect,0.225000X-0.225000X-0.250000X0.225000X-0.250000X0.225000X0.250000X-0.225000X0.250000X0*%
%ADD31R,0.900000X1.500000*%
%ADD32R,1.500000X0.900000*%
%ADD33C,0.600000*%
%ADD34R,4.200000X4.200000*%
G04 APERTURE END LIST*
D10*
%TO.C,R7*%
X93050000Y-90465000D03*
X93050000Y-92115000D03*
%TD*%
D11*
%TO.C,R5*%
X151560000Y-104735000D03*
X151560000Y-103085000D03*
%TD*%
D12*
%TO.C,R13*%
X129285000Y-60410000D03*
X130935000Y-60410000D03*
%TD*%
D13*
%TO.C,SW2*%
X111413750Y-96683750D03*
X111413750Y-103183750D03*
X106913750Y-96683750D03*
X106913750Y-103183750D03*
%TD*%
D14*
%TO.C,J5*%
X98433750Y-109603750D03*
D15*
X100973750Y-109603750D03*
X103513750Y-109603750D03*
X106053750Y-109603750D03*
X108593750Y-109603750D03*
X111133750Y-109603750D03*
%TD*%
D16*
%TO.C,U3*%
X157610000Y-78732500D03*
X157610000Y-76432500D03*
D17*
X151310000Y-76432500D03*
D16*
X157610000Y-74132500D03*
%TD*%
D13*
%TO.C,SW1*%
X125873750Y-96493750D03*
X125873750Y-102993750D03*
X121373750Y-96493750D03*
X121373750Y-102993750D03*
%TD*%
D18*
%TO.C,U2*%
X161935000Y-105860000D03*
D19*
X161935000Y-103320000D03*
X161935000Y-100780000D03*
X161935000Y-98240000D03*
X154315000Y-98240000D03*
X154315000Y-100780000D03*
X154315000Y-103320000D03*
X154315000Y-105860000D03*
%TD*%
D20*
%TO.C,C1*%
X167995000Y-104003870D03*
X169895000Y-104003870D03*
%TD*%
%TO.C,C8*%
X87156250Y-90487500D03*
X89056250Y-90487500D03*
%TD*%
D14*
%TO.C,J6*%
X106997500Y-59531250D03*
D15*
X109537500Y-59531250D03*
X112077500Y-59531250D03*
%TD*%
D21*
%TO.C,D1*%
X134910000Y-60600000D03*
D22*
X137450000Y-60600000D03*
%TD*%
D15*
%TO.C,J1*%
X139860000Y-105140000D03*
X139860000Y-98140000D03*
D23*
X136160000Y-104240000D03*
X143560000Y-106240000D03*
D24*
X143560000Y-96840000D03*
%TD*%
D20*
%TO.C,C2*%
X149880000Y-98170000D03*
X151780000Y-98170000D03*
%TD*%
D12*
%TO.C,R8*%
X89810000Y-64430000D03*
X91460000Y-64430000D03*
%TD*%
D10*
%TO.C,R3*%
X165273750Y-97862500D03*
X165273750Y-99512500D03*
%TD*%
D20*
%TO.C,C3*%
X166160000Y-72740000D03*
X168060000Y-72740000D03*
%TD*%
D14*
%TO.C,J3*%
X90487500Y-59531250D03*
D15*
X93027500Y-59531250D03*
X95567500Y-59531250D03*
X98107500Y-59531250D03*
%TD*%
D25*
%TO.C,J4*%
X182725000Y-77595000D03*
X182725000Y-76745000D03*
X182725000Y-75895000D03*
X182725000Y-75045000D03*
X182725000Y-74195000D03*
X182725000Y-73345000D03*
X182725000Y-72495000D03*
X182725000Y-71645000D03*
X184075000Y-71645000D03*
X184075000Y-72495000D03*
X184075000Y-73345000D03*
X184075000Y-74195000D03*
X184075000Y-75045000D03*
X184075000Y-75895000D03*
X184075000Y-76745000D03*
X184075000Y-77595000D03*
D26*
X183705000Y-78945000D03*
D27*
X187085000Y-78945000D03*
D26*
X183705000Y-70295000D03*
D27*
X187085000Y-70295000D03*
%TD*%
D28*
%TO.C,C9*%
X124593750Y-92333750D03*
X123043750Y-92333750D03*
%TD*%
D11*
%TO.C,R2*%
X165302433Y-104275000D03*
X165302433Y-102625000D03*
%TD*%
D10*
%TO.C,R10*%
X95370000Y-90475000D03*
X95370000Y-92125000D03*
%TD*%
D12*
%TO.C,R1*%
X167955000Y-98210000D03*
X169605000Y-98210000D03*
%TD*%
%TO.C,R6*%
X146665000Y-103050000D03*
X148315000Y-103050000D03*
%TD*%
%TO.C,R9*%
X95465000Y-64460000D03*
X97115000Y-64460000D03*
%TD*%
D29*
%TO.C,TP1*%
X156920000Y-69550000D03*
%TD*%
D15*
%TO.C,J2*%
X176710000Y-104580000D03*
X176710000Y-97580000D03*
D23*
X173010000Y-103680000D03*
X180410000Y-105680000D03*
D24*
X180410000Y-96280000D03*
%TD*%
D20*
%TO.C,C6*%
X143985000Y-76432500D03*
X145885000Y-76432500D03*
%TD*%
D30*
%TO.C,C4*%
X138622500Y-76432500D03*
X140172500Y-76432500D03*
%TD*%
D11*
%TO.C,R12*%
X175850000Y-75000000D03*
X175850000Y-73350000D03*
%TD*%
D21*
%TO.C,D2*%
X123760000Y-60510000D03*
D22*
X126300000Y-60510000D03*
%TD*%
D31*
%TO.C,U1*%
X87053750Y-88106250D03*
X88323750Y-88106250D03*
X89593750Y-88106250D03*
X90863750Y-88106250D03*
X92133750Y-88106250D03*
X93403750Y-88106250D03*
X94673750Y-88106250D03*
X95943750Y-88106250D03*
X97213750Y-88106250D03*
X98483750Y-88106250D03*
X99753750Y-88106250D03*
X101023750Y-88106250D03*
X102293750Y-88106250D03*
X103563750Y-88106250D03*
D32*
X104813750Y-85066250D03*
X104813750Y-83796250D03*
X104813750Y-82526250D03*
X104813750Y-81256250D03*
X104813750Y-79986250D03*
X104813750Y-78716250D03*
X104813750Y-77446250D03*
X104813750Y-76176250D03*
X104813750Y-74906250D03*
X104813750Y-73636250D03*
D31*
X103563750Y-70606250D03*
X102293750Y-70606250D03*
X101023750Y-70606250D03*
X99753750Y-70606250D03*
X98483750Y-70606250D03*
X97213750Y-70606250D03*
X95943750Y-70606250D03*
X94673750Y-70606250D03*
X93403750Y-70606250D03*
X92133750Y-70606250D03*
X90863750Y-70606250D03*
X89593750Y-70606250D03*
X88323750Y-70606250D03*
X87053750Y-70606250D03*
D33*
X93631250Y-81561250D03*
X95156250Y-81561250D03*
X92868750Y-80798750D03*
X94393750Y-80798750D03*
X95918750Y-80798750D03*
X93631250Y-80036250D03*
D34*
X94393750Y-80036250D03*
D33*
X95156250Y-80036250D03*
X92868750Y-79273750D03*
X94393750Y-79273750D03*
X95918750Y-79273750D03*
X93631250Y-78511250D03*
X95156250Y-78511250D03*
%TD*%
D29*
%TO.C,TP3*%
X184430000Y-105770000D03*
%TD*%
D30*
%TO.C,C5*%
X169225000Y-76830000D03*
X170775000Y-76830000D03*
%TD*%
D12*
%TO.C,R14*%
X118300000Y-60600000D03*
X119950000Y-60600000D03*
%TD*%
D29*
%TO.C,TP4*%
X125773750Y-108833750D03*
%TD*%
D11*
%TO.C,R4*%
X147390000Y-99005000D03*
X147390000Y-97355000D03*
%TD*%
D10*
%TO.C,R11*%
X175870000Y-76720000D03*
X175870000Y-78370000D03*
%TD*%
D29*
%TO.C,TP5*%
X111023750Y-114583750D03*
%TD*%
D30*
%TO.C,C7*%
X87331250Y-92868750D03*
X88881250Y-92868750D03*
%TD*%
D29*
%TO.C,TP2*%
X154460000Y-109790000D03*
%TD*%
M02*
