%TF.GenerationSoftware,KiCad,Pcbnew,9.0.4*%
%TF.CreationDate,2026-07-03T00:41:29-05:00*%
%TF.ProjectId,Microgrid-Home-Energy-Monitor,4d696372-6f67-4726-9964-2d486f6d652d,rev?*%
%TF.SameCoordinates,Original*%
%TF.FileFunction,Copper,L2,Bot*%
%TF.FilePolarity,Positive*%
%FSLAX46Y46*%
G04 Gerber Fmt 4.6, Leading zero omitted, Abs format (unit mm)*
G04 Created by KiCad (PCBNEW 9.0.4) date 2026-07-03 00:41:29*
%MOMM*%
%LPD*%
G01*
G04 APERTURE LIST*
G04 Aperture macros list*
%AMRoundRect*
0 Rectangle with rounded corners*
0 $1 Rounding radius*
0 $2 $3 $4 $5 $6 $7 $8 $9 X,Y pos of 4 corners*
0 Add a 4 corners polygon primitive as box body*
4,1,4,$2,$3,$4,$5,$6,$7,$8,$9,$2,$3,0*
0 Add four circle primitives for the rounded corners*
1,1,$1+$1,$2,$3*
1,1,$1+$1,$4,$5*
1,1,$1+$1,$6,$7*
1,1,$1+$1,$8,$9*
0 Add four rect primitives between the rounded corners*
20,1,$1+$1,$2,$3,$4,$5,0*
20,1,$1+$1,$4,$5,$6,$7,0*
20,1,$1+$1,$6,$7,$8,$9,0*
20,1,$1+$1,$8,$9,$2,$3,0*%
G04 Aperture macros list end*
%TA.AperFunction,HeatsinkPad*%
%ADD10C,0.600000*%
%TD*%
%TA.AperFunction,ComponentPad*%
%ADD11C,2.000000*%
%TD*%
%TA.AperFunction,ComponentPad*%
%ADD12R,1.700000X1.700000*%
%TD*%
%TA.AperFunction,ComponentPad*%
%ADD13C,1.700000*%
%TD*%
%TA.AperFunction,ComponentPad*%
%ADD14RoundRect,0.250000X0.550000X0.550000X-0.550000X0.550000X-0.550000X-0.550000X0.550000X-0.550000X0*%
%TD*%
%TA.AperFunction,ComponentPad*%
%ADD15C,1.600000*%
%TD*%
%TA.AperFunction,ComponentPad*%
%ADD16R,1.800000X1.800000*%
%TD*%
%TA.AperFunction,ComponentPad*%
%ADD17C,1.800000*%
%TD*%
%TA.AperFunction,ComponentPad*%
%ADD18C,0.700000*%
%TD*%
%TA.AperFunction,ComponentPad*%
%ADD19O,2.400000X0.900000*%
%TD*%
%TA.AperFunction,ComponentPad*%
%ADD20O,1.700000X0.900000*%
%TD*%
%TA.AperFunction,ViaPad*%
%ADD21C,0.600000*%
%TD*%
%TA.AperFunction,Conductor*%
%ADD22C,0.200000*%
%TD*%
%TA.AperFunction,Conductor*%
%ADD23C,0.400000*%
%TD*%
G04 APERTURE END LIST*
D10*
%TO.P,U1,39,GND*%
%TO.N,GND*%
X93631250Y-81561250D03*
X95156250Y-81561250D03*
X92868750Y-80798750D03*
X94393750Y-80798750D03*
X95918750Y-80798750D03*
X93631250Y-80036250D03*
X95156250Y-80036250D03*
X92868750Y-79273750D03*
X94393750Y-79273750D03*
X95918750Y-79273750D03*
X93631250Y-78511250D03*
X95156250Y-78511250D03*
%TD*%
D11*
%TO.P,SW2,1,1*%
%TO.N,/IO0*%
X111413750Y-96683750D03*
X111413750Y-103183750D03*
%TO.P,SW2,2,2*%
%TO.N,GND*%
X106913750Y-96683750D03*
X106913750Y-103183750D03*
%TD*%
D12*
%TO.P,J5,1,Pin_1*%
%TO.N,GND*%
X98433750Y-109603750D03*
D13*
%TO.P,J5,2,Pin_2*%
%TO.N,+3.3V*%
X100973750Y-109603750D03*
%TO.P,J5,3,Pin_3*%
%TO.N,/TX0*%
X103513750Y-109603750D03*
%TO.P,J5,4,Pin_4*%
%TO.N,/RX0*%
X106053750Y-109603750D03*
%TO.P,J5,5,Pin_5*%
%TO.N,/EN*%
X108593750Y-109603750D03*
%TO.P,J5,6,Pin_6*%
%TO.N,/IO0*%
X111133750Y-109603750D03*
%TD*%
D11*
%TO.P,SW1,1,1*%
%TO.N,/EN*%
X125873750Y-96493750D03*
X125873750Y-102993750D03*
%TO.P,SW1,2,2*%
%TO.N,GND*%
X121373750Y-96493750D03*
X121373750Y-102993750D03*
%TD*%
D14*
%TO.P,U2,1*%
%TO.N,/ADC_CH1*%
X161935000Y-105860000D03*
D15*
%TO.P,U2,2,-*%
X161935000Y-103320000D03*
%TO.P,U2,3,+*%
%TO.N,Net-(U2A-+)*%
X161935000Y-100780000D03*
%TO.P,U2,4,V-*%
%TO.N,GND*%
X161935000Y-98240000D03*
%TO.P,U2,5,+*%
%TO.N,Net-(U2B-+)*%
X154315000Y-98240000D03*
%TO.P,U2,6,-*%
%TO.N,/ADC_CH2*%
X154315000Y-100780000D03*
%TO.P,U2,7*%
X154315000Y-103320000D03*
%TO.P,U2,8,V+*%
%TO.N,+3.3V*%
X154315000Y-105860000D03*
%TD*%
D12*
%TO.P,J6,1,Pin_1*%
%TO.N,+3.3V*%
X106997500Y-59531250D03*
D13*
%TO.P,J6,2,Pin_2*%
%TO.N,GND*%
X109537500Y-59531250D03*
%TO.P,J6,3,Pin_3*%
%TO.N,/VOLT_ADC*%
X112077500Y-59531250D03*
%TD*%
D16*
%TO.P,D1,1,K*%
%TO.N,GND*%
X134910000Y-60600000D03*
D17*
%TO.P,D1,2,A*%
%TO.N,Net-(D1-A)*%
X137450000Y-60600000D03*
%TD*%
D12*
%TO.P,J3,1,Pin_1*%
%TO.N,+3.3V*%
X90487500Y-59531250D03*
D13*
%TO.P,J3,2,Pin_2*%
%TO.N,GND*%
X93027500Y-59531250D03*
%TO.P,J3,3,Pin_3*%
%TO.N,/SCL*%
X95567500Y-59531250D03*
%TO.P,J3,4,Pin_4*%
%TO.N,/SDA*%
X98107500Y-59531250D03*
%TD*%
D18*
%TO.P,J4,A1,GND*%
%TO.N,GND*%
X182725000Y-77595000D03*
%TO.P,J4,A4,VBUS*%
%TO.N,VBUS*%
X182725000Y-76745000D03*
%TO.P,J4,A5,CC1*%
%TO.N,Net-(J4-CC1)*%
X182725000Y-75895000D03*
%TO.P,J4,A6,D+*%
%TO.N,unconnected-(J4-D+-PadA6)*%
X182725000Y-75045000D03*
%TO.P,J4,A7,D-*%
%TO.N,unconnected-(J4-D--PadA7)*%
X182725000Y-74195000D03*
%TO.P,J4,A8,SBU1*%
%TO.N,unconnected-(J4-SBU1-PadA8)*%
X182725000Y-73345000D03*
%TO.P,J4,A9,VBUS*%
%TO.N,VBUS*%
X182725000Y-72495000D03*
%TO.P,J4,A12,GND*%
%TO.N,GND*%
X182725000Y-71645000D03*
%TO.P,J4,B1,GND*%
X184075000Y-71645000D03*
%TO.P,J4,B4,VBUS*%
%TO.N,VBUS*%
X184075000Y-72495000D03*
%TO.P,J4,B5,CC2*%
%TO.N,Net-(J4-CC2)*%
X184075000Y-73345000D03*
%TO.P,J4,B6,D+*%
%TO.N,unconnected-(J4-D+-PadB6)*%
X184075000Y-74195000D03*
%TO.P,J4,B7,D-*%
%TO.N,unconnected-(J4-D--PadB7)*%
X184075000Y-75045000D03*
%TO.P,J4,B8,SBU2*%
%TO.N,unconnected-(J4-SBU2-PadB8)*%
X184075000Y-75895000D03*
%TO.P,J4,B9,VBUS*%
%TO.N,VBUS*%
X184075000Y-76745000D03*
%TO.P,J4,B12,GND*%
%TO.N,GND*%
X184075000Y-77595000D03*
D19*
%TO.P,J4,S1,SHIELD*%
%TO.N,unconnected-(J4-SHIELD-PadS1)*%
X183705000Y-78945000D03*
D20*
%TO.N,unconnected-(J4-SHIELD-PadS1)_3*%
X187085000Y-78945000D03*
D19*
%TO.N,unconnected-(J4-SHIELD-PadS1)_2*%
X183705000Y-70295000D03*
D20*
%TO.N,unconnected-(J4-SHIELD-PadS1)_1*%
X187085000Y-70295000D03*
%TD*%
D16*
%TO.P,D2,1,K*%
%TO.N,GND*%
X123760000Y-60510000D03*
D17*
%TO.P,D2,2,A*%
%TO.N,Net-(D2-A)*%
X126300000Y-60510000D03*
%TD*%
D21*
%TO.N,/EN*%
X101450000Y-104520000D03*
%TO.N,/ADC_CH2*%
X99450000Y-97630000D03*
X107250000Y-113580000D03*
%TO.N,+3.3V*%
X111160000Y-66000000D03*
X108400000Y-66450000D03*
%TO.N,GND*%
X86010000Y-92200000D03*
X87156250Y-90487500D03*
%TO.N,Net-(U2B-+)*%
X151560000Y-101550000D03*
X151560000Y-99920000D03*
%TO.N,GND*%
X98270000Y-105370000D03*
X105900000Y-105570000D03*
%TO.N,/EN*%
X101450000Y-90440000D03*
X102840000Y-106150000D03*
X115610000Y-90400000D03*
%TO.N,/SCL*%
X90760000Y-62500000D03*
%TO.N,Net-(J4-CC2)*%
X181290000Y-73320000D03*
%TO.N,/RX0*%
X104008978Y-96970455D03*
X106952152Y-92889148D03*
X97470000Y-68750000D03*
X92150000Y-70570000D03*
%TO.N,/TX0*%
X103210000Y-96930000D03*
X92803750Y-69356248D03*
X95970000Y-69356248D03*
X106380000Y-92330000D03*
%TO.N,/IO0*%
X111075025Y-93315025D03*
%TO.N,/VOLT_ADC*%
X90860000Y-88120000D03*
X98750000Y-95161000D03*
X110020000Y-89840000D03*
X90850000Y-96010000D03*
%TO.N,Net-(U1-IO2)*%
X104810000Y-73630000D03*
X114460000Y-63970000D03*
%TO.N,/ADC_CH1*%
X161970000Y-109000000D03*
X91660000Y-89560000D03*
%TO.N,/ADC_CH2*%
X94290000Y-89570000D03*
%TD*%
D22*
%TO.N,/EN*%
X101450000Y-104520000D02*
X101450000Y-90440000D01*
%TO.N,/ADC_CH2*%
X93890000Y-103190000D02*
X99450000Y-97630000D01*
X93890000Y-109450000D02*
X93890000Y-103190000D01*
X98020000Y-113580000D02*
X93890000Y-109450000D01*
X107250000Y-113580000D02*
X98020000Y-113580000D01*
D23*
%TO.N,+3.3V*%
X108400000Y-66450000D02*
X110710000Y-66450000D01*
X110710000Y-66450000D02*
X111160000Y-66000000D01*
D22*
%TO.N,GND*%
X86010000Y-91633750D02*
X86010000Y-92200000D01*
X87156250Y-90487500D02*
X86010000Y-91633750D01*
%TO.N,Net-(U2B-+)*%
X151560000Y-101550000D02*
X151560000Y-99920000D01*
%TO.N,GND*%
X105700000Y-105370000D02*
X98270000Y-105370000D01*
X105900000Y-105570000D02*
X105700000Y-105370000D01*
%TO.N,/EN*%
X115570000Y-90440000D02*
X115610000Y-90400000D01*
X102840000Y-106150000D02*
X105140000Y-106150000D01*
X101450000Y-90440000D02*
X115570000Y-90440000D01*
X105140000Y-106150000D02*
X108593750Y-109603750D01*
%TO.N,/SCL*%
X95120000Y-61580000D02*
X95567500Y-61132500D01*
X90760000Y-62500000D02*
X91680000Y-61580000D01*
X91680000Y-61580000D02*
X95120000Y-61580000D01*
X95567500Y-61132500D02*
X95567500Y-59531250D01*
%TO.N,Net-(J4-CC2)*%
X184075000Y-73345000D02*
X184569974Y-73345000D01*
X184569974Y-73345000D02*
X185570000Y-72344974D01*
X181390000Y-69400000D02*
X181290000Y-69500000D01*
X181290000Y-69500000D02*
X181290000Y-73320000D01*
X185570000Y-69190000D02*
X181600000Y-69190000D01*
X181600000Y-69190000D02*
X181390000Y-69400000D01*
X185570000Y-72344974D02*
X185570000Y-69190000D01*
%TO.N,/RX0*%
X104008523Y-96970000D02*
X104008978Y-96970455D01*
X106952152Y-92889148D02*
X104000000Y-95841300D01*
X104000000Y-96970000D02*
X104008523Y-96970000D01*
X92560055Y-68750000D02*
X97470000Y-68750000D01*
X92150000Y-70570000D02*
X92150000Y-69160055D01*
X104000000Y-95841300D02*
X104000000Y-96970000D01*
X92150000Y-69160055D02*
X92560055Y-68750000D01*
%TO.N,/TX0*%
X103210000Y-96930000D02*
X103210000Y-95500000D01*
X103210000Y-95500000D02*
X106380000Y-92330000D01*
X95966248Y-69356248D02*
X95970000Y-69360000D01*
X92803750Y-69356248D02*
X95966248Y-69356248D01*
X95970000Y-69360000D02*
X95970000Y-69356248D01*
%TO.N,/IO0*%
X111413750Y-93653750D02*
X111413750Y-96683750D01*
X111075025Y-93315025D02*
X111413750Y-93653750D01*
%TO.N,/VOLT_ADC*%
X98750000Y-90030000D02*
X98750000Y-95161000D01*
X90860000Y-96000000D02*
X90850000Y-96010000D01*
X110020000Y-89840000D02*
X98940000Y-89840000D01*
X98940000Y-89840000D02*
X98750000Y-90030000D01*
X90860000Y-88120000D02*
X90860000Y-96000000D01*
%TO.N,Net-(U1-IO2)*%
X104810000Y-73630000D02*
X114460000Y-63980000D01*
X114460000Y-63980000D02*
X114460000Y-63970000D01*
%TO.N,/ADC_CH1*%
X91660000Y-113650000D02*
X94110000Y-116100000D01*
X147440000Y-116100000D02*
X94110000Y-116100000D01*
X147440000Y-116220000D02*
X147440000Y-116100000D01*
X91660000Y-89560000D02*
X91660000Y-113650000D01*
X154750000Y-116220000D02*
X147440000Y-116220000D01*
X161970000Y-109000000D02*
X154750000Y-116220000D01*
%TO.N,/ADC_CH2*%
X147688943Y-115499000D02*
X117020000Y-115499000D01*
X94277100Y-115700000D02*
X92061000Y-113483900D01*
X153219000Y-115819000D02*
X148008943Y-115819000D01*
X92061000Y-90008943D02*
X92499943Y-89570000D01*
X92499943Y-89570000D02*
X94290000Y-89570000D01*
X153214000Y-104421000D02*
X153214000Y-115814000D01*
X154315000Y-103320000D02*
X153214000Y-104421000D01*
X92061000Y-113483900D02*
X92061000Y-90008943D01*
X117020000Y-115499000D02*
X116819000Y-115700000D01*
X148008943Y-115819000D02*
X147688943Y-115499000D01*
X116819000Y-115700000D02*
X94277100Y-115700000D01*
X153214000Y-115814000D02*
X153219000Y-115819000D01*
%TD*%
%TA.AperFunction,Conductor*%
%TO.N,GND*%
G36*
X188052539Y-46640185D02*
G01*
X188098294Y-46692989D01*
X188109500Y-46744500D01*
X188109500Y-69577671D01*
X188089815Y-69644710D01*
X188037011Y-69690465D01*
X187967853Y-69700409D01*
X187916609Y-69680773D01*
X187840501Y-69629919D01*
X187840488Y-69629912D01*
X187703917Y-69573343D01*
X187703907Y-69573340D01*
X187558920Y-69544500D01*
X187558918Y-69544500D01*
X186611082Y-69544500D01*
X186611080Y-69544500D01*
X186466092Y-69573340D01*
X186466082Y-69573343D01*
X186329511Y-69629912D01*
X186329498Y-69629919D01*
X186206584Y-69712048D01*
X186206580Y-69712051D01*
X186182181Y-69736451D01*
X186120858Y-69769936D01*
X186051166Y-69764952D01*
X185995233Y-69723080D01*
X185970816Y-69657616D01*
X185970500Y-69648770D01*
X185970500Y-69137275D01*
X185970500Y-69137273D01*
X185943207Y-69035413D01*
X185890480Y-68944087D01*
X185815913Y-68869520D01*
X185724587Y-68816793D01*
X185622727Y-68789500D01*
X181652727Y-68789500D01*
X181547273Y-68789500D01*
X181445410Y-68816793D01*
X181354087Y-68869520D01*
X181354084Y-68869522D01*
X180969522Y-69254084D01*
X180969520Y-69254087D01*
X180916791Y-69345414D01*
X180899762Y-69408973D01*
X180889500Y-69447271D01*
X180889500Y-72819902D01*
X180869815Y-72886941D01*
X180853181Y-72907583D01*
X180809481Y-72951282D01*
X180809475Y-72951290D01*
X180730426Y-73088209D01*
X180730423Y-73088216D01*
X180689500Y-73240943D01*
X180689500Y-73399057D01*
X180722681Y-73522888D01*
X180730423Y-73551783D01*
X180730426Y-73551790D01*
X180809475Y-73688709D01*
X180809479Y-73688714D01*
X180809480Y-73688716D01*
X180921284Y-73800520D01*
X180921286Y-73800521D01*
X180921290Y-73800524D01*
X181058209Y-73879573D01*
X181058216Y-73879577D01*
X181210943Y-73920500D01*
X181210945Y-73920500D01*
X181369055Y-73920500D01*
X181369057Y-73920500D01*
X181521784Y-73879577D01*
X181658716Y-73800520D01*
X181770520Y-73688716D01*
X181849577Y-73551784D01*
X181857320Y-73522883D01*
X181893682Y-73463227D01*
X181956528Y-73432696D01*
X182025904Y-73440990D01*
X182079783Y-73485474D01*
X182089450Y-73502518D01*
X182095789Y-73516094D01*
X182099499Y-73534744D01*
X182148535Y-73653127D01*
X182185844Y-73708964D01*
X182189848Y-73717539D01*
X182193744Y-73743107D01*
X182201472Y-73767788D01*
X182198922Y-73777083D01*
X182200374Y-73786611D01*
X182189829Y-73810225D01*
X182182987Y-73835168D01*
X182180595Y-73838890D01*
X182148537Y-73886868D01*
X182148533Y-73886875D01*
X182099499Y-74005255D01*
X182099497Y-74005261D01*
X182074500Y-74130928D01*
X182074500Y-74130931D01*
X182074500Y-74259069D01*
X182074500Y-74259071D01*
X182074499Y-74259071D01*
X182099497Y-74384738D01*
X182099499Y-74384744D01*
X182148533Y-74503124D01*
X182148537Y-74503131D01*
X182180595Y-74551110D01*
X182201472Y-74617788D01*
X182182987Y-74685168D01*
X182180595Y-74688890D01*
X182148537Y-74736868D01*
X182148533Y-74736875D01*
X182099499Y-74855255D01*
X182099497Y-74855261D01*
X182074500Y-74980928D01*
X182074500Y-74980931D01*
X182074500Y-75109069D01*
X182074500Y-75109071D01*
X182074499Y-75109071D01*
X182099497Y-75234738D01*
X182099499Y-75234744D01*
X182148533Y-75353124D01*
X182148537Y-75353131D01*
X182180595Y-75401110D01*
X182201472Y-75467788D01*
X182182987Y-75535168D01*
X182180595Y-75538890D01*
X182148537Y-75586868D01*
X182148533Y-75586875D01*
X182099499Y-75705255D01*
X182099497Y-75705261D01*
X182074500Y-75830928D01*
X182074500Y-75830931D01*
X182074500Y-75959069D01*
X182074500Y-75959071D01*
X182074499Y-75959071D01*
X182099497Y-76084738D01*
X182099499Y-76084744D01*
X182148533Y-76203124D01*
X182148537Y-76203131D01*
X182180595Y-76251110D01*
X182201472Y-76317788D01*
X182182987Y-76385168D01*
X182180595Y-76388890D01*
X182148537Y-76436868D01*
X182148533Y-76436875D01*
X182099499Y-76555255D01*
X182099497Y-76555261D01*
X182074500Y-76680928D01*
X182074500Y-76680931D01*
X182074500Y-76809069D01*
X182074500Y-76809071D01*
X182074499Y-76809071D01*
X182099497Y-76934738D01*
X182099500Y-76934748D01*
X182135513Y-77021691D01*
X182142982Y-77091160D01*
X182111707Y-77153639D01*
X182051618Y-77189291D01*
X182005108Y-77187629D01*
X181970884Y-77194437D01*
X181907665Y-77347062D01*
X181907662Y-77347071D01*
X181875000Y-77511277D01*
X181875000Y-77678722D01*
X181907663Y-77842928D01*
X181907665Y-77842936D01*
X181970883Y-77995560D01*
X182371446Y-77595000D01*
X182313174Y-77536728D01*
X182311042Y-77532823D01*
X182307294Y-77530425D01*
X182294444Y-77502427D01*
X182279689Y-77475405D01*
X182280006Y-77470968D01*
X182278150Y-77466924D01*
X182282476Y-77436427D01*
X182284673Y-77405713D01*
X182287339Y-77402151D01*
X182287964Y-77397747D01*
X182308091Y-77374430D01*
X182326545Y-77349780D01*
X182330711Y-77348225D01*
X182333620Y-77344857D01*
X182363159Y-77336123D01*
X182392009Y-77325363D01*
X182397555Y-77325954D01*
X182400623Y-77325047D01*
X182414127Y-77327720D01*
X182435567Y-77330005D01*
X182442063Y-77331899D01*
X182535256Y-77370501D01*
X182658562Y-77395028D01*
X182663762Y-77396545D01*
X182670726Y-77401002D01*
X182611709Y-77425448D01*
X182555448Y-77481709D01*
X182525000Y-77555218D01*
X182525000Y-77634782D01*
X182555448Y-77708291D01*
X182611709Y-77764552D01*
X182685218Y-77795000D01*
X182764782Y-77795000D01*
X182838291Y-77764552D01*
X182846821Y-77756021D01*
X182842596Y-77815110D01*
X182814095Y-77859457D01*
X182324437Y-78349114D01*
X182328224Y-78368156D01*
X182338012Y-78376043D01*
X182360078Y-78442337D01*
X182342800Y-78510037D01*
X182339260Y-78515655D01*
X182289918Y-78589500D01*
X182289912Y-78589511D01*
X182233343Y-78726082D01*
X182233340Y-78726092D01*
X182204500Y-78871079D01*
X182204500Y-78871082D01*
X182204500Y-79018918D01*
X182204500Y-79018920D01*
X182204499Y-79018920D01*
X182233340Y-79163907D01*
X182233343Y-79163917D01*
X182289912Y-79300488D01*
X182289919Y-79300501D01*
X182372048Y-79423415D01*
X182372051Y-79423419D01*
X182476580Y-79527948D01*
X182476584Y-79527951D01*
X182599498Y-79610080D01*
X182599511Y-79610087D01*
X182725633Y-79662328D01*
X182736087Y-79666658D01*
X182736091Y-79666658D01*
X182736092Y-79666659D01*
X182881079Y-79695500D01*
X182881082Y-79695500D01*
X184528920Y-79695500D01*
X184626462Y-79676096D01*
X184673913Y-79666658D01*
X184810495Y-79610084D01*
X184933416Y-79527951D01*
X185037951Y-79423416D01*
X185120084Y-79300495D01*
X185176658Y-79163913D01*
X185205500Y-79018918D01*
X185205500Y-78871082D01*
X185205500Y-78871079D01*
X185176659Y-78726092D01*
X185176658Y-78726091D01*
X185176658Y-78726087D01*
X185176656Y-78726082D01*
X185120087Y-78589511D01*
X185120080Y-78589498D01*
X185037951Y-78466584D01*
X185037948Y-78466580D01*
X184933419Y-78362051D01*
X184933415Y-78362048D01*
X184810501Y-78279919D01*
X184810488Y-78279912D01*
X184673917Y-78223343D01*
X184673907Y-78223340D01*
X184528920Y-78194500D01*
X184528918Y-78194500D01*
X183578701Y-78194500D01*
X183511662Y-78174815D01*
X183465907Y-78122011D01*
X183455963Y-78052853D01*
X183475597Y-78001612D01*
X183478260Y-77997626D01*
X183542334Y-77842936D01*
X183542336Y-77842928D01*
X183574999Y-77678722D01*
X183575000Y-77678720D01*
X183575000Y-77511279D01*
X183560448Y-77438124D01*
X183566675Y-77368532D01*
X183609538Y-77313355D01*
X183675427Y-77290110D01*
X183743424Y-77306178D01*
X183750951Y-77310826D01*
X183766867Y-77321461D01*
X183766872Y-77321464D01*
X183766875Y-77321466D01*
X183777710Y-77325954D01*
X183885256Y-77370501D01*
X183885260Y-77370501D01*
X183885261Y-77370502D01*
X184010928Y-77395500D01*
X184010931Y-77395500D01*
X184139071Y-77395500D01*
X184244992Y-77374430D01*
X184264744Y-77370501D01*
X184383127Y-77321465D01*
X184489669Y-77250276D01*
X184580276Y-77159669D01*
X184651465Y-77053127D01*
X184700501Y-76934744D01*
X184725500Y-76809069D01*
X184725500Y-76680931D01*
X184725500Y-76680928D01*
X184700502Y-76555261D01*
X184700501Y-76555260D01*
X184700501Y-76555256D01*
X184651465Y-76436873D01*
X184651462Y-76436868D01*
X184651461Y-76436866D01*
X184619405Y-76388891D01*
X184598527Y-76322213D01*
X184617011Y-76254833D01*
X184619405Y-76251109D01*
X184651461Y-76203133D01*
X184651462Y-76203131D01*
X184651465Y-76203127D01*
X184700501Y-76084744D01*
X184725500Y-75959069D01*
X184725500Y-75830931D01*
X184725500Y-75830928D01*
X184700502Y-75705261D01*
X184700501Y-75705260D01*
X184700501Y-75705256D01*
X184651465Y-75586873D01*
X184651462Y-75586868D01*
X184651461Y-75586866D01*
X184619405Y-75538891D01*
X184598527Y-75472213D01*
X184617011Y-75404833D01*
X184619405Y-75401109D01*
X184651461Y-75353133D01*
X184651462Y-75353131D01*
X184651465Y-75353127D01*
X184700501Y-75234744D01*
X184725500Y-75109069D01*
X184725500Y-74980931D01*
X184725500Y-74980928D01*
X184700502Y-74855261D01*
X184700501Y-74855260D01*
X184700501Y-74855256D01*
X184651465Y-74736873D01*
X184651462Y-74736868D01*
X184651461Y-74736866D01*
X184619405Y-74688891D01*
X184598527Y-74622213D01*
X184617011Y-74554833D01*
X184619405Y-74551109D01*
X184651461Y-74503133D01*
X184651462Y-74503131D01*
X184651465Y-74503127D01*
X184700501Y-74384744D01*
X184725500Y-74259069D01*
X184725500Y-74130931D01*
X184725500Y-74130928D01*
X184700502Y-74005261D01*
X184700501Y-74005260D01*
X184700501Y-74005256D01*
X184651465Y-73886873D01*
X184649990Y-73883312D01*
X184642521Y-73813842D01*
X184673796Y-73751363D01*
X184717105Y-73721295D01*
X184724557Y-73718208D01*
X184724562Y-73718207D01*
X184815887Y-73665480D01*
X185890480Y-72590887D01*
X185943207Y-72499561D01*
X185970500Y-72397701D01*
X185970500Y-70941230D01*
X185990185Y-70874191D01*
X186042989Y-70828436D01*
X186112147Y-70818492D01*
X186175703Y-70847517D01*
X186182181Y-70853549D01*
X186206580Y-70877948D01*
X186206584Y-70877951D01*
X186329498Y-70960080D01*
X186329511Y-70960087D01*
X186455633Y-71012328D01*
X186466087Y-71016658D01*
X186466091Y-71016658D01*
X186466092Y-71016659D01*
X186611079Y-71045500D01*
X186611082Y-71045500D01*
X187558920Y-71045500D01*
X187656462Y-71026096D01*
X187703913Y-71016658D01*
X187840495Y-70960084D01*
X187916610Y-70909225D01*
X187983286Y-70888348D01*
X188050666Y-70906832D01*
X188097357Y-70958811D01*
X188109500Y-71012328D01*
X188109500Y-78227671D01*
X188089815Y-78294710D01*
X188037011Y-78340465D01*
X187967853Y-78350409D01*
X187916609Y-78330773D01*
X187840501Y-78279919D01*
X187840488Y-78279912D01*
X187703917Y-78223343D01*
X187703907Y-78223340D01*
X187558920Y-78194500D01*
X187558918Y-78194500D01*
X186611082Y-78194500D01*
X186611080Y-78194500D01*
X186466092Y-78223340D01*
X186466082Y-78223343D01*
X186329511Y-78279912D01*
X186329498Y-78279919D01*
X186206584Y-78362048D01*
X186206580Y-78362051D01*
X186102051Y-78466580D01*
X186102048Y-78466584D01*
X186019919Y-78589498D01*
X186019912Y-78589511D01*
X185963343Y-78726082D01*
X185963340Y-78726092D01*
X185934500Y-78871079D01*
X185934500Y-78871082D01*
X185934500Y-79018918D01*
X185934500Y-79018920D01*
X185934499Y-79018920D01*
X185963340Y-79163907D01*
X185963343Y-79163917D01*
X186019912Y-79300488D01*
X186019919Y-79300501D01*
X186102048Y-79423415D01*
X186102051Y-79423419D01*
X186206580Y-79527948D01*
X186206584Y-79527951D01*
X186329498Y-79610080D01*
X186329511Y-79610087D01*
X186455633Y-79662328D01*
X186466087Y-79666658D01*
X186466091Y-79666658D01*
X186466092Y-79666659D01*
X186611079Y-79695500D01*
X186611082Y-79695500D01*
X187558920Y-79695500D01*
X187656462Y-79676096D01*
X187703913Y-79666658D01*
X187840495Y-79610084D01*
X187916610Y-79559225D01*
X187983286Y-79538348D01*
X188050666Y-79556832D01*
X188097357Y-79608811D01*
X188109500Y-79662328D01*
X188109500Y-118355500D01*
X188089815Y-118422539D01*
X188037011Y-118468294D01*
X187985500Y-118479500D01*
X59084500Y-118479500D01*
X59017461Y-118459815D01*
X58971706Y-118407011D01*
X58960500Y-118355500D01*
X58960500Y-103356250D01*
X64563750Y-103356250D01*
X85503750Y-103356250D01*
X85503750Y-95930943D01*
X90249500Y-95930943D01*
X90249500Y-96089057D01*
X90276338Y-96189216D01*
X90290423Y-96241783D01*
X90290426Y-96241790D01*
X90369475Y-96378709D01*
X90369479Y-96378714D01*
X90369480Y-96378716D01*
X90481284Y-96490520D01*
X90481286Y-96490521D01*
X90481290Y-96490524D01*
X90612296Y-96566159D01*
X90618216Y-96569577D01*
X90770943Y-96610500D01*
X90770945Y-96610500D01*
X90929055Y-96610500D01*
X90929057Y-96610500D01*
X91081784Y-96569577D01*
X91081794Y-96569571D01*
X91088044Y-96566983D01*
X91157513Y-96559513D01*
X91219993Y-96590786D01*
X91255647Y-96650874D01*
X91259500Y-96681543D01*
X91259500Y-113702726D01*
X91286793Y-113804589D01*
X91290951Y-113811790D01*
X91339520Y-113895913D01*
X93864087Y-116420480D01*
X93955412Y-116473207D01*
X94057273Y-116500500D01*
X147102745Y-116500500D01*
X147169784Y-116520185D01*
X147190426Y-116536819D01*
X147194087Y-116540480D01*
X147285413Y-116593207D01*
X147387273Y-116620500D01*
X147387275Y-116620500D01*
X154802725Y-116620500D01*
X154802727Y-116620500D01*
X154904588Y-116593207D01*
X154995913Y-116540480D01*
X161899574Y-109636819D01*
X161960897Y-109603334D01*
X161987255Y-109600500D01*
X162049055Y-109600500D01*
X162049057Y-109600500D01*
X162201784Y-109559577D01*
X162338716Y-109480520D01*
X162450520Y-109368716D01*
X162529577Y-109231784D01*
X162570500Y-109079057D01*
X162570500Y-108920943D01*
X162529577Y-108768216D01*
X162505318Y-108726197D01*
X162450524Y-108631290D01*
X162450518Y-108631282D01*
X162338717Y-108519481D01*
X162338709Y-108519475D01*
X162201790Y-108440426D01*
X162201786Y-108440424D01*
X162201784Y-108440423D01*
X162049057Y-108399500D01*
X161890943Y-108399500D01*
X161738216Y-108440423D01*
X161738209Y-108440426D01*
X161601290Y-108519475D01*
X161601282Y-108519481D01*
X161489481Y-108631282D01*
X161489475Y-108631290D01*
X161410426Y-108768209D01*
X161410423Y-108768216D01*
X161369500Y-108920943D01*
X161369500Y-108982745D01*
X161349815Y-109049784D01*
X161333181Y-109070426D01*
X154620426Y-115783181D01*
X154559103Y-115816666D01*
X154532745Y-115819500D01*
X153738500Y-115819500D01*
X153671461Y-115799815D01*
X153625706Y-115747011D01*
X153614500Y-115695500D01*
X153614500Y-106940547D01*
X153634185Y-106873508D01*
X153686989Y-106827753D01*
X153756147Y-106817809D01*
X153794793Y-106830061D01*
X153892555Y-106879873D01*
X154057299Y-106933402D01*
X154228389Y-106960500D01*
X154228390Y-106960500D01*
X154401610Y-106960500D01*
X154401611Y-106960500D01*
X154572701Y-106933402D01*
X154737445Y-106879873D01*
X154891788Y-106801232D01*
X155031928Y-106699414D01*
X155154414Y-106576928D01*
X155256232Y-106436788D01*
X155334873Y-106282445D01*
X155388402Y-106117701D01*
X155415500Y-105946611D01*
X155415500Y-105773389D01*
X155388402Y-105602299D01*
X155334873Y-105437555D01*
X155314565Y-105397697D01*
X155274716Y-105319488D01*
X155274715Y-105319487D01*
X155270945Y-105312088D01*
X155256232Y-105283212D01*
X155244379Y-105266898D01*
X160834500Y-105266898D01*
X160834500Y-106453102D01*
X160840126Y-106499954D01*
X160845122Y-106541561D01*
X160900639Y-106682343D01*
X160992077Y-106802922D01*
X161112656Y-106894360D01*
X161112657Y-106894360D01*
X161112658Y-106894361D01*
X161253436Y-106949877D01*
X161341898Y-106960500D01*
X161341903Y-106960500D01*
X162528097Y-106960500D01*
X162528102Y-106960500D01*
X162616564Y-106949877D01*
X162757342Y-106894361D01*
X162877922Y-106802922D01*
X162969361Y-106682342D01*
X163024877Y-106541564D01*
X163035500Y-106453102D01*
X163035500Y-105266898D01*
X163024877Y-105178436D01*
X162969361Y-105037658D01*
X162969360Y-105037657D01*
X162969360Y-105037656D01*
X162877922Y-104917077D01*
X162757343Y-104825639D01*
X162616561Y-104770122D01*
X162570926Y-104764642D01*
X162528102Y-104759500D01*
X161341898Y-104759500D01*
X161302853Y-104764188D01*
X161253438Y-104770122D01*
X161112656Y-104825639D01*
X160992077Y-104917077D01*
X160900639Y-105037656D01*
X160845122Y-105178438D01*
X160839338Y-105226610D01*
X160834500Y-105266898D01*
X155244379Y-105266898D01*
X155154414Y-105143072D01*
X155031928Y-105020586D01*
X154891788Y-104918768D01*
X154820213Y-104882299D01*
X154737447Y-104840128D01*
X154737446Y-104840127D01*
X154737445Y-104840127D01*
X154572701Y-104786598D01*
X154572699Y-104786597D01*
X154572698Y-104786597D01*
X154441271Y-104765781D01*
X154401611Y-104759500D01*
X154228389Y-104759500D01*
X154188728Y-104765781D01*
X154057302Y-104786597D01*
X153892552Y-104840128D01*
X153794795Y-104889938D01*
X153792089Y-104890446D01*
X153790011Y-104892247D01*
X153757961Y-104896855D01*
X153726126Y-104902834D01*
X153723576Y-104901799D01*
X153720853Y-104902191D01*
X153691394Y-104888737D01*
X153661385Y-104876558D01*
X153659799Y-104874308D01*
X153657297Y-104873166D01*
X153639788Y-104845922D01*
X153621128Y-104819451D01*
X153620555Y-104815994D01*
X153619523Y-104814388D01*
X153614500Y-104779453D01*
X153614500Y-104638254D01*
X153634185Y-104571215D01*
X153650810Y-104550582D01*
X153708003Y-104493389D01*
X175609500Y-104493389D01*
X175609500Y-104666610D01*
X175634687Y-104825639D01*
X175636598Y-104837701D01*
X175676607Y-104960836D01*
X175690128Y-105002447D01*
X175761778Y-105143069D01*
X175768768Y-105156788D01*
X175870586Y-105296928D01*
X175993072Y-105419414D01*
X176133212Y-105521232D01*
X176287555Y-105599873D01*
X176452299Y-105653402D01*
X176623389Y-105680500D01*
X176623390Y-105680500D01*
X176796610Y-105680500D01*
X176796611Y-105680500D01*
X176967701Y-105653402D01*
X177132445Y-105599873D01*
X177286788Y-105521232D01*
X177426928Y-105419414D01*
X177549414Y-105296928D01*
X177651232Y-105156788D01*
X177729873Y-105002445D01*
X177783402Y-104837701D01*
X177810500Y-104666611D01*
X177810500Y-104493389D01*
X177783402Y-104322299D01*
X177729873Y-104157555D01*
X177651232Y-104003212D01*
X177549414Y-103863072D01*
X177426928Y-103740586D01*
X177286788Y-103638768D01*
X177132445Y-103560127D01*
X176967701Y-103506598D01*
X176967699Y-103506597D01*
X176967698Y-103506597D01*
X176836271Y-103485781D01*
X176796611Y-103479500D01*
X176623389Y-103479500D01*
X176583728Y-103485781D01*
X176452302Y-103506597D01*
X176287552Y-103560128D01*
X176133211Y-103638768D01*
X176082843Y-103675363D01*
X175993072Y-103740586D01*
X175993070Y-103740588D01*
X175993069Y-103740588D01*
X175870588Y-103863069D01*
X175870588Y-103863070D01*
X175870586Y-103863072D01*
X175846090Y-103896788D01*
X175768768Y-104003211D01*
X175690128Y-104157552D01*
X175636597Y-104322302D01*
X175609500Y-104493389D01*
X153708003Y-104493389D01*
X153815402Y-104385989D01*
X153876722Y-104352507D01*
X153941393Y-104355741D01*
X154057299Y-104393402D01*
X154228389Y-104420500D01*
X154228390Y-104420500D01*
X154401610Y-104420500D01*
X154401611Y-104420500D01*
X154572701Y-104393402D01*
X154737445Y-104339873D01*
X154891788Y-104261232D01*
X155031928Y-104159414D01*
X155154414Y-104036928D01*
X155256232Y-103896788D01*
X155334873Y-103742445D01*
X155388402Y-103577701D01*
X155415500Y-103406611D01*
X155415500Y-103233389D01*
X160834500Y-103233389D01*
X160834500Y-103406610D01*
X160861597Y-103577697D01*
X160861597Y-103577699D01*
X160861598Y-103577701D01*
X160915127Y-103742445D01*
X160993768Y-103896788D01*
X161095586Y-104036928D01*
X161218072Y-104159414D01*
X161358212Y-104261232D01*
X161512555Y-104339873D01*
X161677299Y-104393402D01*
X161848389Y-104420500D01*
X161848390Y-104420500D01*
X162021610Y-104420500D01*
X162021611Y-104420500D01*
X162192701Y-104393402D01*
X162357445Y-104339873D01*
X162511788Y-104261232D01*
X162651928Y-104159414D01*
X162774414Y-104036928D01*
X162876232Y-103896788D01*
X162954873Y-103742445D01*
X163008402Y-103577701D01*
X163035500Y-103406611D01*
X163035500Y-103233389D01*
X163008402Y-103062299D01*
X162954873Y-102897555D01*
X162876232Y-102743212D01*
X162774414Y-102603072D01*
X162651928Y-102480586D01*
X162511788Y-102378768D01*
X162428902Y-102336536D01*
X162357447Y-102300128D01*
X162357446Y-102300127D01*
X162357445Y-102300127D01*
X162192701Y-102246598D01*
X162192699Y-102246597D01*
X162192698Y-102246597D01*
X162061271Y-102225781D01*
X162021611Y-102219500D01*
X161848389Y-102219500D01*
X161808728Y-102225781D01*
X161677302Y-102246597D01*
X161512552Y-102300128D01*
X161358211Y-102378768D01*
X161304287Y-102417947D01*
X161218072Y-102480586D01*
X161218070Y-102480588D01*
X161218069Y-102480588D01*
X161095588Y-102603069D01*
X161095588Y-102603070D01*
X161095586Y-102603072D01*
X161057101Y-102656042D01*
X160993768Y-102743211D01*
X160915128Y-102897552D01*
X160861597Y-103062302D01*
X160834500Y-103233389D01*
X155415500Y-103233389D01*
X155388402Y-103062299D01*
X155334873Y-102897555D01*
X155256232Y-102743212D01*
X155154414Y-102603072D01*
X155031928Y-102480586D01*
X154891788Y-102378768D01*
X154808902Y-102336536D01*
X154737447Y-102300128D01*
X154737446Y-102300127D01*
X154737445Y-102300127D01*
X154572701Y-102246598D01*
X154572699Y-102246597D01*
X154572698Y-102246597D01*
X154441271Y-102225781D01*
X154401611Y-102219500D01*
X154228389Y-102219500D01*
X154188728Y-102225781D01*
X154057302Y-102246597D01*
X153892552Y-102300128D01*
X153738211Y-102378768D01*
X153684287Y-102417947D01*
X153598072Y-102480586D01*
X153598070Y-102480588D01*
X153598069Y-102480588D01*
X153475588Y-102603069D01*
X153475588Y-102603070D01*
X153475586Y-102603072D01*
X153437101Y-102656042D01*
X153373768Y-102743211D01*
X153295128Y-102897552D01*
X153241597Y-103062302D01*
X153214500Y-103233389D01*
X153214500Y-103406610D01*
X153241597Y-103577698D01*
X153279256Y-103693600D01*
X153281251Y-103763441D01*
X153249006Y-103819599D01*
X152893522Y-104175084D01*
X152893520Y-104175087D01*
X152840792Y-104266413D01*
X152821110Y-104339871D01*
X152813500Y-104368270D01*
X152813500Y-115294500D01*
X152793815Y-115361539D01*
X152741011Y-115407294D01*
X152689500Y-115418500D01*
X148226198Y-115418500D01*
X148159159Y-115398815D01*
X148138517Y-115382181D01*
X147934858Y-115178522D01*
X147934856Y-115178520D01*
X147889193Y-115152156D01*
X147843532Y-115125793D01*
X147792600Y-115112146D01*
X147741670Y-115098500D01*
X117072727Y-115098500D01*
X116967273Y-115098500D01*
X116865410Y-115125793D01*
X116774087Y-115178520D01*
X116774084Y-115178522D01*
X116689426Y-115263181D01*
X116628103Y-115296666D01*
X116601745Y-115299500D01*
X94494354Y-115299500D01*
X94427315Y-115279815D01*
X94406673Y-115263181D01*
X92497819Y-113354326D01*
X92464334Y-113293003D01*
X92461500Y-113266645D01*
X92461500Y-103137273D01*
X93489500Y-103137273D01*
X93489500Y-109502726D01*
X93516793Y-109604589D01*
X93535402Y-109636819D01*
X93569520Y-109695913D01*
X97774087Y-113900480D01*
X97865412Y-113953207D01*
X97967273Y-113980500D01*
X106749902Y-113980500D01*
X106816941Y-114000185D01*
X106837583Y-114016819D01*
X106881284Y-114060520D01*
X106881286Y-114060521D01*
X106881290Y-114060524D01*
X107018209Y-114139573D01*
X107018216Y-114139577D01*
X107170943Y-114180500D01*
X107170945Y-114180500D01*
X107329055Y-114180500D01*
X107329057Y-114180500D01*
X107481784Y-114139577D01*
X107618716Y-114060520D01*
X107730520Y-113948716D01*
X107809577Y-113811784D01*
X107850500Y-113659057D01*
X107850500Y-113500943D01*
X107809577Y-113348216D01*
X107777700Y-113293003D01*
X107730524Y-113211290D01*
X107730518Y-113211282D01*
X107618717Y-113099481D01*
X107618709Y-113099475D01*
X107481790Y-113020426D01*
X107481786Y-113020424D01*
X107481784Y-113020423D01*
X107329057Y-112979500D01*
X107170943Y-112979500D01*
X107018216Y-113020423D01*
X107018209Y-113020426D01*
X106881290Y-113099475D01*
X106881282Y-113099481D01*
X106837583Y-113143181D01*
X106776260Y-113176666D01*
X106749902Y-113179500D01*
X98237255Y-113179500D01*
X98170216Y-113159815D01*
X98149574Y-113143181D01*
X94326819Y-109320426D01*
X94293334Y-109259103D01*
X94290500Y-109232745D01*
X94290500Y-108705905D01*
X97083750Y-108705905D01*
X97083750Y-109353750D01*
X98000738Y-109353750D01*
X97967825Y-109410757D01*
X97933750Y-109537924D01*
X97933750Y-109669576D01*
X97967825Y-109796743D01*
X98000738Y-109853750D01*
X97083750Y-109853750D01*
X97083750Y-110501594D01*
X97090151Y-110561122D01*
X97090153Y-110561129D01*
X97140395Y-110695836D01*
X97140399Y-110695843D01*
X97226559Y-110810937D01*
X97226562Y-110810940D01*
X97341656Y-110897100D01*
X97341663Y-110897104D01*
X97476370Y-110947346D01*
X97476377Y-110947348D01*
X97535905Y-110953749D01*
X97535922Y-110953750D01*
X98183750Y-110953750D01*
X98183750Y-110036762D01*
X98240757Y-110069675D01*
X98367924Y-110103750D01*
X98499576Y-110103750D01*
X98626743Y-110069675D01*
X98683750Y-110036762D01*
X98683750Y-110953750D01*
X99331578Y-110953750D01*
X99331594Y-110953749D01*
X99391122Y-110947348D01*
X99391129Y-110947346D01*
X99525836Y-110897104D01*
X99525843Y-110897100D01*
X99640937Y-110810940D01*
X99640940Y-110810937D01*
X99727100Y-110695843D01*
X99727104Y-110695836D01*
X99777346Y-110561129D01*
X99777348Y-110561122D01*
X99783749Y-110501594D01*
X99783750Y-110501577D01*
X99783750Y-110304837D01*
X99803435Y-110237798D01*
X99856239Y-110192043D01*
X99925397Y-110182099D01*
X99988953Y-110211124D01*
X100008068Y-110231952D01*
X100096191Y-110353245D01*
X100224250Y-110481304D01*
X100224255Y-110481308D01*
X100252177Y-110501594D01*
X100370756Y-110587746D01*
X100476234Y-110641490D01*
X100532110Y-110669961D01*
X100532113Y-110669962D01*
X100611747Y-110695836D01*
X100704341Y-110725921D01*
X100787179Y-110739041D01*
X100883199Y-110754250D01*
X100883204Y-110754250D01*
X101064301Y-110754250D01*
X101151009Y-110740515D01*
X101243159Y-110725921D01*
X101415389Y-110669961D01*
X101576744Y-110587746D01*
X101723251Y-110481303D01*
X101851303Y-110353251D01*
X101957746Y-110206744D01*
X102039961Y-110045389D01*
X102095921Y-109873159D01*
X102110172Y-109783175D01*
X102121277Y-109713071D01*
X102151206Y-109649936D01*
X102210518Y-109613005D01*
X102280380Y-109614003D01*
X102338613Y-109652613D01*
X102366223Y-109713071D01*
X102391579Y-109873160D01*
X102447537Y-110045386D01*
X102447538Y-110045389D01*
X102503414Y-110155050D01*
X102522263Y-110192043D01*
X102529756Y-110206747D01*
X102636191Y-110353244D01*
X102636195Y-110353249D01*
X102764250Y-110481304D01*
X102764255Y-110481308D01*
X102792177Y-110501594D01*
X102910756Y-110587746D01*
X103016234Y-110641490D01*
X103072110Y-110669961D01*
X103072113Y-110669962D01*
X103151747Y-110695836D01*
X103244341Y-110725921D01*
X103327179Y-110739041D01*
X103423199Y-110754250D01*
X103423204Y-110754250D01*
X103604301Y-110754250D01*
X103691009Y-110740515D01*
X103783159Y-110725921D01*
X103955389Y-110669961D01*
X104116744Y-110587746D01*
X104263251Y-110481303D01*
X104391303Y-110353251D01*
X104497746Y-110206744D01*
X104579961Y-110045389D01*
X104635921Y-109873159D01*
X104650172Y-109783175D01*
X104661277Y-109713071D01*
X104691206Y-109649936D01*
X104750518Y-109613005D01*
X104820380Y-109614003D01*
X104878613Y-109652613D01*
X104906223Y-109713071D01*
X104931579Y-109873160D01*
X104987537Y-110045386D01*
X104987538Y-110045389D01*
X105043414Y-110155050D01*
X105062263Y-110192043D01*
X105069756Y-110206747D01*
X105176191Y-110353244D01*
X105176195Y-110353249D01*
X105304250Y-110481304D01*
X105304255Y-110481308D01*
X105332177Y-110501594D01*
X105450756Y-110587746D01*
X105556234Y-110641490D01*
X105612110Y-110669961D01*
X105612113Y-110669962D01*
X105691747Y-110695836D01*
X105784341Y-110725921D01*
X105867179Y-110739041D01*
X105963199Y-110754250D01*
X105963204Y-110754250D01*
X106144301Y-110754250D01*
X106231009Y-110740515D01*
X106323159Y-110725921D01*
X106495389Y-110669961D01*
X106656744Y-110587746D01*
X106803251Y-110481303D01*
X106931303Y-110353251D01*
X107037746Y-110206744D01*
X107119961Y-110045389D01*
X107175921Y-109873159D01*
X107190172Y-109783175D01*
X107201277Y-109713071D01*
X107231206Y-109649936D01*
X107290518Y-109613005D01*
X107360380Y-109614003D01*
X107418613Y-109652613D01*
X107446223Y-109713071D01*
X107471579Y-109873160D01*
X107527537Y-110045386D01*
X107527538Y-110045389D01*
X107583414Y-110155050D01*
X107602263Y-110192043D01*
X107609756Y-110206747D01*
X107716191Y-110353244D01*
X107716195Y-110353249D01*
X107844250Y-110481304D01*
X107844255Y-110481308D01*
X107872177Y-110501594D01*
X107990756Y-110587746D01*
X108096234Y-110641490D01*
X108152110Y-110669961D01*
X108152113Y-110669962D01*
X108231747Y-110695836D01*
X108324341Y-110725921D01*
X108407179Y-110739041D01*
X108503199Y-110754250D01*
X108503204Y-110754250D01*
X108684301Y-110754250D01*
X108771009Y-110740515D01*
X108863159Y-110725921D01*
X109035389Y-110669961D01*
X109196744Y-110587746D01*
X109343251Y-110481303D01*
X109471303Y-110353251D01*
X109577746Y-110206744D01*
X109659961Y-110045389D01*
X109715921Y-109873159D01*
X109730172Y-109783175D01*
X109741277Y-109713071D01*
X109771206Y-109649936D01*
X109830518Y-109613005D01*
X109900380Y-109614003D01*
X109958613Y-109652613D01*
X109986223Y-109713071D01*
X110011579Y-109873160D01*
X110067537Y-110045386D01*
X110067538Y-110045389D01*
X110123414Y-110155050D01*
X110142263Y-110192043D01*
X110149756Y-110206747D01*
X110256191Y-110353244D01*
X110256195Y-110353249D01*
X110384250Y-110481304D01*
X110384255Y-110481308D01*
X110412177Y-110501594D01*
X110530756Y-110587746D01*
X110636234Y-110641490D01*
X110692110Y-110669961D01*
X110692113Y-110669962D01*
X110771747Y-110695836D01*
X110864341Y-110725921D01*
X110947179Y-110739041D01*
X111043199Y-110754250D01*
X111043204Y-110754250D01*
X111224301Y-110754250D01*
X111311009Y-110740515D01*
X111403159Y-110725921D01*
X111575389Y-110669961D01*
X111736744Y-110587746D01*
X111883251Y-110481303D01*
X112011303Y-110353251D01*
X112117746Y-110206744D01*
X112199961Y-110045389D01*
X112255921Y-109873159D01*
X112270515Y-109781009D01*
X112284250Y-109694301D01*
X112284250Y-109513198D01*
X112265888Y-109397273D01*
X112255921Y-109334341D01*
X112222599Y-109231784D01*
X112199962Y-109162113D01*
X112199961Y-109162110D01*
X112170224Y-109103750D01*
X112117746Y-109000756D01*
X112099431Y-108975547D01*
X112011308Y-108854255D01*
X112011304Y-108854250D01*
X111883249Y-108726195D01*
X111883244Y-108726191D01*
X111736747Y-108619756D01*
X111736746Y-108619755D01*
X111736744Y-108619754D01*
X111685050Y-108593414D01*
X111575389Y-108537538D01*
X111575386Y-108537537D01*
X111403160Y-108481579D01*
X111224301Y-108453250D01*
X111224296Y-108453250D01*
X111043204Y-108453250D01*
X111043199Y-108453250D01*
X110864339Y-108481579D01*
X110692113Y-108537537D01*
X110692110Y-108537538D01*
X110530752Y-108619756D01*
X110384255Y-108726191D01*
X110384250Y-108726195D01*
X110256195Y-108854250D01*
X110256191Y-108854255D01*
X110149756Y-109000752D01*
X110067538Y-109162110D01*
X110067537Y-109162113D01*
X110011579Y-109334339D01*
X109986223Y-109494428D01*
X109956294Y-109557563D01*
X109896982Y-109594494D01*
X109827119Y-109593496D01*
X109768887Y-109554886D01*
X109741277Y-109494428D01*
X109725888Y-109397273D01*
X109715921Y-109334341D01*
X109682599Y-109231784D01*
X109659962Y-109162113D01*
X109659961Y-109162110D01*
X109630224Y-109103750D01*
X109577746Y-109000756D01*
X109559431Y-108975547D01*
X109471308Y-108854255D01*
X109471304Y-108854250D01*
X109343249Y-108726195D01*
X109343244Y-108726191D01*
X109196747Y-108619756D01*
X109196746Y-108619755D01*
X109196744Y-108619754D01*
X109145050Y-108593414D01*
X109035389Y-108537538D01*
X109035386Y-108537537D01*
X108863160Y-108481579D01*
X108684301Y-108453250D01*
X108684296Y-108453250D01*
X108503204Y-108453250D01*
X108503199Y-108453250D01*
X108324337Y-108481579D01*
X108180466Y-108528325D01*
X108110625Y-108530320D01*
X108054468Y-108498075D01*
X105385915Y-105829522D01*
X105385913Y-105829520D01*
X105340250Y-105803156D01*
X105294589Y-105776793D01*
X105243657Y-105763146D01*
X105192727Y-105749500D01*
X105192726Y-105749500D01*
X103340098Y-105749500D01*
X103273059Y-105729815D01*
X103252417Y-105713181D01*
X103208717Y-105669481D01*
X103208709Y-105669475D01*
X103071790Y-105590426D01*
X103071786Y-105590424D01*
X103071784Y-105590423D01*
X102919057Y-105549500D01*
X102760943Y-105549500D01*
X102608216Y-105590423D01*
X102608209Y-105590426D01*
X102471290Y-105669475D01*
X102471282Y-105669481D01*
X102359481Y-105781282D01*
X102359475Y-105781290D01*
X102280426Y-105918209D01*
X102280423Y-105918216D01*
X102239500Y-106070943D01*
X102239500Y-106229057D01*
X102253806Y-106282445D01*
X102280423Y-106381783D01*
X102280426Y-106381790D01*
X102359475Y-106518709D01*
X102359479Y-106518714D01*
X102359480Y-106518716D01*
X102471284Y-106630520D01*
X102471286Y-106630521D01*
X102471290Y-106630524D01*
X102561043Y-106682342D01*
X102608216Y-106709577D01*
X102760943Y-106750500D01*
X102760945Y-106750500D01*
X102919055Y-106750500D01*
X102919057Y-106750500D01*
X103071784Y-106709577D01*
X103208716Y-106630520D01*
X103252417Y-106586819D01*
X103313740Y-106553334D01*
X103340098Y-106550500D01*
X104922745Y-106550500D01*
X104989784Y-106570185D01*
X105010426Y-106586819D01*
X107488075Y-109064468D01*
X107521560Y-109125791D01*
X107518325Y-109190466D01*
X107471579Y-109334337D01*
X107446223Y-109494428D01*
X107416294Y-109557563D01*
X107356982Y-109594494D01*
X107287119Y-109593496D01*
X107228887Y-109554886D01*
X107201277Y-109494428D01*
X107185888Y-109397273D01*
X107175921Y-109334341D01*
X107142599Y-109231784D01*
X107119962Y-109162113D01*
X107119961Y-109162110D01*
X107090224Y-109103750D01*
X107037746Y-109000756D01*
X107019431Y-108975547D01*
X106942388Y-108869505D01*
X106942384Y-108869501D01*
X106931303Y-108854249D01*
X106803251Y-108726197D01*
X106787998Y-108715115D01*
X106787994Y-108715111D01*
X106656747Y-108619756D01*
X106656746Y-108619755D01*
X106656744Y-108619754D01*
X106605050Y-108593414D01*
X106495389Y-108537538D01*
X106495386Y-108537537D01*
X106323160Y-108481579D01*
X106144301Y-108453250D01*
X106144296Y-108453250D01*
X105963204Y-108453250D01*
X105963199Y-108453250D01*
X105784339Y-108481579D01*
X105612113Y-108537537D01*
X105612110Y-108537538D01*
X105450752Y-108619756D01*
X105304255Y-108726191D01*
X105304250Y-108726195D01*
X105176195Y-108854250D01*
X105176191Y-108854255D01*
X105069756Y-109000752D01*
X104987538Y-109162110D01*
X104987537Y-109162113D01*
X104931579Y-109334339D01*
X104906223Y-109494428D01*
X104876294Y-109557563D01*
X104816982Y-109594494D01*
X104747119Y-109593496D01*
X104688887Y-109554886D01*
X104661277Y-109494428D01*
X104645888Y-109397273D01*
X104635921Y-109334341D01*
X104602599Y-109231784D01*
X104579962Y-109162113D01*
X104579961Y-109162110D01*
X104550224Y-109103750D01*
X104497746Y-109000756D01*
X104479431Y-108975547D01*
X104391308Y-108854255D01*
X104391304Y-108854250D01*
X104263249Y-108726195D01*
X104263244Y-108726191D01*
X104116747Y-108619756D01*
X104116746Y-108619755D01*
X104116744Y-108619754D01*
X104065050Y-108593414D01*
X103955389Y-108537538D01*
X103955386Y-108537537D01*
X103783160Y-108481579D01*
X103604301Y-108453250D01*
X103604296Y-108453250D01*
X103423204Y-108453250D01*
X103423199Y-108453250D01*
X103244339Y-108481579D01*
X103072113Y-108537537D01*
X103072110Y-108537538D01*
X102910752Y-108619756D01*
X102764255Y-108726191D01*
X102764250Y-108726195D01*
X102636195Y-108854250D01*
X102636191Y-108854255D01*
X102529756Y-109000752D01*
X102447538Y-109162110D01*
X102447537Y-109162113D01*
X102391579Y-109334339D01*
X102366223Y-109494428D01*
X102336294Y-109557563D01*
X102276982Y-109594494D01*
X102207119Y-109593496D01*
X102148887Y-109554886D01*
X102121277Y-109494428D01*
X102105888Y-109397273D01*
X102095921Y-109334341D01*
X102062599Y-109231784D01*
X102039962Y-109162113D01*
X102039961Y-109162110D01*
X102010224Y-109103750D01*
X101957746Y-109000756D01*
X101939431Y-108975547D01*
X101851308Y-108854255D01*
X101851304Y-108854250D01*
X101723249Y-108726195D01*
X101723244Y-108726191D01*
X101576747Y-108619756D01*
X101576746Y-108619755D01*
X101576744Y-108619754D01*
X101525050Y-108593414D01*
X101415389Y-108537538D01*
X101415386Y-108537537D01*
X101243160Y-108481579D01*
X101064301Y-108453250D01*
X101064296Y-108453250D01*
X100883204Y-108453250D01*
X100883199Y-108453250D01*
X100704339Y-108481579D01*
X100532113Y-108537537D01*
X100532110Y-108537538D01*
X100370752Y-108619756D01*
X100224255Y-108726191D01*
X100224250Y-108726195D01*
X100096195Y-108854250D01*
X100096191Y-108854255D01*
X100008068Y-108975547D01*
X99952738Y-109018213D01*
X99883125Y-109024192D01*
X99821330Y-108991586D01*
X99786973Y-108930748D01*
X99783750Y-108902662D01*
X99783750Y-108705922D01*
X99783749Y-108705905D01*
X99777348Y-108646377D01*
X99777346Y-108646370D01*
X99727104Y-108511663D01*
X99727100Y-108511656D01*
X99640940Y-108396562D01*
X99640937Y-108396559D01*
X99525843Y-108310399D01*
X99525836Y-108310395D01*
X99391129Y-108260153D01*
X99391122Y-108260151D01*
X99331594Y-108253750D01*
X98683750Y-108253750D01*
X98683750Y-109170738D01*
X98626743Y-109137825D01*
X98499576Y-109103750D01*
X98367924Y-109103750D01*
X98240757Y-109137825D01*
X98183750Y-109170738D01*
X98183750Y-108253750D01*
X97535905Y-108253750D01*
X97476377Y-108260151D01*
X97476370Y-108260153D01*
X97341663Y-108310395D01*
X97341656Y-108310399D01*
X97226562Y-108396559D01*
X97226559Y-108396562D01*
X97140399Y-108511656D01*
X97140395Y-108511663D01*
X97090153Y-108646370D01*
X97090151Y-108646377D01*
X97083750Y-108705905D01*
X94290500Y-108705905D01*
X94290500Y-103407255D01*
X94310185Y-103340216D01*
X94326819Y-103319574D01*
X99379574Y-98266819D01*
X99440897Y-98233334D01*
X99467255Y-98230500D01*
X99529055Y-98230500D01*
X99529057Y-98230500D01*
X99681784Y-98189577D01*
X99818716Y-98110520D01*
X99930520Y-97998716D01*
X100009577Y-97861784D01*
X100050500Y-97709057D01*
X100050500Y-97550943D01*
X100009577Y-97398216D01*
X100009573Y-97398209D01*
X99930524Y-97261290D01*
X99930518Y-97261282D01*
X99818717Y-97149481D01*
X99818709Y-97149475D01*
X99681790Y-97070426D01*
X99681786Y-97070424D01*
X99681784Y-97070423D01*
X99529057Y-97029500D01*
X99370943Y-97029500D01*
X99218216Y-97070423D01*
X99218209Y-97070426D01*
X99081290Y-97149475D01*
X99081282Y-97149481D01*
X98969481Y-97261282D01*
X98969475Y-97261290D01*
X98890426Y-97398209D01*
X98890423Y-97398216D01*
X98849500Y-97550943D01*
X98849500Y-97612745D01*
X98829815Y-97679784D01*
X98813181Y-97700426D01*
X93569522Y-102944084D01*
X93569518Y-102944090D01*
X93516792Y-103035412D01*
X93516793Y-103035413D01*
X93489500Y-103137273D01*
X92461500Y-103137273D01*
X92461500Y-95081943D01*
X98149500Y-95081943D01*
X98149500Y-95240057D01*
X98187869Y-95383250D01*
X98190423Y-95392783D01*
X98190426Y-95392790D01*
X98269475Y-95529709D01*
X98269479Y-95529714D01*
X98269480Y-95529716D01*
X98381284Y-95641520D01*
X98381286Y-95641521D01*
X98381290Y-95641524D01*
X98495701Y-95707578D01*
X98518216Y-95720577D01*
X98670943Y-95761500D01*
X98670945Y-95761500D01*
X98829055Y-95761500D01*
X98829057Y-95761500D01*
X98981784Y-95720577D01*
X99118716Y-95641520D01*
X99230520Y-95529716D01*
X99309577Y-95392784D01*
X99350500Y-95240057D01*
X99350500Y-95081943D01*
X99309577Y-94929216D01*
X99309573Y-94929209D01*
X99230524Y-94792290D01*
X99230518Y-94792282D01*
X99186819Y-94748583D01*
X99153334Y-94687260D01*
X99150500Y-94660902D01*
X99150500Y-90364500D01*
X99170185Y-90297461D01*
X99222989Y-90251706D01*
X99274500Y-90240500D01*
X100725500Y-90240500D01*
X100792539Y-90260185D01*
X100838294Y-90312989D01*
X100849500Y-90364500D01*
X100849500Y-90519056D01*
X100890423Y-90671783D01*
X100890426Y-90671790D01*
X100969475Y-90808709D01*
X100969481Y-90808717D01*
X101013181Y-90852417D01*
X101046666Y-90913740D01*
X101049500Y-90940098D01*
X101049500Y-104019902D01*
X101029815Y-104086941D01*
X101013181Y-104107583D01*
X100969481Y-104151282D01*
X100969475Y-104151290D01*
X100890426Y-104288209D01*
X100890423Y-104288216D01*
X100849500Y-104440943D01*
X100849500Y-104599057D01*
X100881252Y-104717555D01*
X100890423Y-104751783D01*
X100890426Y-104751790D01*
X100969475Y-104888709D01*
X100969479Y-104888714D01*
X100969480Y-104888716D01*
X101081284Y-105000520D01*
X101081286Y-105000521D01*
X101081290Y-105000524D01*
X101218209Y-105079573D01*
X101218216Y-105079577D01*
X101370943Y-105120500D01*
X101370945Y-105120500D01*
X101529055Y-105120500D01*
X101529057Y-105120500D01*
X101681784Y-105079577D01*
X101727143Y-105053389D01*
X138759500Y-105053389D01*
X138759500Y-105226611D01*
X138786598Y-105397701D01*
X138799547Y-105437555D01*
X138840128Y-105562447D01*
X138916930Y-105713181D01*
X138918768Y-105716788D01*
X139020586Y-105856928D01*
X139143072Y-105979414D01*
X139283212Y-106081232D01*
X139437555Y-106159873D01*
X139602299Y-106213402D01*
X139773389Y-106240500D01*
X139773390Y-106240500D01*
X139946610Y-106240500D01*
X139946611Y-106240500D01*
X140117701Y-106213402D01*
X140282445Y-106159873D01*
X140436788Y-106081232D01*
X140576928Y-105979414D01*
X140699414Y-105856928D01*
X140801232Y-105716788D01*
X140879873Y-105562445D01*
X140933402Y-105397701D01*
X140960500Y-105226611D01*
X140960500Y-105053389D01*
X140933402Y-104882299D01*
X140879873Y-104717555D01*
X140801232Y-104563212D01*
X140699414Y-104423072D01*
X140576928Y-104300586D01*
X140436788Y-104198768D01*
X140282445Y-104120127D01*
X140117701Y-104066598D01*
X140117699Y-104066597D01*
X140117698Y-104066597D01*
X139986271Y-104045781D01*
X139946611Y-104039500D01*
X139773389Y-104039500D01*
X139733728Y-104045781D01*
X139602302Y-104066597D01*
X139437552Y-104120128D01*
X139283211Y-104198768D01*
X139203256Y-104256859D01*
X139143072Y-104300586D01*
X139143070Y-104300588D01*
X139143069Y-104300588D01*
X139020588Y-104423069D01*
X139020588Y-104423070D01*
X139020586Y-104423072D01*
X138988912Y-104466668D01*
X138918768Y-104563211D01*
X138840128Y-104717552D01*
X138786597Y-104882302D01*
X138759500Y-105053389D01*
X101727143Y-105053389D01*
X101818716Y-105000520D01*
X101930520Y-104888716D01*
X102009577Y-104751784D01*
X102050500Y-104599057D01*
X102050500Y-104440943D01*
X102009577Y-104288216D01*
X101996989Y-104266412D01*
X101930524Y-104151290D01*
X101930518Y-104151282D01*
X101886819Y-104107583D01*
X101853334Y-104046260D01*
X101850500Y-104019902D01*
X101850500Y-103065697D01*
X105413750Y-103065697D01*
X105413750Y-103301802D01*
X105450684Y-103534997D01*
X105523647Y-103759552D01*
X105630837Y-103969924D01*
X105691088Y-104052854D01*
X105691090Y-104052855D01*
X106389962Y-103353983D01*
X106401232Y-103396042D01*
X106473640Y-103521458D01*
X106576042Y-103623860D01*
X106701458Y-103696268D01*
X106743515Y-103707537D01*
X106044643Y-104406408D01*
X106127578Y-104466664D01*
X106337947Y-104573852D01*
X106562502Y-104646815D01*
X106562501Y-104646815D01*
X106795698Y-104683750D01*
X107031802Y-104683750D01*
X107264997Y-104646815D01*
X107489552Y-104573852D01*
X107699913Y-104466668D01*
X107699919Y-104466664D01*
X107782854Y-104406408D01*
X107782855Y-104406408D01*
X107083983Y-103707537D01*
X107126042Y-103696268D01*
X107251458Y-103623860D01*
X107353860Y-103521458D01*
X107426268Y-103396042D01*
X107437537Y-103353984D01*
X108136408Y-104052855D01*
X108136408Y-104052854D01*
X108196664Y-103969919D01*
X108196668Y-103969913D01*
X108303852Y-103759552D01*
X108376815Y-103534997D01*
X108413750Y-103301802D01*
X108413750Y-103081398D01*
X110113250Y-103081398D01*
X110113250Y-103286102D01*
X110115737Y-103301802D01*
X110145272Y-103488284D01*
X110208531Y-103682973D01*
X110257931Y-103779924D01*
X110300297Y-103863072D01*
X110301465Y-103865363D01*
X110421778Y-104030963D01*
X110566536Y-104175721D01*
X110721366Y-104288209D01*
X110732140Y-104296037D01*
X110848357Y-104355253D01*
X110914526Y-104388968D01*
X110914528Y-104388968D01*
X110914531Y-104388970D01*
X110968200Y-104406408D01*
X111109215Y-104452227D01*
X111200366Y-104466664D01*
X111311398Y-104484250D01*
X111311399Y-104484250D01*
X111516101Y-104484250D01*
X111516102Y-104484250D01*
X111718284Y-104452227D01*
X111912969Y-104388970D01*
X112095360Y-104296037D01*
X112204961Y-104216408D01*
X112260963Y-104175721D01*
X112260965Y-104175718D01*
X112260969Y-104175716D01*
X112405716Y-104030969D01*
X112405718Y-104030965D01*
X112405721Y-104030963D01*
X112503203Y-103896788D01*
X112526037Y-103865360D01*
X112618970Y-103682969D01*
X112682227Y-103488284D01*
X112714250Y-103286102D01*
X112714250Y-103081398D01*
X112706967Y-103035413D01*
X112683972Y-102890231D01*
X112683971Y-102890227D01*
X112682226Y-102879215D01*
X112681083Y-102875697D01*
X119873750Y-102875697D01*
X119873750Y-103111802D01*
X119910684Y-103344997D01*
X119983647Y-103569552D01*
X120090837Y-103779924D01*
X120151088Y-103862854D01*
X120151090Y-103862855D01*
X120849962Y-103163983D01*
X120861232Y-103206042D01*
X120933640Y-103331458D01*
X121036042Y-103433860D01*
X121161458Y-103506268D01*
X121203515Y-103517537D01*
X120504643Y-104216408D01*
X120587578Y-104276664D01*
X120797947Y-104383852D01*
X121022502Y-104456815D01*
X121022501Y-104456815D01*
X121255698Y-104493750D01*
X121491802Y-104493750D01*
X121724997Y-104456815D01*
X121949552Y-104383852D01*
X122159913Y-104276668D01*
X122159919Y-104276664D01*
X122242854Y-104216408D01*
X122242855Y-104216408D01*
X121543983Y-103517537D01*
X121586042Y-103506268D01*
X121711458Y-103433860D01*
X121813860Y-103331458D01*
X121886268Y-103206042D01*
X121897537Y-103163983D01*
X122596408Y-103862855D01*
X122596408Y-103862854D01*
X122656664Y-103779919D01*
X122656668Y-103779913D01*
X122763852Y-103569552D01*
X122836815Y-103344997D01*
X122873750Y-103111802D01*
X122873750Y-102891398D01*
X124573250Y-102891398D01*
X124573250Y-103096101D01*
X124605272Y-103298284D01*
X124668531Y-103492973D01*
X124711703Y-103577701D01*
X124742818Y-103638768D01*
X124761465Y-103675363D01*
X124881778Y-103840963D01*
X125026536Y-103985721D01*
X125158323Y-104081468D01*
X125192140Y-104106037D01*
X125280954Y-104151290D01*
X125374526Y-104198968D01*
X125374528Y-104198968D01*
X125374531Y-104198970D01*
X125428200Y-104216408D01*
X125569215Y-104262227D01*
X125660366Y-104276664D01*
X125771398Y-104294250D01*
X125771399Y-104294250D01*
X125976101Y-104294250D01*
X125976102Y-104294250D01*
X126178284Y-104262227D01*
X126372969Y-104198970D01*
X126373366Y-104198768D01*
X126377577Y-104196622D01*
X126555360Y-104106037D01*
X126696888Y-104003212D01*
X126720963Y-103985721D01*
X126720965Y-103985718D01*
X126720969Y-103985716D01*
X126865716Y-103840969D01*
X126865718Y-103840965D01*
X126865721Y-103840963D01*
X126938648Y-103740586D01*
X126986037Y-103675360D01*
X127078970Y-103492969D01*
X127142227Y-103298284D01*
X127174250Y-103096102D01*
X127174250Y-102891398D01*
X127142227Y-102689216D01*
X127126299Y-102640196D01*
X127078968Y-102494526D01*
X127029570Y-102397578D01*
X126986037Y-102312140D01*
X126977309Y-102300127D01*
X126865721Y-102146536D01*
X126720963Y-102001778D01*
X126555363Y-101881465D01*
X126555362Y-101881464D01*
X126555360Y-101881463D01*
X126498403Y-101852441D01*
X126372973Y-101788531D01*
X126178284Y-101725272D01*
X126003745Y-101697628D01*
X125976102Y-101693250D01*
X125771398Y-101693250D01*
X125747079Y-101697101D01*
X125569215Y-101725272D01*
X125374526Y-101788531D01*
X125192136Y-101881465D01*
X125026536Y-102001778D01*
X124881778Y-102146536D01*
X124761465Y-102312136D01*
X124668531Y-102494526D01*
X124605272Y-102689215D01*
X124573250Y-102891398D01*
X122873750Y-102891398D01*
X122873750Y-102875697D01*
X122836815Y-102642502D01*
X122763852Y-102417947D01*
X122656664Y-102207578D01*
X122596408Y-102124644D01*
X122596408Y-102124643D01*
X121897537Y-102823515D01*
X121886268Y-102781458D01*
X121813860Y-102656042D01*
X121711458Y-102553640D01*
X121586042Y-102481232D01*
X121543984Y-102469962D01*
X122242855Y-101771090D01*
X122242854Y-101771088D01*
X122159924Y-101710837D01*
X121949552Y-101603647D01*
X121724997Y-101530684D01*
X121724998Y-101530684D01*
X121491802Y-101493750D01*
X121255698Y-101493750D01*
X121022502Y-101530684D01*
X120797947Y-101603647D01*
X120587580Y-101710834D01*
X120504644Y-101771090D01*
X121203516Y-102469962D01*
X121161458Y-102481232D01*
X121036042Y-102553640D01*
X120933640Y-102656042D01*
X120861232Y-102781458D01*
X120849962Y-102823516D01*
X120151090Y-102124644D01*
X120090834Y-102207580D01*
X119983647Y-102417947D01*
X119910684Y-102642502D01*
X119873750Y-102875697D01*
X112681083Y-102875697D01*
X112666299Y-102830196D01*
X112638176Y-102743640D01*
X112618970Y-102684531D01*
X112618968Y-102684528D01*
X112618968Y-102684526D01*
X112579948Y-102607947D01*
X112526037Y-102502140D01*
X112464868Y-102417947D01*
X112405721Y-102336536D01*
X112260963Y-102191778D01*
X112095363Y-102071465D01*
X112095362Y-102071464D01*
X112095360Y-102071463D01*
X112015001Y-102030518D01*
X111912973Y-101978531D01*
X111782937Y-101936280D01*
X111718284Y-101915272D01*
X111543745Y-101887628D01*
X111516102Y-101883250D01*
X111311398Y-101883250D01*
X111287079Y-101887101D01*
X111109215Y-101915272D01*
X110914526Y-101978531D01*
X110732136Y-102071465D01*
X110566536Y-102191778D01*
X110421778Y-102336536D01*
X110301465Y-102502136D01*
X110208531Y-102684526D01*
X110145272Y-102879215D01*
X110115737Y-103065697D01*
X110113250Y-103081398D01*
X108413750Y-103081398D01*
X108413750Y-103065697D01*
X108376815Y-102832502D01*
X108303852Y-102607947D01*
X108196664Y-102397578D01*
X108136408Y-102314644D01*
X108136408Y-102314643D01*
X107437537Y-103013515D01*
X107426268Y-102971458D01*
X107353860Y-102846042D01*
X107251458Y-102743640D01*
X107126042Y-102671232D01*
X107083984Y-102659962D01*
X107782855Y-101961090D01*
X107782854Y-101961088D01*
X107699924Y-101900837D01*
X107489552Y-101793647D01*
X107264997Y-101720684D01*
X107264998Y-101720684D01*
X107031802Y-101683750D01*
X106795698Y-101683750D01*
X106562502Y-101720684D01*
X106337947Y-101793647D01*
X106127580Y-101900834D01*
X106044644Y-101961090D01*
X106743516Y-102659962D01*
X106701458Y-102671232D01*
X106576042Y-102743640D01*
X106473640Y-102846042D01*
X106401232Y-102971458D01*
X106389962Y-103013516D01*
X105691090Y-102314644D01*
X105630834Y-102397580D01*
X105523647Y-102607947D01*
X105450684Y-102832502D01*
X105413750Y-103065697D01*
X101850500Y-103065697D01*
X101850500Y-99840943D01*
X150959500Y-99840943D01*
X150959500Y-99999056D01*
X151000423Y-100151783D01*
X151000426Y-100151790D01*
X151079475Y-100288709D01*
X151079481Y-100288717D01*
X151123181Y-100332417D01*
X151156666Y-100393740D01*
X151159500Y-100420098D01*
X151159500Y-101049902D01*
X151139815Y-101116941D01*
X151123181Y-101137583D01*
X151079481Y-101181282D01*
X151079475Y-101181290D01*
X151000426Y-101318209D01*
X151000423Y-101318216D01*
X150959500Y-101470943D01*
X150959500Y-101629057D01*
X150984052Y-101720684D01*
X151000423Y-101781783D01*
X151000426Y-101781790D01*
X151079475Y-101918709D01*
X151079479Y-101918714D01*
X151079480Y-101918716D01*
X151191284Y-102030520D01*
X151191286Y-102030521D01*
X151191290Y-102030524D01*
X151262200Y-102071463D01*
X151328216Y-102109577D01*
X151480943Y-102150500D01*
X151480945Y-102150500D01*
X151639055Y-102150500D01*
X151639057Y-102150500D01*
X151791784Y-102109577D01*
X151928716Y-102030520D01*
X152040520Y-101918716D01*
X152119577Y-101781784D01*
X152160500Y-101629057D01*
X152160500Y-101470943D01*
X152119577Y-101318216D01*
X152119573Y-101318209D01*
X152040524Y-101181290D01*
X152040518Y-101181282D01*
X151996819Y-101137583D01*
X151963334Y-101076260D01*
X151960500Y-101049902D01*
X151960500Y-100693389D01*
X153214500Y-100693389D01*
X153214500Y-100866611D01*
X153241598Y-101037701D01*
X153295127Y-101202445D01*
X153373768Y-101356788D01*
X153475586Y-101496928D01*
X153598072Y-101619414D01*
X153738212Y-101721232D01*
X153892555Y-101799873D01*
X154057299Y-101853402D01*
X154228389Y-101880500D01*
X154228390Y-101880500D01*
X154401610Y-101880500D01*
X154401611Y-101880500D01*
X154572701Y-101853402D01*
X154737445Y-101799873D01*
X154891788Y-101721232D01*
X155031928Y-101619414D01*
X155154414Y-101496928D01*
X155256232Y-101356788D01*
X155334873Y-101202445D01*
X155388402Y-101037701D01*
X155415500Y-100866611D01*
X155415500Y-100693389D01*
X155388402Y-100522299D01*
X155334873Y-100357555D01*
X155256232Y-100203212D01*
X155154414Y-100063072D01*
X155031928Y-99940586D01*
X154891788Y-99838768D01*
X154737445Y-99760127D01*
X154572701Y-99706598D01*
X154572699Y-99706597D01*
X154572698Y-99706597D01*
X154441271Y-99685781D01*
X154401611Y-99679500D01*
X154228389Y-99679500D01*
X154188728Y-99685781D01*
X154057302Y-99706597D01*
X153892552Y-99760128D01*
X153738211Y-99838768D01*
X153658256Y-99896859D01*
X153598072Y-99940586D01*
X153598070Y-99940588D01*
X153598069Y-99940588D01*
X153475588Y-100063069D01*
X153475588Y-100063070D01*
X153475586Y-100063072D01*
X153431859Y-100123256D01*
X153373768Y-100203211D01*
X153295128Y-100357552D01*
X153241597Y-100522302D01*
X153214500Y-100693389D01*
X151960500Y-100693389D01*
X151960500Y-100420098D01*
X151980185Y-100353059D01*
X151996819Y-100332417D01*
X152040520Y-100288716D01*
X152119577Y-100151784D01*
X152160500Y-99999057D01*
X152160500Y-99840943D01*
X152119577Y-99688216D01*
X152045651Y-99560171D01*
X152040524Y-99551290D01*
X152040518Y-99551282D01*
X151928717Y-99439481D01*
X151928709Y-99439475D01*
X151791790Y-99360426D01*
X151791786Y-99360424D01*
X151791784Y-99360423D01*
X151639057Y-99319500D01*
X151480943Y-99319500D01*
X151328216Y-99360423D01*
X151328209Y-99360426D01*
X151191290Y-99439475D01*
X151191282Y-99439481D01*
X151079481Y-99551282D01*
X151079475Y-99551290D01*
X151000426Y-99688209D01*
X151000423Y-99688216D01*
X150959500Y-99840943D01*
X101850500Y-99840943D01*
X101850500Y-96850943D01*
X102609500Y-96850943D01*
X102609500Y-97009057D01*
X102650086Y-97160524D01*
X102650423Y-97161783D01*
X102650426Y-97161790D01*
X102729475Y-97298709D01*
X102729479Y-97298714D01*
X102729480Y-97298716D01*
X102841284Y-97410520D01*
X102841286Y-97410521D01*
X102841290Y-97410524D01*
X102971528Y-97485716D01*
X102978216Y-97489577D01*
X103130943Y-97530500D01*
X103130945Y-97530500D01*
X103289055Y-97530500D01*
X103289057Y-97530500D01*
X103441784Y-97489577D01*
X103512454Y-97448775D01*
X103580353Y-97432303D01*
X103636453Y-97448776D01*
X103640262Y-97450975D01*
X103777194Y-97530032D01*
X103929921Y-97570955D01*
X103929923Y-97570955D01*
X104088033Y-97570955D01*
X104088035Y-97570955D01*
X104240762Y-97530032D01*
X104377694Y-97450975D01*
X104489498Y-97339171D01*
X104568555Y-97202239D01*
X104609478Y-97049512D01*
X104609478Y-96891398D01*
X104568555Y-96738671D01*
X104489498Y-96601739D01*
X104453456Y-96565697D01*
X105413750Y-96565697D01*
X105413750Y-96801802D01*
X105450684Y-97034997D01*
X105523647Y-97259552D01*
X105630837Y-97469924D01*
X105691088Y-97552854D01*
X105691090Y-97552855D01*
X106389962Y-96853983D01*
X106401232Y-96896042D01*
X106473640Y-97021458D01*
X106576042Y-97123860D01*
X106701458Y-97196268D01*
X106743515Y-97207537D01*
X106044643Y-97906408D01*
X106127578Y-97966664D01*
X106337947Y-98073852D01*
X106562502Y-98146815D01*
X106562501Y-98146815D01*
X106795698Y-98183750D01*
X107031802Y-98183750D01*
X107264997Y-98146815D01*
X107489552Y-98073852D01*
X107529713Y-98053389D01*
X138759500Y-98053389D01*
X138759500Y-98226611D01*
X138786598Y-98397701D01*
X138834269Y-98544417D01*
X138840128Y-98562447D01*
X138918768Y-98716788D01*
X139020586Y-98856928D01*
X139143072Y-98979414D01*
X139283212Y-99081232D01*
X139437555Y-99159873D01*
X139602299Y-99213402D01*
X139773389Y-99240500D01*
X139773390Y-99240500D01*
X139946610Y-99240500D01*
X139946611Y-99240500D01*
X140117701Y-99213402D01*
X140282445Y-99159873D01*
X140436788Y-99081232D01*
X140576928Y-98979414D01*
X140699414Y-98856928D01*
X140801232Y-98716788D01*
X140879873Y-98562445D01*
X140933402Y-98397701D01*
X140960500Y-98226611D01*
X140960500Y-98153389D01*
X153214500Y-98153389D01*
X153214500Y-98326610D01*
X153229198Y-98419414D01*
X153241598Y-98497701D01*
X153295127Y-98662445D01*
X153373768Y-98816788D01*
X153475586Y-98956928D01*
X153598072Y-99079414D01*
X153738212Y-99181232D01*
X153892555Y-99259873D01*
X154057299Y-99313402D01*
X154228389Y-99340500D01*
X154228390Y-99340500D01*
X154401610Y-99340500D01*
X154401611Y-99340500D01*
X154572701Y-99313402D01*
X154737445Y-99259873D01*
X154891788Y-99181232D01*
X155031928Y-99079414D01*
X155154414Y-98956928D01*
X155256232Y-98816788D01*
X155334873Y-98662445D01*
X155388402Y-98497701D01*
X155415500Y-98326611D01*
X155415500Y-98153389D01*
X155413012Y-98137682D01*
X160635000Y-98137682D01*
X160635000Y-98342317D01*
X160667009Y-98544417D01*
X160730244Y-98739031D01*
X160823141Y-98921350D01*
X160823147Y-98921359D01*
X160855523Y-98965921D01*
X160855524Y-98965922D01*
X161535000Y-98286446D01*
X161535000Y-98292661D01*
X161562259Y-98394394D01*
X161614920Y-98485606D01*
X161689394Y-98560080D01*
X161780606Y-98612741D01*
X161882339Y-98640000D01*
X161888553Y-98640000D01*
X161209076Y-99319474D01*
X161253650Y-99351859D01*
X161435970Y-99444755D01*
X161596613Y-99496952D01*
X161654289Y-99536390D01*
X161681487Y-99600748D01*
X161669572Y-99669595D01*
X161622328Y-99721070D01*
X161596615Y-99732814D01*
X161512549Y-99760129D01*
X161358211Y-99838768D01*
X161278256Y-99896859D01*
X161218072Y-99940586D01*
X161218070Y-99940588D01*
X161218069Y-99940588D01*
X161095588Y-100063069D01*
X161095588Y-100063070D01*
X161095586Y-100063072D01*
X161051859Y-100123256D01*
X160993768Y-100203211D01*
X160915128Y-100357552D01*
X160861597Y-100522302D01*
X160834500Y-100693389D01*
X160834500Y-100866611D01*
X160861598Y-101037701D01*
X160915127Y-101202445D01*
X160993768Y-101356788D01*
X161095586Y-101496928D01*
X161218072Y-101619414D01*
X161358212Y-101721232D01*
X161512555Y-101799873D01*
X161677299Y-101853402D01*
X161848389Y-101880500D01*
X161848390Y-101880500D01*
X162021610Y-101880500D01*
X162021611Y-101880500D01*
X162192701Y-101853402D01*
X162357445Y-101799873D01*
X162511788Y-101721232D01*
X162651928Y-101619414D01*
X162774414Y-101496928D01*
X162876232Y-101356788D01*
X162954873Y-101202445D01*
X163008402Y-101037701D01*
X163035500Y-100866611D01*
X163035500Y-100693389D01*
X163008402Y-100522299D01*
X162954873Y-100357555D01*
X162876232Y-100203212D01*
X162774414Y-100063072D01*
X162651928Y-99940586D01*
X162511788Y-99838768D01*
X162357449Y-99760128D01*
X162273385Y-99732814D01*
X162215710Y-99693376D01*
X162188512Y-99629017D01*
X162200427Y-99560171D01*
X162247672Y-99508695D01*
X162273386Y-99496952D01*
X162434029Y-99444755D01*
X162616349Y-99351859D01*
X162660921Y-99319474D01*
X161981447Y-98640000D01*
X161987661Y-98640000D01*
X162089394Y-98612741D01*
X162180606Y-98560080D01*
X162255080Y-98485606D01*
X162307741Y-98394394D01*
X162335000Y-98292661D01*
X162335000Y-98286448D01*
X163014474Y-98965922D01*
X163014474Y-98965921D01*
X163046859Y-98921349D01*
X163139755Y-98739031D01*
X163202990Y-98544417D01*
X163235000Y-98342317D01*
X163235000Y-98137682D01*
X163202990Y-97935582D01*
X163139755Y-97740968D01*
X163046860Y-97558652D01*
X163014474Y-97514077D01*
X163014474Y-97514076D01*
X162335000Y-98193551D01*
X162335000Y-98187339D01*
X162307741Y-98085606D01*
X162255080Y-97994394D01*
X162180606Y-97919920D01*
X162089394Y-97867259D01*
X161987661Y-97840000D01*
X161981446Y-97840000D01*
X162328057Y-97493389D01*
X175609500Y-97493389D01*
X175609500Y-97666611D01*
X175614625Y-97698968D01*
X175633406Y-97817552D01*
X175636598Y-97837701D01*
X175690127Y-98002445D01*
X175768768Y-98156788D01*
X175870586Y-98296928D01*
X175993072Y-98419414D01*
X176133212Y-98521232D01*
X176287555Y-98599873D01*
X176452299Y-98653402D01*
X176623389Y-98680500D01*
X176623390Y-98680500D01*
X176796610Y-98680500D01*
X176796611Y-98680500D01*
X176967701Y-98653402D01*
X177132445Y-98599873D01*
X177286788Y-98521232D01*
X177426928Y-98419414D01*
X177549414Y-98296928D01*
X177651232Y-98156788D01*
X177729873Y-98002445D01*
X177783402Y-97837701D01*
X177810500Y-97666611D01*
X177810500Y-97493389D01*
X177783402Y-97322299D01*
X177729873Y-97157555D01*
X177651232Y-97003212D01*
X177549414Y-96863072D01*
X177426928Y-96740586D01*
X177286788Y-96638768D01*
X177132445Y-96560127D01*
X176967701Y-96506598D01*
X176967699Y-96506597D01*
X176967698Y-96506597D01*
X176807748Y-96481264D01*
X176796611Y-96479500D01*
X176623389Y-96479500D01*
X176612252Y-96481264D01*
X176452302Y-96506597D01*
X176287552Y-96560128D01*
X176133211Y-96638768D01*
X176074337Y-96681543D01*
X175993072Y-96740586D01*
X175993070Y-96740588D01*
X175993069Y-96740588D01*
X175870588Y-96863069D01*
X175870588Y-96863070D01*
X175870586Y-96863072D01*
X175846632Y-96896042D01*
X175768768Y-97003211D01*
X175690128Y-97157552D01*
X175690127Y-97157554D01*
X175690127Y-97157555D01*
X175675608Y-97202239D01*
X175636597Y-97322302D01*
X175620637Y-97423070D01*
X175609500Y-97493389D01*
X162328057Y-97493389D01*
X162660922Y-97160524D01*
X162660921Y-97160523D01*
X162616359Y-97128147D01*
X162616350Y-97128141D01*
X162434031Y-97035244D01*
X162239417Y-96972009D01*
X162037317Y-96940000D01*
X161832683Y-96940000D01*
X161630582Y-96972009D01*
X161435968Y-97035244D01*
X161253644Y-97128143D01*
X161209077Y-97160523D01*
X161209077Y-97160524D01*
X161888554Y-97840000D01*
X161882339Y-97840000D01*
X161780606Y-97867259D01*
X161689394Y-97919920D01*
X161614920Y-97994394D01*
X161562259Y-98085606D01*
X161535000Y-98187339D01*
X161535000Y-98193553D01*
X160855524Y-97514077D01*
X160855523Y-97514077D01*
X160823143Y-97558644D01*
X160730244Y-97740968D01*
X160667009Y-97935582D01*
X160635000Y-98137682D01*
X155413012Y-98137682D01*
X155388402Y-97982299D01*
X155334873Y-97817555D01*
X155256232Y-97663212D01*
X155154414Y-97523072D01*
X155031928Y-97400586D01*
X154894293Y-97300588D01*
X154891787Y-97298767D01*
X154737447Y-97220128D01*
X154737446Y-97220127D01*
X154737445Y-97220127D01*
X154572701Y-97166598D01*
X154572699Y-97166597D01*
X154572698Y-97166597D01*
X154441271Y-97145781D01*
X154401611Y-97139500D01*
X154228389Y-97139500D01*
X154188728Y-97145781D01*
X154057302Y-97166597D01*
X153892552Y-97220128D01*
X153738211Y-97298768D01*
X153680127Y-97340969D01*
X153598072Y-97400586D01*
X153598070Y-97400588D01*
X153598069Y-97400588D01*
X153475588Y-97523069D01*
X153475588Y-97523070D01*
X153475586Y-97523072D01*
X153440798Y-97570954D01*
X153373768Y-97663211D01*
X153295128Y-97817552D01*
X153241597Y-97982302D01*
X153214500Y-98153389D01*
X140960500Y-98153389D01*
X140960500Y-98053389D01*
X140933402Y-97882299D01*
X140879873Y-97717555D01*
X140801232Y-97563212D01*
X140699414Y-97423072D01*
X140576928Y-97300586D01*
X140436788Y-97198768D01*
X140298177Y-97128143D01*
X140282447Y-97120128D01*
X140282446Y-97120127D01*
X140282445Y-97120127D01*
X140117701Y-97066598D01*
X140117699Y-97066597D01*
X140117698Y-97066597D01*
X139973444Y-97043750D01*
X139946611Y-97039500D01*
X139773389Y-97039500D01*
X139746556Y-97043750D01*
X139602302Y-97066597D01*
X139437552Y-97120128D01*
X139283211Y-97198768D01*
X139203256Y-97256859D01*
X139143072Y-97300586D01*
X139143070Y-97300588D01*
X139143069Y-97300588D01*
X139020588Y-97423069D01*
X139020588Y-97423070D01*
X139020586Y-97423072D01*
X138986554Y-97469913D01*
X138918768Y-97563211D01*
X138840128Y-97717552D01*
X138786597Y-97882302D01*
X138768946Y-97993750D01*
X138759500Y-98053389D01*
X107529713Y-98053389D01*
X107699913Y-97966668D01*
X107699919Y-97966664D01*
X107782854Y-97906408D01*
X107782855Y-97906408D01*
X107083983Y-97207537D01*
X107126042Y-97196268D01*
X107251458Y-97123860D01*
X107353860Y-97021458D01*
X107426268Y-96896042D01*
X107437537Y-96853984D01*
X108136408Y-97552855D01*
X108136408Y-97552854D01*
X108196664Y-97469919D01*
X108196668Y-97469913D01*
X108303852Y-97259552D01*
X108376815Y-97034997D01*
X108413750Y-96801802D01*
X108413750Y-96581398D01*
X110113250Y-96581398D01*
X110113250Y-96786102D01*
X110115737Y-96801802D01*
X110145272Y-96988284D01*
X110208531Y-97182973D01*
X110267506Y-97298716D01*
X110300186Y-97362854D01*
X110301465Y-97365363D01*
X110421778Y-97530963D01*
X110566536Y-97675721D01*
X110721499Y-97788306D01*
X110732140Y-97796037D01*
X110848357Y-97855253D01*
X110914526Y-97888968D01*
X110914528Y-97888968D01*
X110914531Y-97888970D01*
X110968200Y-97906408D01*
X111109215Y-97952227D01*
X111200366Y-97966664D01*
X111311398Y-97984250D01*
X111311399Y-97984250D01*
X111516101Y-97984250D01*
X111516102Y-97984250D01*
X111718284Y-97952227D01*
X111912969Y-97888970D01*
X112095360Y-97796037D01*
X112215080Y-97709056D01*
X112260963Y-97675721D01*
X112260965Y-97675718D01*
X112260969Y-97675716D01*
X112405716Y-97530969D01*
X112405718Y-97530965D01*
X112405721Y-97530963D01*
X112484107Y-97423072D01*
X112526037Y-97365360D01*
X112618970Y-97182969D01*
X112682227Y-96988284D01*
X112714250Y-96786102D01*
X112714250Y-96581398D01*
X112702403Y-96506598D01*
X112683972Y-96390231D01*
X112683971Y-96390227D01*
X112682226Y-96379215D01*
X112682062Y-96378709D01*
X112681083Y-96375697D01*
X119873750Y-96375697D01*
X119873750Y-96611802D01*
X119910684Y-96844997D01*
X119983647Y-97069552D01*
X120090837Y-97279924D01*
X120151088Y-97362854D01*
X120151090Y-97362855D01*
X120849962Y-96663983D01*
X120861232Y-96706042D01*
X120933640Y-96831458D01*
X121036042Y-96933860D01*
X121161458Y-97006268D01*
X121203515Y-97017537D01*
X120504643Y-97716408D01*
X120587578Y-97776664D01*
X120797947Y-97883852D01*
X121022502Y-97956815D01*
X121022501Y-97956815D01*
X121255698Y-97993750D01*
X121491802Y-97993750D01*
X121724997Y-97956815D01*
X121805724Y-97930586D01*
X121949552Y-97883852D01*
X122159913Y-97776668D01*
X122159919Y-97776664D01*
X122242854Y-97716408D01*
X122242855Y-97716408D01*
X121543983Y-97017537D01*
X121586042Y-97006268D01*
X121711458Y-96933860D01*
X121813860Y-96831458D01*
X121886268Y-96706042D01*
X121897537Y-96663983D01*
X122596408Y-97362855D01*
X122596408Y-97362854D01*
X122656664Y-97279919D01*
X122656668Y-97279913D01*
X122763852Y-97069552D01*
X122836815Y-96844997D01*
X122873750Y-96611802D01*
X122873750Y-96391398D01*
X124573250Y-96391398D01*
X124573250Y-96596102D01*
X124575664Y-96611341D01*
X124605272Y-96798284D01*
X124668531Y-96992973D01*
X124707996Y-97070426D01*
X124754545Y-97161783D01*
X124761465Y-97175363D01*
X124881778Y-97340963D01*
X125026536Y-97485721D01*
X125143852Y-97570954D01*
X125192140Y-97606037D01*
X125304350Y-97663211D01*
X125374526Y-97698968D01*
X125374528Y-97698968D01*
X125374531Y-97698970D01*
X125405573Y-97709056D01*
X125569215Y-97762227D01*
X125660366Y-97776664D01*
X125771398Y-97794250D01*
X125771399Y-97794250D01*
X125976101Y-97794250D01*
X125976102Y-97794250D01*
X126178284Y-97762227D01*
X126372969Y-97698970D01*
X126555360Y-97606037D01*
X126659978Y-97530028D01*
X126720963Y-97485721D01*
X126720965Y-97485718D01*
X126720969Y-97485716D01*
X126865716Y-97340969D01*
X126865718Y-97340965D01*
X126865721Y-97340963D01*
X126923610Y-97261284D01*
X126986037Y-97175360D01*
X127078970Y-96992969D01*
X127142227Y-96798284D01*
X127174250Y-96596102D01*
X127174250Y-96391398D01*
X127172320Y-96379212D01*
X127142227Y-96189215D01*
X127078968Y-95994526D01*
X126998467Y-95836536D01*
X126986037Y-95812140D01*
X126961385Y-95778209D01*
X126865721Y-95646536D01*
X126720963Y-95501778D01*
X126555363Y-95381465D01*
X126555362Y-95381464D01*
X126555360Y-95381463D01*
X126484606Y-95345412D01*
X126372973Y-95288531D01*
X126178284Y-95225272D01*
X126003745Y-95197628D01*
X125976102Y-95193250D01*
X125771398Y-95193250D01*
X125747079Y-95197101D01*
X125569215Y-95225272D01*
X125374526Y-95288531D01*
X125192136Y-95381465D01*
X125026536Y-95501778D01*
X124881778Y-95646536D01*
X124761465Y-95812136D01*
X124668531Y-95994526D01*
X124605272Y-96189215D01*
X124575180Y-96379212D01*
X124573250Y-96391398D01*
X122873750Y-96391398D01*
X122873750Y-96375697D01*
X122836815Y-96142502D01*
X122763852Y-95917947D01*
X122656664Y-95707578D01*
X122596408Y-95624644D01*
X122596408Y-95624643D01*
X121897537Y-96323515D01*
X121886268Y-96281458D01*
X121813860Y-96156042D01*
X121711458Y-96053640D01*
X121586042Y-95981232D01*
X121543984Y-95969962D01*
X122242855Y-95271090D01*
X122242854Y-95271088D01*
X122159924Y-95210837D01*
X121949552Y-95103647D01*
X121724997Y-95030684D01*
X121724998Y-95030684D01*
X121491802Y-94993750D01*
X121255698Y-94993750D01*
X121022502Y-95030684D01*
X120797947Y-95103647D01*
X120587580Y-95210834D01*
X120504644Y-95271090D01*
X121203516Y-95969962D01*
X121161458Y-95981232D01*
X121036042Y-96053640D01*
X120933640Y-96156042D01*
X120861232Y-96281458D01*
X120849962Y-96323516D01*
X120151090Y-95624644D01*
X120090834Y-95707580D01*
X119983647Y-95917947D01*
X119910684Y-96142502D01*
X119873750Y-96375697D01*
X112681083Y-96375697D01*
X112638176Y-96243640D01*
X112618970Y-96184531D01*
X112618968Y-96184528D01*
X112618968Y-96184526D01*
X112570323Y-96089056D01*
X112526037Y-96002140D01*
X112464868Y-95917947D01*
X112405721Y-95836536D01*
X112260963Y-95691778D01*
X112095363Y-95571465D01*
X112095362Y-95571464D01*
X112095360Y-95571463D01*
X112013427Y-95529716D01*
X111912969Y-95478529D01*
X111899930Y-95474293D01*
X111879530Y-95460343D01*
X111857047Y-95450076D01*
X111851192Y-95440966D01*
X111842255Y-95434855D01*
X111832634Y-95412089D01*
X111819273Y-95391298D01*
X111816913Y-95374886D01*
X111815058Y-95370496D01*
X111814250Y-95356363D01*
X111814250Y-93601025D01*
X111814250Y-93601023D01*
X111786957Y-93499163D01*
X111734230Y-93407837D01*
X111711844Y-93385451D01*
X111678359Y-93324128D01*
X111675525Y-93297770D01*
X111675525Y-93235970D01*
X111675525Y-93235968D01*
X111634602Y-93083241D01*
X111568186Y-92968204D01*
X111555549Y-92946315D01*
X111555543Y-92946307D01*
X111443742Y-92834506D01*
X111443734Y-92834500D01*
X111306815Y-92755451D01*
X111306811Y-92755449D01*
X111306809Y-92755448D01*
X111154082Y-92714525D01*
X110995968Y-92714525D01*
X110843241Y-92755448D01*
X110843234Y-92755451D01*
X110706315Y-92834500D01*
X110706307Y-92834506D01*
X110594506Y-92946307D01*
X110594500Y-92946315D01*
X110515451Y-93083234D01*
X110515448Y-93083241D01*
X110474525Y-93235968D01*
X110474525Y-93394082D01*
X110509864Y-93525967D01*
X110515448Y-93546808D01*
X110515451Y-93546815D01*
X110594500Y-93683734D01*
X110594504Y-93683739D01*
X110594505Y-93683741D01*
X110706309Y-93795545D01*
X110706311Y-93795546D01*
X110706315Y-93795549D01*
X110843234Y-93874598D01*
X110843241Y-93874602D01*
X110921345Y-93895529D01*
X110981003Y-93931892D01*
X111011533Y-93994739D01*
X111013250Y-94015303D01*
X111013250Y-95356363D01*
X110993565Y-95423402D01*
X110940761Y-95469157D01*
X110927570Y-95474293D01*
X110914530Y-95478529D01*
X110732136Y-95571465D01*
X110566536Y-95691778D01*
X110421778Y-95836536D01*
X110301465Y-96002136D01*
X110208531Y-96184526D01*
X110145272Y-96379215D01*
X110125097Y-96506598D01*
X110113250Y-96581398D01*
X108413750Y-96581398D01*
X108413750Y-96565697D01*
X108376815Y-96332502D01*
X108303852Y-96107947D01*
X108196664Y-95897578D01*
X108136408Y-95814644D01*
X108136408Y-95814643D01*
X107437537Y-96513515D01*
X107426268Y-96471458D01*
X107353860Y-96346042D01*
X107251458Y-96243640D01*
X107126042Y-96171232D01*
X107083984Y-96159962D01*
X107782855Y-95461090D01*
X107782854Y-95461088D01*
X107699924Y-95400837D01*
X107489552Y-95293647D01*
X107264997Y-95220684D01*
X107264998Y-95220684D01*
X107031802Y-95183750D01*
X106795698Y-95183750D01*
X106562502Y-95220684D01*
X106337947Y-95293647D01*
X106127580Y-95400834D01*
X106044644Y-95461090D01*
X106743516Y-96159962D01*
X106701458Y-96171232D01*
X106576042Y-96243640D01*
X106473640Y-96346042D01*
X106401232Y-96471458D01*
X106389962Y-96513516D01*
X105691090Y-95814644D01*
X105630834Y-95897580D01*
X105523647Y-96107947D01*
X105450684Y-96332502D01*
X105413750Y-96565697D01*
X104453456Y-96565697D01*
X104433277Y-96545518D01*
X104430034Y-96541704D01*
X104417773Y-96514181D01*
X104403334Y-96487737D01*
X104402487Y-96479866D01*
X104401603Y-96477880D01*
X104401997Y-96475306D01*
X104400500Y-96461379D01*
X104400500Y-96058555D01*
X104420185Y-95991516D01*
X104436819Y-95970874D01*
X106881726Y-93525967D01*
X106943049Y-93492482D01*
X106969407Y-93489648D01*
X107031207Y-93489648D01*
X107031209Y-93489648D01*
X107183936Y-93448725D01*
X107320868Y-93369668D01*
X107432672Y-93257864D01*
X107511729Y-93120932D01*
X107552652Y-92968205D01*
X107552652Y-92810091D01*
X107511729Y-92657364D01*
X107511725Y-92657357D01*
X107432676Y-92520438D01*
X107432670Y-92520430D01*
X107320869Y-92408629D01*
X107320861Y-92408623D01*
X107183942Y-92329574D01*
X107183937Y-92329571D01*
X107056613Y-92295455D01*
X106996953Y-92259090D01*
X106968933Y-92207775D01*
X106939577Y-92098216D01*
X106939573Y-92098209D01*
X106860524Y-91961290D01*
X106860518Y-91961282D01*
X106748717Y-91849481D01*
X106748709Y-91849475D01*
X106611790Y-91770426D01*
X106611786Y-91770424D01*
X106611784Y-91770423D01*
X106459057Y-91729500D01*
X106300943Y-91729500D01*
X106148216Y-91770423D01*
X106148209Y-91770426D01*
X106011290Y-91849475D01*
X106011282Y-91849481D01*
X105899481Y-91961282D01*
X105899475Y-91961290D01*
X105820426Y-92098209D01*
X105820423Y-92098216D01*
X105779500Y-92250943D01*
X105779500Y-92312745D01*
X105759815Y-92379784D01*
X105743181Y-92400426D01*
X102889522Y-95254084D01*
X102889518Y-95254090D01*
X102836792Y-95345413D01*
X102836791Y-95345413D01*
X102826655Y-95383248D01*
X102826655Y-95383249D01*
X102809500Y-95447273D01*
X102809500Y-96429902D01*
X102789815Y-96496941D01*
X102773181Y-96517583D01*
X102729481Y-96561282D01*
X102729475Y-96561290D01*
X102650426Y-96698209D01*
X102650423Y-96698216D01*
X102609500Y-96850943D01*
X101850500Y-96850943D01*
X101850500Y-90964500D01*
X101870185Y-90897461D01*
X101922989Y-90851706D01*
X101974500Y-90840500D01*
X115149902Y-90840500D01*
X115216941Y-90860185D01*
X115237583Y-90876819D01*
X115241284Y-90880520D01*
X115241286Y-90880521D01*
X115241290Y-90880524D01*
X115298823Y-90913740D01*
X115378216Y-90959577D01*
X115530943Y-91000500D01*
X115530945Y-91000500D01*
X115689055Y-91000500D01*
X115689057Y-91000500D01*
X115841784Y-90959577D01*
X115978716Y-90880520D01*
X116090520Y-90768716D01*
X116169577Y-90631784D01*
X116210500Y-90479057D01*
X116210500Y-90320943D01*
X116169577Y-90168216D01*
X116164348Y-90159159D01*
X116090524Y-90031290D01*
X116090518Y-90031282D01*
X115978717Y-89919481D01*
X115978709Y-89919475D01*
X115841790Y-89840426D01*
X115841786Y-89840424D01*
X115841784Y-89840423D01*
X115689057Y-89799500D01*
X115530943Y-89799500D01*
X115378216Y-89840423D01*
X115378209Y-89840426D01*
X115241290Y-89919475D01*
X115241282Y-89919481D01*
X115157583Y-90003181D01*
X115096260Y-90036666D01*
X115069902Y-90039500D01*
X110744500Y-90039500D01*
X110677461Y-90019815D01*
X110631706Y-89967011D01*
X110620500Y-89915500D01*
X110620500Y-89760945D01*
X110620500Y-89760943D01*
X110579577Y-89608216D01*
X110528369Y-89519520D01*
X110500524Y-89471290D01*
X110500518Y-89471282D01*
X110388717Y-89359481D01*
X110388709Y-89359475D01*
X110251790Y-89280426D01*
X110251786Y-89280424D01*
X110251784Y-89280423D01*
X110099057Y-89239500D01*
X109940943Y-89239500D01*
X109788216Y-89280423D01*
X109788209Y-89280426D01*
X109651290Y-89359475D01*
X109651282Y-89359481D01*
X109607583Y-89403181D01*
X109546260Y-89436666D01*
X109519902Y-89439500D01*
X99000339Y-89439500D01*
X99000323Y-89439499D01*
X98992727Y-89439499D01*
X98887273Y-89439499D01*
X98819366Y-89457695D01*
X98785412Y-89466793D01*
X98694084Y-89519522D01*
X98429522Y-89784084D01*
X98429520Y-89784087D01*
X98376793Y-89875412D01*
X98359831Y-89938716D01*
X98359831Y-89938717D01*
X98359830Y-89938716D01*
X98349500Y-89977269D01*
X98349500Y-94660902D01*
X98329815Y-94727941D01*
X98313181Y-94748583D01*
X98269481Y-94792282D01*
X98269475Y-94792290D01*
X98190426Y-94929209D01*
X98190423Y-94929216D01*
X98149500Y-95081943D01*
X92461500Y-95081943D01*
X92461500Y-90226198D01*
X92470144Y-90196757D01*
X92476668Y-90166771D01*
X92480422Y-90161755D01*
X92481185Y-90159159D01*
X92497819Y-90138517D01*
X92629517Y-90006819D01*
X92690840Y-89973334D01*
X92717198Y-89970500D01*
X93789902Y-89970500D01*
X93856941Y-89990185D01*
X93877583Y-90006819D01*
X93921284Y-90050520D01*
X93921286Y-90050521D01*
X93921290Y-90050524D01*
X94058209Y-90129573D01*
X94058216Y-90129577D01*
X94210943Y-90170500D01*
X94210945Y-90170500D01*
X94369055Y-90170500D01*
X94369057Y-90170500D01*
X94521784Y-90129577D01*
X94658716Y-90050520D01*
X94770520Y-89938716D01*
X94849577Y-89801784D01*
X94890500Y-89649057D01*
X94890500Y-89490943D01*
X94849577Y-89338216D01*
X94792385Y-89239155D01*
X94770524Y-89201290D01*
X94770518Y-89201282D01*
X94658717Y-89089481D01*
X94658709Y-89089475D01*
X94521790Y-89010426D01*
X94521786Y-89010424D01*
X94521784Y-89010423D01*
X94369057Y-88969500D01*
X94210943Y-88969500D01*
X94058216Y-89010423D01*
X94058209Y-89010426D01*
X93921290Y-89089475D01*
X93921282Y-89089481D01*
X93877583Y-89133181D01*
X93816260Y-89166666D01*
X93789902Y-89169500D01*
X92447216Y-89169500D01*
X92345352Y-89196793D01*
X92300509Y-89222684D01*
X92232609Y-89239155D01*
X92166582Y-89216303D01*
X92146435Y-89196862D01*
X92146267Y-89197031D01*
X92028717Y-89079481D01*
X92028709Y-89079475D01*
X91891790Y-89000426D01*
X91891786Y-89000424D01*
X91891784Y-89000423D01*
X91739057Y-88959500D01*
X91580943Y-88959500D01*
X91428216Y-89000423D01*
X91428214Y-89000423D01*
X91420365Y-89002527D01*
X91419739Y-89000190D01*
X91362472Y-89006342D01*
X91299996Y-88975061D01*
X91264349Y-88914969D01*
X91260500Y-88884314D01*
X91260500Y-88620098D01*
X91280185Y-88553059D01*
X91296819Y-88532417D01*
X91340520Y-88488716D01*
X91419577Y-88351784D01*
X91460500Y-88199057D01*
X91460500Y-88040943D01*
X91419577Y-87888216D01*
X91419573Y-87888209D01*
X91340524Y-87751290D01*
X91340518Y-87751282D01*
X91228717Y-87639481D01*
X91228709Y-87639475D01*
X91091790Y-87560426D01*
X91091786Y-87560424D01*
X91091784Y-87560423D01*
X90939057Y-87519500D01*
X90780943Y-87519500D01*
X90628216Y-87560423D01*
X90628209Y-87560426D01*
X90491290Y-87639475D01*
X90491282Y-87639481D01*
X90379481Y-87751282D01*
X90379475Y-87751290D01*
X90300426Y-87888209D01*
X90300423Y-87888216D01*
X90259500Y-88040943D01*
X90259500Y-88199056D01*
X90300423Y-88351783D01*
X90300426Y-88351790D01*
X90379475Y-88488709D01*
X90379481Y-88488717D01*
X90423181Y-88532417D01*
X90456666Y-88593740D01*
X90459500Y-88620098D01*
X90459500Y-95499902D01*
X90439815Y-95566941D01*
X90423181Y-95587583D01*
X90369481Y-95641282D01*
X90369475Y-95641290D01*
X90290426Y-95778209D01*
X90290423Y-95778216D01*
X90249500Y-95930943D01*
X85503750Y-95930943D01*
X85503750Y-73550943D01*
X104209500Y-73550943D01*
X104209500Y-73709057D01*
X104243292Y-73835168D01*
X104250423Y-73861783D01*
X104250426Y-73861790D01*
X104329475Y-73998709D01*
X104329479Y-73998714D01*
X104329480Y-73998716D01*
X104441284Y-74110520D01*
X104441286Y-74110521D01*
X104441290Y-74110524D01*
X104476637Y-74130931D01*
X104578216Y-74189577D01*
X104730943Y-74230500D01*
X104730945Y-74230500D01*
X104889055Y-74230500D01*
X104889057Y-74230500D01*
X105041784Y-74189577D01*
X105178716Y-74110520D01*
X105290520Y-73998716D01*
X105369577Y-73861784D01*
X105410500Y-73709057D01*
X105410500Y-73647255D01*
X105430185Y-73580216D01*
X105446819Y-73559574D01*
X114399574Y-64606819D01*
X114460897Y-64573334D01*
X114487255Y-64570500D01*
X114539055Y-64570500D01*
X114539057Y-64570500D01*
X114691784Y-64529577D01*
X114828716Y-64450520D01*
X114940520Y-64338716D01*
X115019577Y-64201784D01*
X115060500Y-64049057D01*
X115060500Y-63890943D01*
X115019577Y-63738216D01*
X115019573Y-63738209D01*
X114940524Y-63601290D01*
X114940518Y-63601282D01*
X114828717Y-63489481D01*
X114828709Y-63489475D01*
X114691790Y-63410426D01*
X114691786Y-63410424D01*
X114691784Y-63410423D01*
X114539057Y-63369500D01*
X114380943Y-63369500D01*
X114228216Y-63410423D01*
X114228209Y-63410426D01*
X114091290Y-63489475D01*
X114091282Y-63489481D01*
X113979481Y-63601282D01*
X113979475Y-63601290D01*
X113900426Y-63738209D01*
X113900423Y-63738216D01*
X113859500Y-63890943D01*
X113859500Y-63962744D01*
X113839815Y-64029783D01*
X113823181Y-64050425D01*
X111952976Y-65920629D01*
X111891653Y-65954114D01*
X111821961Y-65949130D01*
X111766028Y-65907258D01*
X111745522Y-65865046D01*
X111719577Y-65768216D01*
X111719573Y-65768209D01*
X111640524Y-65631290D01*
X111640518Y-65631282D01*
X111528717Y-65519481D01*
X111528709Y-65519475D01*
X111391790Y-65440426D01*
X111391786Y-65440424D01*
X111391784Y-65440423D01*
X111239057Y-65399500D01*
X111080943Y-65399500D01*
X110928216Y-65440423D01*
X110928209Y-65440426D01*
X110791290Y-65519475D01*
X110791282Y-65519481D01*
X110679481Y-65631282D01*
X110679475Y-65631290D01*
X110600426Y-65768209D01*
X110600422Y-65768218D01*
X110578440Y-65850251D01*
X110570424Y-65864134D01*
X110567502Y-65877574D01*
X110546353Y-65905830D01*
X110539009Y-65913175D01*
X110477688Y-65946664D01*
X110451322Y-65949500D01*
X108767334Y-65949500D01*
X108705334Y-65932887D01*
X108684646Y-65920943D01*
X108631784Y-65890423D01*
X108479057Y-65849500D01*
X108320943Y-65849500D01*
X108168216Y-65890423D01*
X108168209Y-65890426D01*
X108031290Y-65969475D01*
X108031282Y-65969481D01*
X107919481Y-66081282D01*
X107919475Y-66081290D01*
X107840426Y-66218209D01*
X107840423Y-66218216D01*
X107799500Y-66370943D01*
X107799500Y-66529057D01*
X107815304Y-66588036D01*
X107840423Y-66681783D01*
X107840426Y-66681790D01*
X107919475Y-66818709D01*
X107919479Y-66818714D01*
X107919480Y-66818716D01*
X108031284Y-66930520D01*
X108031286Y-66930521D01*
X108031290Y-66930524D01*
X108099986Y-66970185D01*
X108168216Y-67009577D01*
X108320943Y-67050500D01*
X108320945Y-67050500D01*
X108479055Y-67050500D01*
X108479057Y-67050500D01*
X108631784Y-67009577D01*
X108705334Y-66967112D01*
X108767334Y-66950500D01*
X110623744Y-66950500D01*
X110690783Y-66970185D01*
X110736538Y-67022989D01*
X110746482Y-67092147D01*
X110717457Y-67155703D01*
X110711425Y-67162181D01*
X104880426Y-72993181D01*
X104819103Y-73026666D01*
X104792745Y-73029500D01*
X104730943Y-73029500D01*
X104578216Y-73070423D01*
X104578209Y-73070426D01*
X104441290Y-73149475D01*
X104441282Y-73149481D01*
X104329481Y-73261282D01*
X104329475Y-73261290D01*
X104250426Y-73398209D01*
X104250423Y-73398216D01*
X104209500Y-73550943D01*
X85503750Y-73550943D01*
X85503750Y-70490943D01*
X91549500Y-70490943D01*
X91549500Y-70649057D01*
X91549889Y-70650506D01*
X91590423Y-70801783D01*
X91590426Y-70801790D01*
X91669475Y-70938709D01*
X91669479Y-70938714D01*
X91669480Y-70938716D01*
X91781284Y-71050520D01*
X91781286Y-71050521D01*
X91781290Y-71050524D01*
X91869912Y-71101689D01*
X91918216Y-71129577D01*
X92070943Y-71170500D01*
X92070945Y-71170500D01*
X92229055Y-71170500D01*
X92229057Y-71170500D01*
X92381784Y-71129577D01*
X92518716Y-71050520D01*
X92630520Y-70938716D01*
X92709577Y-70801784D01*
X92750500Y-70649057D01*
X92750500Y-70490943D01*
X92709577Y-70338216D01*
X92709573Y-70338209D01*
X92630524Y-70201290D01*
X92630518Y-70201282D01*
X92589237Y-70160001D01*
X92555752Y-70098678D01*
X92560736Y-70028986D01*
X92602608Y-69973053D01*
X92668072Y-69948636D01*
X92709008Y-69952545D01*
X92724693Y-69956748D01*
X92724696Y-69956748D01*
X92882805Y-69956748D01*
X92882807Y-69956748D01*
X93035534Y-69915825D01*
X93172466Y-69836768D01*
X93216167Y-69793067D01*
X93277490Y-69759582D01*
X93303848Y-69756748D01*
X95469902Y-69756748D01*
X95536941Y-69776433D01*
X95557583Y-69793067D01*
X95601284Y-69836768D01*
X95601286Y-69836769D01*
X95601290Y-69836772D01*
X95674027Y-69878766D01*
X95738216Y-69915825D01*
X95890943Y-69956748D01*
X95890945Y-69956748D01*
X96049055Y-69956748D01*
X96049057Y-69956748D01*
X96201784Y-69915825D01*
X96338716Y-69836768D01*
X96450520Y-69724964D01*
X96529577Y-69588032D01*
X96570500Y-69435305D01*
X96570500Y-69277191D01*
X96570500Y-69274500D01*
X96590185Y-69207461D01*
X96642989Y-69161706D01*
X96694500Y-69150500D01*
X96969902Y-69150500D01*
X97036941Y-69170185D01*
X97057583Y-69186819D01*
X97101284Y-69230520D01*
X97101286Y-69230521D01*
X97101290Y-69230524D01*
X97177460Y-69274500D01*
X97238216Y-69309577D01*
X97390943Y-69350500D01*
X97390945Y-69350500D01*
X97549055Y-69350500D01*
X97549057Y-69350500D01*
X97701784Y-69309577D01*
X97838716Y-69230520D01*
X97950520Y-69118716D01*
X98029577Y-68981784D01*
X98070500Y-68829057D01*
X98070500Y-68670943D01*
X98029577Y-68518216D01*
X98029573Y-68518209D01*
X97950524Y-68381290D01*
X97950518Y-68381282D01*
X97838717Y-68269481D01*
X97838709Y-68269475D01*
X97701790Y-68190426D01*
X97701786Y-68190424D01*
X97701784Y-68190423D01*
X97549057Y-68149500D01*
X97390943Y-68149500D01*
X97238216Y-68190423D01*
X97238209Y-68190426D01*
X97101290Y-68269475D01*
X97101282Y-68269481D01*
X97057583Y-68313181D01*
X96996260Y-68346666D01*
X96969902Y-68349500D01*
X92507328Y-68349500D01*
X92405465Y-68376793D01*
X92385247Y-68388467D01*
X92383440Y-68389511D01*
X92348791Y-68409515D01*
X92314143Y-68429519D01*
X92314140Y-68429521D01*
X91829522Y-68914139D01*
X91829520Y-68914142D01*
X91776794Y-69005464D01*
X91776793Y-69005466D01*
X91776793Y-69005467D01*
X91768769Y-69035413D01*
X91768768Y-69035414D01*
X91749500Y-69107326D01*
X91749500Y-70069902D01*
X91729815Y-70136941D01*
X91713181Y-70157583D01*
X91669481Y-70201282D01*
X91669475Y-70201290D01*
X91590426Y-70338209D01*
X91590423Y-70338216D01*
X91549500Y-70490943D01*
X85503750Y-70490943D01*
X85503750Y-58636381D01*
X89337000Y-58636381D01*
X89337000Y-60426106D01*
X89337002Y-60426132D01*
X89339913Y-60451237D01*
X89339915Y-60451241D01*
X89385293Y-60554014D01*
X89385294Y-60554015D01*
X89464735Y-60633456D01*
X89567509Y-60678835D01*
X89592635Y-60681750D01*
X91382364Y-60681749D01*
X91382379Y-60681747D01*
X91382382Y-60681747D01*
X91407487Y-60678836D01*
X91407488Y-60678835D01*
X91407491Y-60678835D01*
X91510265Y-60633456D01*
X91589706Y-60554015D01*
X91635085Y-60451241D01*
X91638000Y-60426115D01*
X91637999Y-60294326D01*
X91657683Y-60227290D01*
X91710487Y-60181535D01*
X91779645Y-60171591D01*
X91843201Y-60200615D01*
X91869995Y-60234850D01*
X91870329Y-60234646D01*
X91872107Y-60237547D01*
X91872477Y-60238020D01*
X91872873Y-60238797D01*
X91912228Y-60292966D01*
X92544537Y-59660658D01*
X92561575Y-59724243D01*
X92627401Y-59838257D01*
X92720493Y-59931349D01*
X92834507Y-59997175D01*
X92898090Y-60014212D01*
X92265782Y-60646519D01*
X92265782Y-60646520D01*
X92319949Y-60685874D01*
X92509282Y-60782345D01*
X92711370Y-60848007D01*
X92921254Y-60881250D01*
X93133746Y-60881250D01*
X93343627Y-60848007D01*
X93343630Y-60848007D01*
X93545717Y-60782345D01*
X93735054Y-60685872D01*
X93789216Y-60646520D01*
X93789217Y-60646520D01*
X93156908Y-60014212D01*
X93220493Y-59997175D01*
X93334507Y-59931349D01*
X93427599Y-59838257D01*
X93493425Y-59724243D01*
X93510462Y-59660659D01*
X94142770Y-60292967D01*
X94142770Y-60292966D01*
X94182122Y-60238804D01*
X94278595Y-60049467D01*
X94287992Y-60020545D01*
X94327428Y-59962868D01*
X94391786Y-59935669D01*
X94460633Y-59947581D01*
X94512110Y-59994824D01*
X94516408Y-60002564D01*
X94583504Y-60134245D01*
X94689941Y-60280744D01*
X94689945Y-60280749D01*
X94818000Y-60408804D01*
X94818005Y-60408808D01*
X94964501Y-60515243D01*
X94964503Y-60515244D01*
X94964506Y-60515246D01*
X95099296Y-60583925D01*
X95110359Y-60594373D01*
X95124203Y-60600696D01*
X95135243Y-60617875D01*
X95150091Y-60631898D01*
X95154332Y-60647579D01*
X95161977Y-60659474D01*
X95167000Y-60694409D01*
X95167000Y-60915245D01*
X95147315Y-60982284D01*
X95130681Y-61002926D01*
X94990426Y-61143181D01*
X94929103Y-61176666D01*
X94902745Y-61179500D01*
X91627273Y-61179500D01*
X91525413Y-61206793D01*
X91525410Y-61206794D01*
X91434085Y-61259521D01*
X90830426Y-61863181D01*
X90769103Y-61896666D01*
X90742745Y-61899500D01*
X90680943Y-61899500D01*
X90528216Y-61940423D01*
X90528209Y-61940426D01*
X90391290Y-62019475D01*
X90391282Y-62019481D01*
X90279481Y-62131282D01*
X90279475Y-62131290D01*
X90200426Y-62268209D01*
X90200423Y-62268216D01*
X90159500Y-62420943D01*
X90159500Y-62579056D01*
X90200423Y-62731783D01*
X90200426Y-62731790D01*
X90279475Y-62868709D01*
X90279479Y-62868714D01*
X90279480Y-62868716D01*
X90391284Y-62980520D01*
X90391286Y-62980521D01*
X90391290Y-62980524D01*
X90528209Y-63059573D01*
X90528216Y-63059577D01*
X90680943Y-63100500D01*
X90680945Y-63100500D01*
X90839055Y-63100500D01*
X90839057Y-63100500D01*
X90991784Y-63059577D01*
X91128716Y-62980520D01*
X91240520Y-62868716D01*
X91319577Y-62731784D01*
X91360500Y-62579057D01*
X91360500Y-62517255D01*
X91380185Y-62450216D01*
X91396819Y-62429574D01*
X91809574Y-62016819D01*
X91870897Y-61983334D01*
X91897255Y-61980500D01*
X95172725Y-61980500D01*
X95172727Y-61980500D01*
X95274588Y-61953207D01*
X95365913Y-61900480D01*
X95803206Y-61463184D01*
X95803211Y-61463181D01*
X95813411Y-61452980D01*
X95813413Y-61452980D01*
X95887980Y-61378413D01*
X95940707Y-61287087D01*
X95944949Y-61271256D01*
X95947832Y-61260499D01*
X95962222Y-61206793D01*
X95968001Y-61185227D01*
X95968001Y-61079773D01*
X95968001Y-61072178D01*
X95968000Y-61072160D01*
X95968000Y-60694409D01*
X95987685Y-60627370D01*
X96035702Y-60583925D01*
X96170494Y-60515246D01*
X96317001Y-60408803D01*
X96445053Y-60280751D01*
X96551496Y-60134244D01*
X96633711Y-59972889D01*
X96689671Y-59800659D01*
X96703922Y-59710675D01*
X96715027Y-59640571D01*
X96744956Y-59577436D01*
X96804268Y-59540505D01*
X96874130Y-59541503D01*
X96932363Y-59580113D01*
X96959973Y-59640571D01*
X96985329Y-59800660D01*
X97041287Y-59972886D01*
X97041288Y-59972889D01*
X97123506Y-60134247D01*
X97229941Y-60280744D01*
X97229945Y-60280749D01*
X97358000Y-60408804D01*
X97358005Y-60408808D01*
X97485787Y-60501646D01*
X97504506Y-60515246D01*
X97580594Y-60554015D01*
X97665860Y-60597461D01*
X97665863Y-60597462D01*
X97728690Y-60617875D01*
X97838091Y-60653421D01*
X97920929Y-60666541D01*
X98016949Y-60681750D01*
X98016954Y-60681750D01*
X98198051Y-60681750D01*
X98284759Y-60668015D01*
X98376909Y-60653421D01*
X98549139Y-60597461D01*
X98710494Y-60515246D01*
X98857001Y-60408803D01*
X98985053Y-60280751D01*
X99091496Y-60134244D01*
X99173711Y-59972889D01*
X99229671Y-59800659D01*
X99244265Y-59708509D01*
X99258000Y-59621801D01*
X99258000Y-59440698D01*
X99237219Y-59309500D01*
X99229671Y-59261841D01*
X99182416Y-59116403D01*
X99173712Y-59089613D01*
X99173711Y-59089610D01*
X99134691Y-59013030D01*
X99091496Y-58928256D01*
X99077896Y-58909537D01*
X98985058Y-58781755D01*
X98985054Y-58781750D01*
X98856999Y-58653695D01*
X98856994Y-58653691D01*
X98833169Y-58636381D01*
X105847000Y-58636381D01*
X105847000Y-60426106D01*
X105847002Y-60426132D01*
X105849913Y-60451237D01*
X105849915Y-60451241D01*
X105895293Y-60554014D01*
X105895294Y-60554015D01*
X105974735Y-60633456D01*
X106077509Y-60678835D01*
X106102635Y-60681750D01*
X107892364Y-60681749D01*
X107892379Y-60681747D01*
X107892382Y-60681747D01*
X107917487Y-60678836D01*
X107917488Y-60678835D01*
X107917491Y-60678835D01*
X108020265Y-60633456D01*
X108099706Y-60554015D01*
X108145085Y-60451241D01*
X108148000Y-60426115D01*
X108147999Y-60294326D01*
X108167683Y-60227290D01*
X108220487Y-60181535D01*
X108289645Y-60171591D01*
X108353201Y-60200615D01*
X108379995Y-60234850D01*
X108380329Y-60234646D01*
X108382107Y-60237547D01*
X108382477Y-60238020D01*
X108382873Y-60238797D01*
X108422228Y-60292966D01*
X109054537Y-59660658D01*
X109071575Y-59724243D01*
X109137401Y-59838257D01*
X109230493Y-59931349D01*
X109344507Y-59997175D01*
X109408090Y-60014212D01*
X108775782Y-60646519D01*
X108775782Y-60646520D01*
X108829949Y-60685874D01*
X109019282Y-60782345D01*
X109221370Y-60848007D01*
X109431254Y-60881250D01*
X109643746Y-60881250D01*
X109853627Y-60848007D01*
X109853630Y-60848007D01*
X110055717Y-60782345D01*
X110245054Y-60685872D01*
X110299216Y-60646520D01*
X110299217Y-60646520D01*
X109666908Y-60014212D01*
X109730493Y-59997175D01*
X109844507Y-59931349D01*
X109937599Y-59838257D01*
X110003425Y-59724243D01*
X110020462Y-59660658D01*
X110652770Y-60292967D01*
X110652770Y-60292966D01*
X110692122Y-60238804D01*
X110788595Y-60049467D01*
X110797992Y-60020545D01*
X110837428Y-59962868D01*
X110901786Y-59935669D01*
X110970633Y-59947581D01*
X111022110Y-59994824D01*
X111026408Y-60002564D01*
X111093504Y-60134245D01*
X111199941Y-60280744D01*
X111199945Y-60280749D01*
X111328000Y-60408804D01*
X111328005Y-60408808D01*
X111455787Y-60501646D01*
X111474506Y-60515246D01*
X111550594Y-60554015D01*
X111635860Y-60597461D01*
X111635863Y-60597462D01*
X111698690Y-60617875D01*
X111808091Y-60653421D01*
X111890929Y-60666541D01*
X111986949Y-60681750D01*
X111986954Y-60681750D01*
X112168051Y-60681750D01*
X112254759Y-60668015D01*
X112346909Y-60653421D01*
X112519139Y-60597461D01*
X112680494Y-60515246D01*
X112827001Y-60408803D01*
X112955053Y-60280751D01*
X113061496Y-60134244D01*
X113143711Y-59972889D01*
X113199671Y-59800659D01*
X113214265Y-59708509D01*
X113228000Y-59621801D01*
X113228000Y-59562155D01*
X122360000Y-59562155D01*
X122360000Y-60260000D01*
X123384722Y-60260000D01*
X123340667Y-60336306D01*
X123310000Y-60450756D01*
X123310000Y-60569244D01*
X123340667Y-60683694D01*
X123384722Y-60760000D01*
X122360000Y-60760000D01*
X122360000Y-61457844D01*
X122366401Y-61517372D01*
X122366403Y-61517379D01*
X122416645Y-61652086D01*
X122416649Y-61652093D01*
X122502809Y-61767187D01*
X122502812Y-61767190D01*
X122617906Y-61853350D01*
X122617913Y-61853354D01*
X122752620Y-61903596D01*
X122752627Y-61903598D01*
X122812155Y-61909999D01*
X122812172Y-61910000D01*
X123510000Y-61910000D01*
X123510000Y-60885277D01*
X123586306Y-60929333D01*
X123700756Y-60960000D01*
X123819244Y-60960000D01*
X123933694Y-60929333D01*
X124010000Y-60885277D01*
X124010000Y-61910000D01*
X124707828Y-61910000D01*
X124707844Y-61909999D01*
X124767372Y-61903598D01*
X124767379Y-61903596D01*
X124902086Y-61853354D01*
X124902093Y-61853350D01*
X125017187Y-61767190D01*
X125017190Y-61767187D01*
X125103350Y-61652093D01*
X125103354Y-61652086D01*
X125153596Y-61517379D01*
X125153598Y-61517372D01*
X125159999Y-61457844D01*
X125160000Y-61457827D01*
X125160000Y-61364969D01*
X125179685Y-61297930D01*
X125232489Y-61252175D01*
X125301647Y-61242231D01*
X125365203Y-61271256D01*
X125381012Y-61288481D01*
X125381146Y-61288368D01*
X125384308Y-61292070D01*
X125384310Y-61292073D01*
X125517927Y-61425690D01*
X125670801Y-61536760D01*
X125692555Y-61547844D01*
X125839163Y-61622545D01*
X125839165Y-61622545D01*
X125839168Y-61622547D01*
X125930079Y-61652086D01*
X126018881Y-61680940D01*
X126205514Y-61710500D01*
X126205519Y-61710500D01*
X126394486Y-61710500D01*
X126581118Y-61680940D01*
X126760832Y-61622547D01*
X126929199Y-61536760D01*
X127082073Y-61425690D01*
X127215690Y-61292073D01*
X127326760Y-61139199D01*
X127412547Y-60970832D01*
X127470940Y-60791118D01*
X127488262Y-60681749D01*
X127500500Y-60604486D01*
X127500500Y-60415513D01*
X127470940Y-60228881D01*
X127426031Y-60090667D01*
X127412547Y-60049168D01*
X127412545Y-60049165D01*
X127412545Y-60049163D01*
X127360786Y-59947581D01*
X127326760Y-59880801D01*
X127215690Y-59727927D01*
X127139918Y-59652155D01*
X133510000Y-59652155D01*
X133510000Y-60350000D01*
X134534722Y-60350000D01*
X134490667Y-60426306D01*
X134460000Y-60540756D01*
X134460000Y-60659244D01*
X134490667Y-60773694D01*
X134534722Y-60850000D01*
X133510000Y-60850000D01*
X133510000Y-61547844D01*
X133516401Y-61607372D01*
X133516403Y-61607379D01*
X133566645Y-61742086D01*
X133566649Y-61742093D01*
X133652809Y-61857187D01*
X133652812Y-61857190D01*
X133767906Y-61943350D01*
X133767913Y-61943354D01*
X133902620Y-61993596D01*
X133902627Y-61993598D01*
X133962155Y-61999999D01*
X133962172Y-62000000D01*
X134660000Y-62000000D01*
X134660000Y-60975277D01*
X134736306Y-61019333D01*
X134850756Y-61050000D01*
X134969244Y-61050000D01*
X135083694Y-61019333D01*
X135160000Y-60975277D01*
X135160000Y-62000000D01*
X135857828Y-62000000D01*
X135857844Y-61999999D01*
X135917372Y-61993598D01*
X135917379Y-61993596D01*
X136052086Y-61943354D01*
X136052093Y-61943350D01*
X136167187Y-61857190D01*
X136167190Y-61857187D01*
X136253350Y-61742093D01*
X136253354Y-61742086D01*
X136303596Y-61607379D01*
X136303598Y-61607372D01*
X136309999Y-61547844D01*
X136310000Y-61547827D01*
X136310000Y-61454969D01*
X136329685Y-61387930D01*
X136382489Y-61342175D01*
X136451647Y-61332231D01*
X136515203Y-61361256D01*
X136531012Y-61378481D01*
X136531146Y-61378368D01*
X136534308Y-61382070D01*
X136534310Y-61382073D01*
X136667927Y-61515690D01*
X136820801Y-61626760D01*
X136870520Y-61652093D01*
X136989163Y-61712545D01*
X136989165Y-61712545D01*
X136989168Y-61712547D01*
X137080079Y-61742086D01*
X137168881Y-61770940D01*
X137355514Y-61800500D01*
X137355519Y-61800500D01*
X137544486Y-61800500D01*
X137731118Y-61770940D01*
X137742668Y-61767187D01*
X137910832Y-61712547D01*
X137914850Y-61710500D01*
X137972864Y-61680940D01*
X138079199Y-61626760D01*
X138232073Y-61515690D01*
X138365690Y-61382073D01*
X138476760Y-61229199D01*
X138562547Y-61060832D01*
X138620940Y-60881118D01*
X138635194Y-60791122D01*
X138650500Y-60694486D01*
X138650500Y-60505513D01*
X138620940Y-60318881D01*
X138573082Y-60171591D01*
X138562547Y-60139168D01*
X138562545Y-60139165D01*
X138562545Y-60139163D01*
X138489000Y-59994824D01*
X138476760Y-59970801D01*
X138365690Y-59817927D01*
X138232073Y-59684310D01*
X138079199Y-59573240D01*
X138057477Y-59562172D01*
X137910836Y-59487454D01*
X137731118Y-59429059D01*
X137544486Y-59399500D01*
X137544481Y-59399500D01*
X137355519Y-59399500D01*
X137355514Y-59399500D01*
X137168881Y-59429059D01*
X136989163Y-59487454D01*
X136820800Y-59573240D01*
X136753963Y-59621801D01*
X136667927Y-59684310D01*
X136667925Y-59684312D01*
X136667924Y-59684312D01*
X136534312Y-59817924D01*
X136531146Y-59821632D01*
X136530367Y-59820966D01*
X136478975Y-59860586D01*
X136409361Y-59866557D01*
X136347570Y-59833944D01*
X136313219Y-59773102D01*
X136310000Y-59745030D01*
X136310000Y-59652172D01*
X136309999Y-59652155D01*
X136303598Y-59592627D01*
X136303596Y-59592620D01*
X136253354Y-59457913D01*
X136253350Y-59457906D01*
X136167190Y-59342812D01*
X136167187Y-59342809D01*
X136052093Y-59256649D01*
X136052086Y-59256645D01*
X135917379Y-59206403D01*
X135917372Y-59206401D01*
X135857844Y-59200000D01*
X135160000Y-59200000D01*
X135160000Y-60224722D01*
X135083694Y-60180667D01*
X134969244Y-60150000D01*
X134850756Y-60150000D01*
X134736306Y-60180667D01*
X134660000Y-60224722D01*
X134660000Y-59200000D01*
X133962155Y-59200000D01*
X133902627Y-59206401D01*
X133902620Y-59206403D01*
X133767913Y-59256645D01*
X133767906Y-59256649D01*
X133652812Y-59342809D01*
X133652809Y-59342812D01*
X133566649Y-59457906D01*
X133566645Y-59457913D01*
X133516403Y-59592620D01*
X133516401Y-59592627D01*
X133510000Y-59652155D01*
X127139918Y-59652155D01*
X127082073Y-59594310D01*
X126929199Y-59483240D01*
X126879492Y-59457913D01*
X126760836Y-59397454D01*
X126581118Y-59339059D01*
X126394486Y-59309500D01*
X126394481Y-59309500D01*
X126205519Y-59309500D01*
X126205514Y-59309500D01*
X126018881Y-59339059D01*
X125839163Y-59397454D01*
X125670800Y-59483240D01*
X125604721Y-59531250D01*
X125517927Y-59594310D01*
X125517925Y-59594312D01*
X125517924Y-59594312D01*
X125384312Y-59727924D01*
X125381146Y-59731632D01*
X125380367Y-59730966D01*
X125328975Y-59770586D01*
X125259361Y-59776557D01*
X125197570Y-59743944D01*
X125163219Y-59683102D01*
X125160000Y-59655030D01*
X125160000Y-59562172D01*
X125159999Y-59562155D01*
X125153598Y-59502627D01*
X125153596Y-59502620D01*
X125103354Y-59367913D01*
X125103350Y-59367906D01*
X125017190Y-59252812D01*
X125017187Y-59252809D01*
X124902093Y-59166649D01*
X124902086Y-59166645D01*
X124767379Y-59116403D01*
X124767372Y-59116401D01*
X124707844Y-59110000D01*
X124010000Y-59110000D01*
X124010000Y-60134722D01*
X123933694Y-60090667D01*
X123819244Y-60060000D01*
X123700756Y-60060000D01*
X123586306Y-60090667D01*
X123510000Y-60134722D01*
X123510000Y-59110000D01*
X122812155Y-59110000D01*
X122752627Y-59116401D01*
X122752620Y-59116403D01*
X122617913Y-59166645D01*
X122617906Y-59166649D01*
X122502812Y-59252809D01*
X122502809Y-59252812D01*
X122416649Y-59367906D01*
X122416645Y-59367913D01*
X122366403Y-59502620D01*
X122366401Y-59502627D01*
X122360000Y-59562155D01*
X113228000Y-59562155D01*
X113228000Y-59440698D01*
X113207219Y-59309500D01*
X113199671Y-59261841D01*
X113152416Y-59116403D01*
X113143712Y-59089613D01*
X113143711Y-59089610D01*
X113104691Y-59013030D01*
X113061496Y-58928256D01*
X113047896Y-58909537D01*
X112955058Y-58781755D01*
X112955054Y-58781750D01*
X112826999Y-58653695D01*
X112826994Y-58653691D01*
X112680497Y-58547256D01*
X112680496Y-58547255D01*
X112680494Y-58547254D01*
X112604406Y-58508485D01*
X112519139Y-58465038D01*
X112519136Y-58465037D01*
X112346910Y-58409079D01*
X112168051Y-58380750D01*
X112168046Y-58380750D01*
X111986954Y-58380750D01*
X111986949Y-58380750D01*
X111808089Y-58409079D01*
X111635863Y-58465037D01*
X111635860Y-58465038D01*
X111474502Y-58547256D01*
X111328005Y-58653691D01*
X111328000Y-58653695D01*
X111199945Y-58781750D01*
X111199941Y-58781755D01*
X111093504Y-58928254D01*
X111026408Y-59059935D01*
X110978433Y-59110730D01*
X110910612Y-59127525D01*
X110844477Y-59104987D01*
X110801027Y-59050271D01*
X110797992Y-59041955D01*
X110788594Y-59013030D01*
X110692124Y-58823699D01*
X110652770Y-58769532D01*
X110652769Y-58769532D01*
X110020462Y-59401840D01*
X110003425Y-59338257D01*
X109937599Y-59224243D01*
X109844507Y-59131151D01*
X109730493Y-59065325D01*
X109666909Y-59048287D01*
X110299216Y-58415978D01*
X110245050Y-58376625D01*
X110055717Y-58280154D01*
X109853629Y-58214492D01*
X109643746Y-58181250D01*
X109431254Y-58181250D01*
X109221372Y-58214492D01*
X109221369Y-58214492D01*
X109019282Y-58280154D01*
X108829939Y-58376630D01*
X108775782Y-58415977D01*
X108775782Y-58415978D01*
X109408091Y-59048287D01*
X109344507Y-59065325D01*
X109230493Y-59131151D01*
X109137401Y-59224243D01*
X109071575Y-59338257D01*
X109054537Y-59401841D01*
X108422228Y-58769532D01*
X108422227Y-58769532D01*
X108382880Y-58823690D01*
X108382877Y-58823695D01*
X108382481Y-58824473D01*
X108382252Y-58824714D01*
X108380338Y-58827840D01*
X108379680Y-58827437D01*
X108334504Y-58875267D01*
X108266683Y-58892059D01*
X108200549Y-58869518D01*
X108157100Y-58814801D01*
X108147999Y-58768173D01*
X108147999Y-58636393D01*
X108147999Y-58636386D01*
X108147997Y-58636367D01*
X108145086Y-58611262D01*
X108145085Y-58611261D01*
X108145085Y-58611259D01*
X108099706Y-58508485D01*
X108020265Y-58429044D01*
X108020263Y-58429043D01*
X107917492Y-58383665D01*
X107892365Y-58380750D01*
X106102643Y-58380750D01*
X106102617Y-58380752D01*
X106077512Y-58383663D01*
X106077508Y-58383665D01*
X105974735Y-58429043D01*
X105895294Y-58508484D01*
X105849915Y-58611256D01*
X105849915Y-58611258D01*
X105847000Y-58636381D01*
X98833169Y-58636381D01*
X98710497Y-58547256D01*
X98710496Y-58547255D01*
X98710494Y-58547254D01*
X98634406Y-58508485D01*
X98549139Y-58465038D01*
X98549136Y-58465037D01*
X98376910Y-58409079D01*
X98198051Y-58380750D01*
X98198046Y-58380750D01*
X98016954Y-58380750D01*
X98016949Y-58380750D01*
X97838089Y-58409079D01*
X97665863Y-58465037D01*
X97665860Y-58465038D01*
X97504502Y-58547256D01*
X97358005Y-58653691D01*
X97358000Y-58653695D01*
X97229945Y-58781750D01*
X97229941Y-58781755D01*
X97123506Y-58928252D01*
X97041288Y-59089610D01*
X97041287Y-59089613D01*
X96985329Y-59261839D01*
X96959973Y-59421928D01*
X96930044Y-59485063D01*
X96870732Y-59521994D01*
X96800869Y-59520996D01*
X96742637Y-59482386D01*
X96715027Y-59421928D01*
X96697219Y-59309500D01*
X96689671Y-59261841D01*
X96642416Y-59116403D01*
X96633712Y-59089613D01*
X96633711Y-59089610D01*
X96594691Y-59013030D01*
X96551496Y-58928256D01*
X96537896Y-58909537D01*
X96445058Y-58781755D01*
X96445054Y-58781750D01*
X96316999Y-58653695D01*
X96316994Y-58653691D01*
X96170497Y-58547256D01*
X96170496Y-58547255D01*
X96170494Y-58547254D01*
X96094406Y-58508485D01*
X96009139Y-58465038D01*
X96009136Y-58465037D01*
X95836910Y-58409079D01*
X95658051Y-58380750D01*
X95658046Y-58380750D01*
X95476954Y-58380750D01*
X95476949Y-58380750D01*
X95298089Y-58409079D01*
X95125863Y-58465037D01*
X95125860Y-58465038D01*
X94964502Y-58547256D01*
X94818005Y-58653691D01*
X94818000Y-58653695D01*
X94689945Y-58781750D01*
X94689941Y-58781755D01*
X94583504Y-58928254D01*
X94516408Y-59059935D01*
X94468433Y-59110730D01*
X94400612Y-59127525D01*
X94334477Y-59104987D01*
X94291027Y-59050271D01*
X94287992Y-59041955D01*
X94278594Y-59013030D01*
X94182124Y-58823699D01*
X94142770Y-58769532D01*
X94142769Y-58769532D01*
X93510462Y-59401840D01*
X93493425Y-59338257D01*
X93427599Y-59224243D01*
X93334507Y-59131151D01*
X93220493Y-59065325D01*
X93156909Y-59048287D01*
X93789216Y-58415978D01*
X93735050Y-58376625D01*
X93545717Y-58280154D01*
X93343629Y-58214492D01*
X93133746Y-58181250D01*
X92921254Y-58181250D01*
X92711372Y-58214492D01*
X92711369Y-58214492D01*
X92509282Y-58280154D01*
X92319939Y-58376630D01*
X92265782Y-58415977D01*
X92265782Y-58415978D01*
X92898091Y-59048287D01*
X92834507Y-59065325D01*
X92720493Y-59131151D01*
X92627401Y-59224243D01*
X92561575Y-59338257D01*
X92544537Y-59401841D01*
X91912228Y-58769532D01*
X91912227Y-58769532D01*
X91872880Y-58823690D01*
X91872877Y-58823695D01*
X91872481Y-58824473D01*
X91872252Y-58824714D01*
X91870338Y-58827840D01*
X91869680Y-58827437D01*
X91824504Y-58875267D01*
X91756683Y-58892059D01*
X91690549Y-58869518D01*
X91647100Y-58814801D01*
X91637999Y-58768173D01*
X91637999Y-58636393D01*
X91637999Y-58636386D01*
X91637997Y-58636367D01*
X91635086Y-58611262D01*
X91635085Y-58611261D01*
X91635085Y-58611259D01*
X91589706Y-58508485D01*
X91510265Y-58429044D01*
X91510263Y-58429043D01*
X91407492Y-58383665D01*
X91382365Y-58380750D01*
X89592643Y-58380750D01*
X89592617Y-58380752D01*
X89567512Y-58383663D01*
X89567508Y-58383665D01*
X89464735Y-58429043D01*
X89385294Y-58508484D01*
X89339915Y-58611256D01*
X89339915Y-58611258D01*
X89337000Y-58636381D01*
X85503750Y-58636381D01*
X85503750Y-55356250D01*
X64563750Y-55356250D01*
X64563750Y-103356250D01*
X58960500Y-103356250D01*
X58960500Y-46744500D01*
X58980185Y-46677461D01*
X59032989Y-46631706D01*
X59084500Y-46620500D01*
X187985500Y-46620500D01*
X188052539Y-46640185D01*
G37*
%TD.AperFunction*%
%TA.AperFunction,Conductor*%
G36*
X182365809Y-69610185D02*
G01*
X182411564Y-69662989D01*
X182421508Y-69732147D01*
X182392483Y-69795703D01*
X182386451Y-69802181D01*
X182372051Y-69816580D01*
X182372048Y-69816584D01*
X182289919Y-69939498D01*
X182289912Y-69939511D01*
X182233343Y-70076082D01*
X182233340Y-70076092D01*
X182204500Y-70221079D01*
X182204500Y-70221082D01*
X182204500Y-70368918D01*
X182204500Y-70368920D01*
X182204499Y-70368920D01*
X182233340Y-70513907D01*
X182233343Y-70513917D01*
X182289912Y-70650488D01*
X182289922Y-70650506D01*
X182339258Y-70724343D01*
X182360136Y-70791020D01*
X182341651Y-70858400D01*
X182328559Y-70870159D01*
X182324437Y-70890883D01*
X182724999Y-71291446D01*
X182725000Y-71291446D01*
X182934628Y-71081819D01*
X182995951Y-71048334D01*
X183022309Y-71045500D01*
X183777691Y-71045500D01*
X183844730Y-71065185D01*
X183865372Y-71081819D01*
X184251777Y-71468223D01*
X184486825Y-71703271D01*
X184520310Y-71764594D01*
X184515326Y-71834286D01*
X184473454Y-71890219D01*
X184407990Y-71914636D01*
X184351692Y-71905513D01*
X184264748Y-71869500D01*
X184264738Y-71869497D01*
X184139071Y-71844500D01*
X184139069Y-71844500D01*
X184115989Y-71844500D01*
X184188291Y-71814552D01*
X184244552Y-71758291D01*
X184275000Y-71684782D01*
X184275000Y-71605218D01*
X184244552Y-71531709D01*
X184188291Y-71475448D01*
X184114782Y-71445000D01*
X184035218Y-71445000D01*
X183961709Y-71475448D01*
X183905448Y-71531709D01*
X183875000Y-71605218D01*
X183875000Y-71684782D01*
X183905448Y-71758291D01*
X183961709Y-71814552D01*
X184034011Y-71844500D01*
X184010931Y-71844500D01*
X184010929Y-71844500D01*
X183885261Y-71869497D01*
X183885251Y-71869500D01*
X183798308Y-71905513D01*
X183728838Y-71912982D01*
X183666359Y-71881706D01*
X183630708Y-71821617D01*
X183633202Y-71751792D01*
X183663175Y-71703270D01*
X183721446Y-71644999D01*
X183400001Y-71323553D01*
X183400000Y-71323553D01*
X183078553Y-71645000D01*
X183078553Y-71645001D01*
X183136823Y-71703271D01*
X183170308Y-71764594D01*
X183165324Y-71834286D01*
X183123452Y-71890219D01*
X183057988Y-71914636D01*
X183001689Y-71905513D01*
X182938282Y-71879249D01*
X182914744Y-71869499D01*
X182914738Y-71869497D01*
X182789071Y-71844500D01*
X182789069Y-71844500D01*
X182765989Y-71844500D01*
X182838291Y-71814552D01*
X182894552Y-71758291D01*
X182925000Y-71684782D01*
X182925000Y-71605218D01*
X182894552Y-71531709D01*
X182838291Y-71475448D01*
X182764782Y-71445000D01*
X182685218Y-71445000D01*
X182611709Y-71475448D01*
X182555448Y-71531709D01*
X182525000Y-71605218D01*
X182525000Y-71684782D01*
X182555448Y-71758291D01*
X182611709Y-71814552D01*
X182684011Y-71844500D01*
X182660931Y-71844500D01*
X182660929Y-71844500D01*
X182535261Y-71869497D01*
X182535256Y-71869499D01*
X182448306Y-71905514D01*
X182378837Y-71912982D01*
X182316358Y-71881706D01*
X182280706Y-71821617D01*
X182283201Y-71751792D01*
X182313175Y-71703270D01*
X182371446Y-71645000D01*
X182371446Y-71644999D01*
X181970884Y-71244437D01*
X181929061Y-71345409D01*
X181885221Y-71399813D01*
X181818926Y-71421878D01*
X181751227Y-71404599D01*
X181703616Y-71353462D01*
X181690500Y-71297957D01*
X181690500Y-69717255D01*
X181699144Y-69687814D01*
X181705668Y-69657828D01*
X181709422Y-69652812D01*
X181710185Y-69650216D01*
X181726819Y-69629574D01*
X181729574Y-69626819D01*
X181790897Y-69593334D01*
X181817255Y-69590500D01*
X182298770Y-69590500D01*
X182365809Y-69610185D01*
G37*
%TD.AperFunction*%
%TD*%
M02*
