%TF.GenerationSoftware,KiCad,Pcbnew,9.0.4*%
%TF.CreationDate,2026-06-14T22:04:49-05:00*%
%TF.ProjectId,Microgrid-Home-Energy-Monitor,4d696372-6f67-4726-9964-2d486f6d652d,rev?*%
%TF.SameCoordinates,Original*%
%TF.FileFunction,Copper,L2,Bot*%
%TF.FilePolarity,Positive*%
%FSLAX46Y46*%
G04 Gerber Fmt 4.6, Leading zero omitted, Abs format (unit mm)*
G04 Created by KiCad (PCBNEW 9.0.4) date 2026-06-14 22:04:49*
%MOMM*%
%LPD*%
G01*
G04 APERTURE LIST*
G04 Aperture macros list*
%AMRoundRect*
0 Rectangle with rounded corners*
0 $1 Rounding radius*
0 $2 $3 $4 $5 $6 $7 $8 $9 X,Y pos of 4 corners*
0 Add a 4 corners polygon primitive as box body*
4,1,4,$2,$3,$4,$5,$6,$7,$8,$9,$2,$3,0*
0 Add four circle primitives for the rounded corners*
1,1,$1+$1,$2,$3*
1,1,$1+$1,$4,$5*
1,1,$1+$1,$6,$7*
1,1,$1+$1,$8,$9*
0 Add four rect primitives between the rounded corners*
20,1,$1+$1,$2,$3,$4,$5,0*
20,1,$1+$1,$4,$5,$6,$7,0*
20,1,$1+$1,$6,$7,$8,$9,0*
20,1,$1+$1,$8,$9,$2,$3,0*%
G04 Aperture macros list end*
%TA.AperFunction,ComponentPad*%
%ADD10C,2.000000*%
%TD*%
%TA.AperFunction,ComponentPad*%
%ADD11R,1.700000X1.700000*%
%TD*%
%TA.AperFunction,ComponentPad*%
%ADD12C,1.700000*%
%TD*%
%TA.AperFunction,ComponentPad*%
%ADD13RoundRect,0.250000X0.550000X0.550000X-0.550000X0.550000X-0.550000X-0.550000X0.550000X-0.550000X0*%
%TD*%
%TA.AperFunction,ComponentPad*%
%ADD14C,1.600000*%
%TD*%
%TA.AperFunction,ComponentPad*%
%ADD15R,1.800000X1.800000*%
%TD*%
%TA.AperFunction,ComponentPad*%
%ADD16C,1.800000*%
%TD*%
%TA.AperFunction,ComponentPad*%
%ADD17C,0.700000*%
%TD*%
%TA.AperFunction,ComponentPad*%
%ADD18O,2.400000X0.900000*%
%TD*%
%TA.AperFunction,ComponentPad*%
%ADD19O,1.700000X0.900000*%
%TD*%
%TA.AperFunction,HeatsinkPad*%
%ADD20C,0.600000*%
%TD*%
%TA.AperFunction,ViaPad*%
%ADD21C,0.600000*%
%TD*%
%TA.AperFunction,Conductor*%
%ADD22C,0.200000*%
%TD*%
G04 APERTURE END LIST*
D10*
%TO.P,SW2,1,1*%
%TO.N,/IO0*%
X111413750Y-96683750D03*
X111413750Y-103183750D03*
%TO.P,SW2,2,2*%
%TO.N,GND*%
X106913750Y-96683750D03*
X106913750Y-103183750D03*
%TD*%
D11*
%TO.P,J5,1,Pin_1*%
%TO.N,GND*%
X98433750Y-109603750D03*
D12*
%TO.P,J5,2,Pin_2*%
%TO.N,+3.3V*%
X100973750Y-109603750D03*
%TO.P,J5,3,Pin_3*%
%TO.N,/TX0*%
X103513750Y-109603750D03*
%TO.P,J5,4,Pin_4*%
%TO.N,/RX0*%
X106053750Y-109603750D03*
%TO.P,J5,5,Pin_5*%
%TO.N,/EN*%
X108593750Y-109603750D03*
%TO.P,J5,6,Pin_6*%
%TO.N,/IO0*%
X111133750Y-109603750D03*
%TD*%
D10*
%TO.P,SW1,1,1*%
%TO.N,/EN*%
X125873750Y-96493750D03*
X125873750Y-102993750D03*
%TO.P,SW1,2,2*%
%TO.N,GND*%
X121373750Y-96493750D03*
X121373750Y-102993750D03*
%TD*%
D13*
%TO.P,U2,1*%
%TO.N,/ADC_CH1*%
X161935000Y-105860000D03*
D14*
%TO.P,U2,2,-*%
X161935000Y-103320000D03*
%TO.P,U2,3,+*%
%TO.N,Net-(U2A-+)*%
X161935000Y-100780000D03*
%TO.P,U2,4,V-*%
%TO.N,GND*%
X161935000Y-98240000D03*
%TO.P,U2,5,+*%
%TO.N,Net-(U2B-+)*%
X154315000Y-98240000D03*
%TO.P,U2,6,-*%
%TO.N,/ADC_CH2*%
X154315000Y-100780000D03*
%TO.P,U2,7*%
X154315000Y-103320000D03*
%TO.P,U2,8,V+*%
%TO.N,+3.3V*%
X154315000Y-105860000D03*
%TD*%
D11*
%TO.P,J6,1,Pin_1*%
%TO.N,+3.3V*%
X106997500Y-59531250D03*
D12*
%TO.P,J6,2,Pin_2*%
%TO.N,GND*%
X109537500Y-59531250D03*
%TO.P,J6,3,Pin_3*%
%TO.N,/VOLT_ADC*%
X112077500Y-59531250D03*
%TD*%
D15*
%TO.P,D1,1,K*%
%TO.N,GND*%
X134910000Y-60600000D03*
D16*
%TO.P,D1,2,A*%
%TO.N,Net-(D1-A)*%
X137450000Y-60600000D03*
%TD*%
D11*
%TO.P,J3,1,Pin_1*%
%TO.N,+3.3V*%
X90487500Y-59531250D03*
D12*
%TO.P,J3,2,Pin_2*%
%TO.N,GND*%
X93027500Y-59531250D03*
%TO.P,J3,3,Pin_3*%
%TO.N,/SCL*%
X95567500Y-59531250D03*
%TO.P,J3,4,Pin_4*%
%TO.N,/SDA*%
X98107500Y-59531250D03*
%TD*%
D17*
%TO.P,J4,A1,GND*%
%TO.N,GND*%
X182725000Y-77595000D03*
%TO.P,J4,A4,VBUS*%
%TO.N,VBUS*%
X182725000Y-76745000D03*
%TO.P,J4,A5,CC1*%
%TO.N,Net-(J4-CC1)*%
X182725000Y-75895000D03*
%TO.P,J4,A6,D+*%
%TO.N,unconnected-(J4-D+-PadA6)*%
X182725000Y-75045000D03*
%TO.P,J4,A7,D-*%
%TO.N,unconnected-(J4-D--PadA7)*%
X182725000Y-74195000D03*
%TO.P,J4,A8,SBU1*%
%TO.N,unconnected-(J4-SBU1-PadA8)*%
X182725000Y-73345000D03*
%TO.P,J4,A9,VBUS*%
%TO.N,VBUS*%
X182725000Y-72495000D03*
%TO.P,J4,A12,GND*%
%TO.N,GND*%
X182725000Y-71645000D03*
%TO.P,J4,B1,GND*%
X184075000Y-71645000D03*
%TO.P,J4,B4,VBUS*%
%TO.N,VBUS*%
X184075000Y-72495000D03*
%TO.P,J4,B5,CC2*%
%TO.N,Net-(J4-CC2)*%
X184075000Y-73345000D03*
%TO.P,J4,B6,D+*%
%TO.N,unconnected-(J4-D+-PadB6)*%
X184075000Y-74195000D03*
%TO.P,J4,B7,D-*%
%TO.N,unconnected-(J4-D--PadB7)*%
X184075000Y-75045000D03*
%TO.P,J4,B8,SBU2*%
%TO.N,unconnected-(J4-SBU2-PadB8)*%
X184075000Y-75895000D03*
%TO.P,J4,B9,VBUS*%
%TO.N,VBUS*%
X184075000Y-76745000D03*
%TO.P,J4,B12,GND*%
%TO.N,GND*%
X184075000Y-77595000D03*
D18*
%TO.P,J4,S1,SHIELD*%
%TO.N,unconnected-(J4-SHIELD-PadS1)*%
X183705000Y-78945000D03*
D19*
%TO.N,unconnected-(J4-SHIELD-PadS1)_3*%
X187085000Y-78945000D03*
D18*
%TO.N,unconnected-(J4-SHIELD-PadS1)_2*%
X183705000Y-70295000D03*
D19*
%TO.N,unconnected-(J4-SHIELD-PadS1)_1*%
X187085000Y-70295000D03*
%TD*%
D15*
%TO.P,D2,1,K*%
%TO.N,GND*%
X123760000Y-60510000D03*
D16*
%TO.P,D2,2,A*%
%TO.N,Net-(D2-A)*%
X126300000Y-60510000D03*
%TD*%
D20*
%TO.P,U1,39,GND*%
%TO.N,GND*%
X93631250Y-81561250D03*
X95156250Y-81561250D03*
X92868750Y-80798750D03*
X94393750Y-80798750D03*
X95918750Y-80798750D03*
X93631250Y-80036250D03*
X95156250Y-80036250D03*
X92868750Y-79273750D03*
X94393750Y-79273750D03*
X95918750Y-79273750D03*
X93631250Y-78511250D03*
X95156250Y-78511250D03*
%TD*%
D21*
%TO.N,Net-(U2B-+)*%
X151560000Y-101550000D03*
X151560000Y-99920000D03*
%TO.N,GND*%
X98270000Y-105370000D03*
X105900000Y-105570000D03*
%TO.N,/EN*%
X101450000Y-90440000D03*
X102840000Y-106150000D03*
X101440000Y-95180000D03*
X115610000Y-90400000D03*
%TO.N,/SCL*%
X90760000Y-62500000D03*
%TO.N,Net-(J4-CC2)*%
X181290000Y-73320000D03*
%TO.N,/RX0*%
X104008978Y-96970455D03*
X106952152Y-92889148D03*
X97470000Y-68750000D03*
X92150000Y-70570000D03*
%TO.N,/TX0*%
X103210000Y-96930000D03*
X92803750Y-69356248D03*
X95970000Y-69356248D03*
X106380000Y-92330000D03*
%TO.N,/IO0*%
X111075025Y-93315025D03*
%TO.N,/VOLT_ADC*%
X90860000Y-88120000D03*
X98750000Y-95161000D03*
X110020000Y-89840000D03*
X90850000Y-96010000D03*
%TO.N,Net-(U1-IO2)*%
X104810000Y-73630000D03*
X114460000Y-63970000D03*
%TO.N,/ADC_CH1*%
X161970000Y-109000000D03*
X91660000Y-89560000D03*
%TO.N,/ADC_CH2*%
X94290000Y-89570000D03*
%TD*%
D22*
%TO.N,Net-(U2B-+)*%
X151560000Y-101550000D02*
X151560000Y-99920000D01*
%TO.N,GND*%
X105700000Y-105370000D02*
X98270000Y-105370000D01*
X105900000Y-105570000D02*
X105700000Y-105370000D01*
%TO.N,/EN*%
X101450000Y-95170000D02*
X101440000Y-95180000D01*
X115570000Y-90440000D02*
X115610000Y-90400000D01*
X101450000Y-90440000D02*
X101450000Y-95170000D01*
X102840000Y-106150000D02*
X105140000Y-106150000D01*
X101450000Y-90440000D02*
X115570000Y-90440000D01*
X105140000Y-106150000D02*
X108593750Y-109603750D01*
%TO.N,/SCL*%
X95120000Y-61580000D02*
X95567500Y-61132500D01*
X90760000Y-62500000D02*
X91680000Y-61580000D01*
X91680000Y-61580000D02*
X95120000Y-61580000D01*
X95567500Y-61132500D02*
X95567500Y-59531250D01*
%TO.N,Net-(J4-CC2)*%
X184075000Y-73345000D02*
X184569974Y-73345000D01*
X184569974Y-73345000D02*
X185570000Y-72344974D01*
X181390000Y-69400000D02*
X181290000Y-69500000D01*
X181290000Y-69500000D02*
X181290000Y-73320000D01*
X185570000Y-69190000D02*
X181600000Y-69190000D01*
X181600000Y-69190000D02*
X181390000Y-69400000D01*
X185570000Y-72344974D02*
X185570000Y-69190000D01*
%TO.N,/RX0*%
X104008523Y-96970000D02*
X104008978Y-96970455D01*
X106952152Y-92889148D02*
X104000000Y-95841300D01*
X104000000Y-96970000D02*
X104008523Y-96970000D01*
X92560055Y-68750000D02*
X97470000Y-68750000D01*
X92150000Y-70570000D02*
X92150000Y-69160055D01*
X104000000Y-95841300D02*
X104000000Y-96970000D01*
X92150000Y-69160055D02*
X92560055Y-68750000D01*
%TO.N,/TX0*%
X103210000Y-96930000D02*
X103210000Y-95500000D01*
X103210000Y-95500000D02*
X106380000Y-92330000D01*
X95966248Y-69356248D02*
X95970000Y-69360000D01*
X92803750Y-69356248D02*
X95966248Y-69356248D01*
X95970000Y-69360000D02*
X95970000Y-69356248D01*
%TO.N,/IO0*%
X111413750Y-93653750D02*
X111413750Y-96683750D01*
X111075025Y-93315025D02*
X111413750Y-93653750D01*
%TO.N,/VOLT_ADC*%
X98750000Y-90030000D02*
X98750000Y-95161000D01*
X90860000Y-96000000D02*
X90850000Y-96010000D01*
X110020000Y-89840000D02*
X98940000Y-89840000D01*
X98940000Y-89840000D02*
X98750000Y-90030000D01*
X90860000Y-88120000D02*
X90860000Y-96000000D01*
%TO.N,Net-(U1-IO2)*%
X104810000Y-73630000D02*
X114460000Y-63980000D01*
X114460000Y-63980000D02*
X114460000Y-63970000D01*
%TO.N,/ADC_CH1*%
X91660000Y-113650000D02*
X94110000Y-116100000D01*
X147440000Y-116100000D02*
X94110000Y-116100000D01*
X147440000Y-116220000D02*
X147440000Y-116100000D01*
X91660000Y-89560000D02*
X91660000Y-113650000D01*
X154750000Y-116220000D02*
X147440000Y-116220000D01*
X161970000Y-109000000D02*
X154750000Y-116220000D01*
%TO.N,/ADC_CH2*%
X147688943Y-115499000D02*
X117020000Y-115499000D01*
X94277100Y-115700000D02*
X92061000Y-113483900D01*
X153219000Y-115819000D02*
X148008943Y-115819000D01*
X92061000Y-90008943D02*
X92499943Y-89570000D01*
X92499943Y-89570000D02*
X94290000Y-89570000D01*
X153214000Y-104421000D02*
X153214000Y-115814000D01*
X154315000Y-103320000D02*
X153214000Y-104421000D01*
X92061000Y-113483900D02*
X92061000Y-90008943D01*
X117020000Y-115499000D02*
X116819000Y-115700000D01*
X148008943Y-115819000D02*
X147688943Y-115499000D01*
X116819000Y-115700000D02*
X94277100Y-115700000D01*
X153214000Y-115814000D02*
X153219000Y-115819000D01*
%TD*%
M02*
